<?xml version="1.0" standalone="no"?>
<!DOCTYPE svg PUBLIC "-//W3C//DTD SVG 20010904//EN"
 "http://www.w3.org/TR/2001/REC-SVG-20010904/DTD/svg10.dtd">
<svg version="1.0" xmlns="http://www.w3.org/2000/svg"
 width="404.000000pt" height="404.000000pt" viewBox="0 0 404.000000 404.000000"
 preserveAspectRatio="xMidYMid meet">
<metadata>
Created by potrace 1.11, written by Peter Selinger 2001-2013
</metadata>
<g transform="translate(0.000000,404.000000) scale(0.100000,-0.100000)"
fill="#000000" stroke="none">
<path d="M1410 3787 c-36 -5 -75 -10 -87 -11 -12 0 -19 -3 -17 -5 5 -5 -62
-31 -86 -34 -8 -1 -21 -8 -30 -14 -8 -7 -24 -19 -34 -26 -13 -10 -17 -21 -13
-38 5 -20 21 -28 89 -50 69 -21 83 -28 81 -45 -1 -10 0 -13 3 -6 8 16 29 15
47 -3 8 -8 21 -16 28 -17 8 -2 19 -8 26 -15 7 -6 18 -13 25 -16 10 -3 9 -9 -4
-23 -10 -10 -21 -14 -25 -10 -4 4 -1 11 7 16 8 5 12 11 9 15 -3 3 -27 -17 -53
-43 -51 -52 -81 -64 -70 -28 4 12 13 29 22 39 8 9 12 17 9 17 -12 0 -43 -36
-40 -46 2 -5 -8 -10 -22 -10 -21 -2 -24 1 -14 12 9 11 8 15 -5 20 -9 4 -20 4
-23 0 -4 -3 1 -6 11 -6 10 0 14 -5 11 -11 -4 -6 -14 -8 -24 -5 -9 3 -6 -2 7
-10 21 -16 32 -42 12 -29 -5 3 -16 3 -22 -2 -7 -4 -21 -9 -30 -10 -25 -4 -107
-51 -159 -92 -49 -38 -125 -132 -154 -191 -10 -19 -22 -38 -27 -41 -5 -3 -9
-8 -7 -10 1 -2 -8 -35 -21 -74 -13 -38 -23 -70 -22 -70 1 0 -3 -18 -8 -40 -7
-31 -6 -43 7 -57 9 -10 20 -18 25 -18 6 0 35 20 67 45 31 25 62 45 68 45 6 0
16 7 24 16 7 8 21 13 30 11 10 -3 17 -1 16 4 -3 16 100 47 114 35 9 -8 10 -8
4 2 -11 20 123 13 195 -10 69 -23 186 -92 182 -108 -1 -6 1 -9 6 -6 4 3 20 -6
35 -18 23 -20 25 -25 12 -36 -8 -7 -25 -13 -39 -14 -13 0 -22 -5 -19 -9 7 -12
-29 -36 -44 -30 -8 3 -13 2 -11 -3 2 -5 -1 -10 -5 -11 -5 -1 -17 -13 -28 -28
-12 -14 -26 -22 -32 -18 -7 3 -9 2 -4 -2 10 -11 -33 -56 -46 -48 -6 3 -8 2 -4
-3 3 -5 -15 -36 -40 -69 -25 -33 -60 -90 -78 -127 -18 -37 -35 -65 -38 -62 -3
3 -5 -1 -4 -8 2 -21 -15 -88 -22 -88 -3 0 -6 -12 -7 -27 -2 -46 -8 -83 -14
-83 -3 0 -5 -17 -5 -37 0 -34 -3 -38 -35 -44 -19 -4 -69 -10 -110 -13 -89 -7
-100 -17 -100 -91 0 -39 5 -56 20 -70 10 -9 18 -22 17 -28 -1 -6 3 -11 10 -12
13 0 42 -25 29 -25 -5 0 -4 -6 2 -13 6 -7 12 -28 14 -45 1 -18 7 -32 13 -32 5
0 3 -5 -5 -10 -13 -8 -13 -11 -1 -19 7 -5 10 -14 7 -20 -4 -6 -1 -11 6 -11 9
0 9 -3 -2 -10 -8 -5 -11 -10 -5 -10 5 0 4 -5 -3 -12 -9 -9 -6 -16 16 -30 15
-10 25 -18 22 -19 -23 -6 -50 -4 -50 3 0 6 8 7 18 4 14 -5 14 -4 -2 9 -11 8
-21 22 -22 31 -4 24 -18 35 -37 28 -15 -5 -15 -8 -2 -27 11 -15 11 -25 3 -41
-10 -19 -10 -20 6 -7 9 8 14 21 11 29 -4 12 -3 13 10 2 11 -9 12 -16 5 -25 -8
-9 -6 -14 5 -18 8 -4 12 -13 9 -22 -7 -17 11 -21 22 -3 5 7 3 8 -6 3 -8 -5
-11 -4 -7 3 8 12 32 10 44 -3 4 -4 3 -5 -4 -1 -7 3 -14 -2 -18 -14 -4 -11 -11
-18 -16 -15 -5 3 -6 -2 -2 -11 4 -10 2 -15 -4 -11 -5 3 -10 0 -10 -8 0 -22 15
-18 22 5 3 11 16 25 27 31 15 8 19 8 14 0 -4 -6 -2 -11 4 -11 7 0 10 -6 7 -14
-3 -8 1 -20 9 -27 8 -7 13 -18 10 -25 -3 -8 5 -21 17 -29 22 -16 22 -16 -5
-11 -39 7 -35 -10 14 -55 42 -38 41 -42 -4 -42 -10 0 -18 -4 -18 -10 0 -5 -8
-3 -18 6 -10 10 -25 17 -33 17 -8 0 -3 -6 11 -13 14 -7 26 -22 26 -35 3 -45 4
-48 13 -33 5 8 11 9 15 3 3 -6 2 -13 -3 -17 -14 -8 7 -52 27 -60 13 -5 13 -3
-1 13 -20 22 -22 36 -4 26 8 -5 8 -2 -2 9 -7 9 -9 17 -3 17 16 0 25 -30 29
-100 1 -36 5 -82 7 -103 2 -20 0 -40 -5 -43 -5 -3 -9 -11 -9 -17 0 -7 4 -6 10
3 8 12 10 12 16 -3 3 -9 3 -24 0 -33 -4 -9 -2 -13 5 -8 7 4 10 1 7 -7 -3 -8
-11 -13 -17 -11 -6 1 -11 -3 -11 -9 0 -6 9 -8 22 -3 21 6 22 5 8 -11 -8 -11
-10 -16 -4 -12 7 4 14 0 18 -8 6 -17 -10 -30 -17 -15 -3 6 -4 5 -3 -2 2 -7 9
-12 17 -11 8 1 21 -13 30 -31 16 -30 16 -33 0 -43 -13 -10 -12 -11 7 -6 21 5
27 -3 23 -35 -1 -7 2 -11 6 -10 4 2 9 0 11 -4 1 -5 10 -16 20 -26 48 -51 77
-92 53 -78 -5 3 -14 -1 -21 -10 -11 -12 -15 -12 -22 -2 -5 9 -7 6 -5 -9 2 -12
7 -26 13 -30 5 -5 6 -4 2 1 -8 9 19 41 36 42 17 1 76 -58 69 -69 -3 -6 -1 -7
4 -4 6 4 23 -5 37 -18 15 -14 29 -25 31 -25 3 0 28 -15 57 -34 29 -18 63 -36
76 -40 12 -4 19 -12 16 -18 -4 -6 -3 -8 2 -5 6 3 37 -3 69 -14 33 -11 69 -22
80 -24 11 -2 20 -4 20 -5 0 -2 62 -9 121 -13 28 -2 56 -7 61 -10 6 -4 13 -4
17 0 10 10 100 10 114 0 7 -6 12 -6 12 0 0 5 29 9 64 8 35 0 62 3 60 7 -3 4
13 6 35 5 22 -1 37 1 35 5 -3 5 2 9 10 9 24 2 27 3 81 24 62 24 150 70 191
101 17 13 34 20 38 17 3 -4 6 1 6 11 0 9 4 15 9 12 5 -3 12 1 15 10 4 9 13 14
22 10 9 -3 12 -2 9 4 -4 6 5 23 19 38 55 59 78 89 104 135 17 30 32 45 41 42
11 -4 12 -3 1 10 -10 12 -10 15 4 15 9 0 16 5 16 11 0 5 -5 7 -11 3 -7 -4 -6
3 2 17 7 13 14 26 14 29 1 3 7 18 13 33 7 16 12 35 12 43 0 8 5 14 11 14 5 0
7 -5 3 -12 -5 -7 -3 -8 6 -3 10 6 9 11 -5 22 -11 7 -14 13 -9 13 6 0 11 6 12
13 7 50 9 76 10 105 1 19 6 31 12 27 6 -3 10 -1 10 4 0 6 -4 11 -9 11 -11 0
-9 49 2 67 4 6 1 14 -5 16 -10 4 -9 6 1 6 11 1 11 4 1 16 -10 12 -10 15 0 15
9 0 9 4 -1 17 -8 9 -9 14 -3 10 7 -4 17 0 23 7 8 10 9 16 1 21 -5 3 -10 1 -10
-5 0 -6 -5 -8 -11 -4 -8 4 -7 9 2 15 7 4 17 5 21 3 15 -9 8 8 -10 24 -9 10
-13 14 -8 10 19 -15 28 -8 15 9 -8 9 -9 14 -2 10 6 -4 14 -1 17 5 3 9 9 7 20
-6 20 -25 21 -42 1 -26 -8 7 -12 17 -8 23 3 5 1 7 -5 4 -11 -8 -11 -25 1 -44
5 -7 4 -13 -1 -13 -5 0 -9 -7 -9 -15 0 -8 4 -12 9 -9 4 3 8 0 8 -6 0 -7 -7 -9
-16 -6 -10 4 -13 2 -8 -6 4 -6 3 -8 -3 -5 -5 3 -9 -7 -9 -24 0 -31 1 -32 31
-19 19 8 19 9 -2 9 -13 1 -23 6 -23 12 0 5 5 7 12 3 7 -5 8 -3 3 6 -6 10 -4
12 9 7 10 -4 15 -3 11 3 -3 6 -1 10 5 10 6 0 8 5 5 10 -3 6 4 14 17 19 14 6
17 10 8 10 -9 1 -21 -4 -28 -11 -7 -7 -12 -8 -12 -2 0 16 35 45 44 37 4 -4 4
0 0 10 -3 9 -11 14 -16 11 -6 -4 -8 -1 -6 7 3 8 11 13 18 11 10 -2 11 0 2 10
-6 8 -7 19 -2 28 5 8 6 18 3 23 -3 5 5 6 18 3 24 -7 24 -7 -1 8 -22 14 -21 21
3 17 5 -1 2 8 -7 20 -8 12 -12 29 -9 38 4 13 3 14 -6 1 -5 -8 -13 -11 -18 -7
-12 13 20 27 33 16 9 -7 16 -5 26 6 7 9 20 23 28 32 13 14 12 15 -10 8 -23 -7
-24 -7 -10 11 23 29 34 34 42 21 10 -15 5 23 -5 39 -3 6 -3 14 0 18 4 4 13 -4
21 -16 7 -13 11 -15 8 -6 -3 9 0 19 7 22 7 2 4 5 -5 5 -10 1 -18 6 -18 12 0 5
4 8 8 5 5 -3 9 0 9 7 0 7 3 19 5 27 3 8 3 12 1 7 -3 -4 -10 -4 -16 0 -7 4 -15
8 -19 9 -5 1 -11 2 -15 3 -5 1 -1 6 7 11 13 9 11 13 -9 30 -13 11 -21 23 -17
27 3 4 12 1 18 -5 15 -15 28 -16 28 -2 0 6 -6 9 -12 8 -7 -2 -12 3 -10 10 1 8
-2 11 -8 7 -20 -12 -9 5 25 41 19 19 39 33 45 29 6 -4 7 1 3 11 -4 10 -2 15 3
11 11 -6 3 101 -8 119 -9 13 -94 26 -218 33 -25 2 -25 2 -5 18 16 13 17 15 3
10 -12 -4 -18 -1 -18 9 0 8 5 12 10 9 6 -4 9 -1 8 7 -2 7 3 12 10 10 8 -1 11
2 7 8 -5 8 -11 8 -20 0 -9 -8 -15 -8 -20 0 -3 5 0 10 7 10 9 0 10 3 2 8 -9 6
-28 78 -25 97 0 3 -8 30 -20 60 -11 30 -17 60 -13 66 4 7 3 9 -3 6 -13 -8 -36
41 -27 55 4 7 2 8 -4 4 -7 -4 -12 -2 -12 4 0 6 -18 36 -40 66 -23 30 -38 60
-34 66 4 6 3 8 -3 5 -11 -7 -73 56 -73 74 0 6 -5 7 -10 4 -6 -3 -13 1 -16 9
-3 9 -10 16 -15 16 -12 0 -99 67 -94 72 2 2 -5 4 -16 5 -11 1 -27 7 -34 13
-12 10 -9 16 15 37 17 13 35 21 41 17 8 -4 9 -3 5 4 -7 12 89 80 106 75 4 -2
8 1 8 6 0 7 45 24 57 22 2 0 20 6 42 14 28 10 42 10 50 2 8 -8 11 -8 11 0 0
17 92 11 108 -7 8 -8 11 -9 7 -2 -8 15 -9 15 53 -3 28 -9 56 -23 61 -33 6 -10
11 -12 11 -4 0 17 40 -8 40 -25 0 -7 5 -13 11 -13 5 0 7 6 3 13 -5 9 -3 9 7
-1 12 -11 12 -14 -1 -22 -8 -5 -10 -10 -4 -10 5 0 14 4 20 9 11 10 96 -53 86
-64 -4 -4 3 -3 14 3 12 6 24 8 28 5 3 -3 6 1 7 10 4 64 3 94 -3 90 -6 -3 -11
15 -7 30 0 1 -7 18 -15 38 -8 20 -12 39 -9 43 4 3 1 6 -5 6 -7 0 -12 6 -12 13
0 19 -48 113 -65 127 -8 7 -15 16 -15 21 0 10 -40 57 -80 96 -37 36 -120 88
-162 103 -20 8 -35 17 -32 21 2 4 -4 7 -13 7 -10 0 -27 3 -37 7 -15 7 -17 5
-11 -6 7 -11 6 -12 -6 -3 -8 6 -28 10 -46 9 -18 -1 -30 1 -28 6 3 4 14 8 25 8
66 2 62 0 41 22 -17 18 -57 17 -46 -1 3 -5 -4 -11 -15 -15 -11 -3 -20 -10 -20
-14 0 -11 -44 -8 -52 3 -6 7 -11 6 -17 -3 -8 -12 -12 -13 -25 -1 -9 7 -19 10
-23 6 -3 -3 0 -6 7 -6 24 0 1 -14 -28 -16 -15 -2 -40 -6 -56 -10 l-29 -7 35
34 c34 33 63 58 103 89 17 13 18 13 11 0 -5 -9 -2 -9 7 2 7 9 22 16 33 14 10
-2 13 -1 6 1 -18 6 -4 23 19 23 10 0 19 3 19 8 0 4 35 20 78 35 114 42 127 49
127 77 0 19 -12 29 -60 53 -88 44 -84 43 -190 63 -68 13 -159 10 -257 -11 -28
-5 -159 -64 -168 -75 -15 -18 -78 -59 -83 -55 -4 3 -5 2 -2 -1 2 -4 -12 -23
-31 -43 -19 -20 -51 -59 -72 -88 -20 -29 -39 -52 -42 -53 -8 0 -45 64 -42 73
1 5 -2 5 -8 2 -7 -4 -14 2 -17 14 -3 12 -10 21 -15 21 -5 0 -6 5 -2 12 4 6 3
8 -3 5 -13 -8 -46 27 -36 38 5 4 3 6 -3 2 -5 -3 -26 9 -45 26 -19 18 -47 38
-62 46 -15 8 -27 18 -27 23 0 4 -7 8 -15 8 -9 0 -30 8 -48 17 -18 9 -34 18
-37 18 -3 0 -27 6 -55 13 -72 17 -150 20 -225 9z m213 -86 c15 -6 27 -8 27 -5
0 3 31 -11 70 -32 39 -20 67 -41 63 -47 -4 -6 -1 -7 6 -2 18 11 138 -115 195
-203 41 -64 48 -71 75 -69 16 1 29 4 28 7 -3 12 15 50 24 50 5 0 8 4 7 9 -5
14 92 132 102 126 6 -3 7 1 4 9 -3 9 -2 16 2 16 5 0 28 18 52 39 113 101 297
142 454 101 87 -23 86 -22 59 -31 -12 -5 -28 -6 -33 -2 -7 3 -8 1 -4 -6 4 -6
0 -14 -11 -18 -45 -16 -102 -44 -108 -53 -4 -6 -10 -8 -15 -5 -4 3 -11 -2 -14
-11 -3 -8 -10 -13 -15 -10 -5 3 -12 -1 -15 -10 -3 -8 -10 -12 -16 -9 -5 3 -10
-1 -10 -9 0 -9 -7 -16 -17 -16 -9 0 -14 -2 -11 -5 2 -3 -16 -26 -42 -53 -49
-50 -90 -120 -90 -152 0 -29 43 -48 66 -30 13 12 126 41 132 35 3 -3 11 0 18
6 16 13 37 2 28 -13 -4 -7 -2 -8 5 -4 6 4 9 12 6 17 -4 5 5 9 19 9 13 0 32 3
42 7 11 4 15 3 11 -4 -4 -6 0 -13 8 -16 9 -4 12 -1 9 7 -6 15 25 18 44 3 8 -6
12 -6 12 2 0 7 8 8 23 2 25 -10 31 -11 53 -11 14 0 15 -2 3 -17 -13 -15 -12
-15 7 -3 17 10 26 10 55 -5 55 -28 100 -65 93 -77 -4 -7 -2 -8 5 -4 11 7 65
-47 59 -59 -2 -4 5 -11 15 -16 9 -6 15 -14 12 -20 -4 -5 -1 -9 4 -9 11 0 63
-98 74 -139 6 -25 -8 -28 -21 -5 -5 9 -13 15 -18 15 -21 -2 -44 11 -38 21 5 7
1 9 -9 5 -22 -8 -71 31 -58 47 8 9 5 12 -9 11 -11 -1 -23 -5 -27 -10 -5 -4 -3
-6 2 -2 6 3 16 -3 23 -14 12 -18 3 -27 -12 -12 -9 9 -36 13 -121 16 -39 2 -77
7 -84 12 -10 6 -12 4 -6 -5 6 -10 3 -12 -13 -8 -12 4 -22 3 -22 -2 0 -4 -15
-10 -32 -14 -55 -11 -191 -84 -246 -132 -30 -26 -57 -42 -63 -38 -8 5 -9 3 -4
-6 13 -21 -14 -28 -55 -14 -21 8 -53 16 -71 19 -18 3 -37 9 -42 12 -17 10
-426 9 -420 -1 3 -5 0 -6 -8 -4 -8 3 -33 -1 -56 -7 -24 -7 -43 -11 -43 -9 0 3
-13 -2 -29 -10 -26 -14 -31 -14 -51 4 -12 10 -19 24 -15 29 3 6 0 9 -8 5 -16
-6 -41 21 -33 35 4 5 1 13 -5 17 -8 4 -9 3 -5 -4 13 -22 -12 -12 -72 28 -33
22 -65 40 -71 40 -7 0 -9 5 -5 12 4 7 3 8 -4 4 -7 -4 -18 -4 -24 1 -7 4 -18 8
-25 9 -20 3 -49 23 -34 24 8 0 11 3 8 6 -4 4 -13 1 -22 -6 -10 -8 -19 -9 -27
-2 -14 11 -174 10 -223 -2 -51 -12 -100 -30 -107 -41 -5 -6 -15 -5 -30 4 -21
13 -22 13 -10 -1 10 -13 8 -18 -12 -32 -32 -21 -35 -20 -29 4 3 11 9 20 14 20
5 0 8 3 8 8 -4 22 2 42 11 37 5 -3 7 0 5 7 -11 28 115 195 137 182 6 -4 8 -3
5 3 -12 19 103 89 129 79 10 -4 12 -2 8 6 -5 8 -2 9 9 5 9 -3 19 -1 23 4 3 6
17 9 30 6 13 -2 24 -1 24 3 0 3 16 6 35 6 21 -1 35 -6 35 -13 0 -7 4 -13 10
-13 5 0 6 8 3 18 -6 15 -5 16 12 2 10 -8 16 -10 12 -3 -5 8 0 11 13 10 11 -1
20 -4 20 -8 0 -3 11 -4 25 -1 14 2 25 0 25 -6 0 -6 8 -9 18 -7 9 1 51 -8 92
-21 86 -27 106 -21 95 30 -3 17 -7 39 -8 48 -1 9 -5 16 -8 15 -4 -1 -18 12
-31 29 -33 44 -92 107 -114 122 -10 7 -34 22 -51 33 -18 12 -33 25 -33 31 0 5
-3 7 -7 5 -12 -7 -73 29 -65 38 4 5 0 6 -8 3 -8 -3 -33 3 -55 12 l-40 17 50
15 c37 11 54 12 64 4 11 -8 13 -8 8 1 -5 8 2 13 20 15 54 6 168 0 196 -11z
m-130 -231 c13 0 90 -80 84 -87 -4 -3 -7 -2 -7 3 0 5 -12 11 -26 12 -14 1 -54
6 -88 12 -34 5 -72 8 -84 5 -29 -5 -28 6 3 35 19 18 28 21 37 12 8 -8 16 -4
31 15 18 23 22 24 32 9 7 -9 15 -16 18 -16z m1317 -19 c0 -5 -7 -11 -14 -14
-10 -4 -13 -1 -9 9 6 15 23 19 23 5z m-1520 -31 c0 -5 -4 -10 -10 -10 -5 0
-10 5 -10 10 0 6 5 10 10 10 6 0 10 -4 10 -10z m663 -634 c-5 -8 -3 -8 8 0 17
14 249 15 249 2 0 -5 5 -6 11 -2 31 19 299 -76 299 -107 0 -7 3 -10 6 -6 10 9
115 -74 107 -86 -3 -5 -2 -7 4 -4 10 7 46 -29 96 -94 36 -47 34 -57 -4 -25
-43 36 -66 33 -128 -19 -13 -11 -22 -15 -18 -10 3 6 -3 12 -14 12 -10 1 -19
-3 -19 -8 0 -6 5 -7 10 -4 6 3 10 1 10 -4 0 -21 -29 -11 -77 27 -26 21 -55 36
-63 34 -11 -4 -13 -2 -5 9 6 8 3 7 -6 -3 -9 -9 -19 -14 -23 -11 -3 4 -6 1 -6
-5 0 -6 -21 -25 -46 -42 -43 -30 -46 -31 -64 -15 -11 10 -17 22 -13 28 3 6 1
7 -6 3 -14 -9 -64 21 -56 34 5 8 -5 8 -45 -2 -16 -4 -22 -8 -70 -47 -27 -23
-38 -27 -52 -20 -10 6 -15 15 -12 21 4 7 2 8 -5 4 -7 -5 -26 3 -46 18 -18 14
-41 26 -50 26 -9 0 -42 -18 -72 -40 l-56 -40 -46 36 c-25 19 -54 38 -63 41
-10 3 -18 9 -18 15 0 5 10 4 23 -2 20 -10 20 -10 5 3 -10 8 -14 18 -10 23 4 4
0 3 -9 -4 -9 -6 -19 -9 -23 -5 -4 4 -4 1 -1 -8 4 -10 -13 -28 -54 -56 -56 -40
-60 -41 -75 -24 -9 10 -13 21 -9 24 9 10 25 9 19 -1 -2 -4 -1 -14 3 -21 7 -10
9 -9 14 2 9 25 -17 41 -42 25 -17 -11 -23 -9 -44 10 -26 24 -83 28 -91 6 -3
-7 -15 -18 -26 -24 -16 -9 -12 2 18 42 45 58 82 94 95 90 5 -1 6 1 3 6 -6 11
30 42 49 42 8 0 15 -4 15 -10 0 -5 5 -10 12 -10 6 0 4 8 -6 19 -17 19 -17 20
6 32 13 7 26 12 31 11 4 -1 7 2 7 7 0 14 84 58 103 55 10 -1 15 1 12 6 -5 9
90 37 156 46 24 3 45 7 46 8 1 0 15 2 32 2 20 1 28 -2 24 -10z m510 -420 c-3
-6 -3 -8 2 -4 4 4 26 -3 49 -16 45 -26 55 -25 102 11 29 22 44 22 44 0 0 -5
-6 -7 -14 -4 -8 3 -17 0 -20 -8 -4 -11 0 -12 17 -6 13 5 22 17 22 29 0 32 12
36 47 14 47 -29 80 -59 71 -64 -4 -3 -1 -3 7 -1 31 9 35 8 34 -9 -1 -10 3 -18
8 -18 6 0 8 -7 4 -15 -3 -8 -1 -15 4 -15 6 0 10 -5 10 -11 0 -5 -5 -7 -12 -3
-6 4 -8 3 -5 -3 3 -5 -7 -19 -23 -31 -28 -21 -29 -21 -27 -2 1 12 8 20 19 20
25 0 23 15 -2 18 -11 1 -29 3 -40 4 -11 1 -22 9 -25 16 -4 10 0 12 10 8 9 -3
13 -2 10 3 -3 5 0 11 7 14 7 2 4 2 -7 0 -11 -3 -35 -5 -53 -5 l-33 0 31 -29
c16 -16 29 -29 27 -30 -1 0 -12 -2 -25 -3 -16 -2 -21 2 -18 11 3 7 1 13 -4 13
-19 0 -10 -28 15 -44 31 -20 45 -21 19 0 -18 14 -18 15 4 4 12 -6 22 -7 22 -3
0 4 5 1 10 -7 9 -13 10 -13 10 0 0 13 2 13 9 1 13 -20 58 -22 73 -3 11 13 11
14 -1 8 -9 -6 -12 -5 -9 4 8 26 24 20 24 -8 0 -29 -2 -31 -55 -34 -17 -1 -29
-4 -28 -7 3 -14 -16 -53 -22 -45 -13 19 -79 63 -85 57 -3 -4 -6 -1 -6 6 0 7
-5 9 -12 5 -7 -4 -8 -3 -4 4 4 7 3 12 -2 12 -6 0 -13 -7 -16 -16 -5 -14 -9
-14 -23 -3 -15 12 -16 12 -10 -3 3 -9 -1 -22 -9 -28 -8 -7 -14 -9 -14 -4 0 5
-9 -2 -20 -16 -11 -14 -20 -20 -20 -15 0 6 5 16 11 22 7 7 6 12 -5 16 -11 4
-13 1 -9 -10 4 -11 2 -14 -5 -9 -8 5 -10 1 -5 -11 5 -14 2 -13 -17 5 -13 12
-28 22 -33 22 -6 0 -3 8 6 18 24 26 21 36 -3 12 -19 -19 -47 -19 -35 0 2 4 -9
7 -25 6 -17 0 -30 -4 -30 -8 0 -5 -9 -8 -20 -8 -11 0 -20 -7 -20 -15 0 -8 -5
-15 -11 -15 -5 0 -7 5 -4 10 4 6 3 10 -2 9 -18 -5 -61 24 -56 37 3 8 3 14 0
14 -3 0 -7 -7 -11 -15 -3 -10 5 -20 24 -30 30 -15 39 -38 20 -50 -16 -10 -50
17 -39 31 8 9 5 11 -12 7 -15 -4 -26 0 -35 12 -7 10 -24 19 -36 19 -13 1 -29
6 -37 10 -10 6 -12 5 -7 -3 8 -13 -10 -41 -27 -41 -6 0 -2 7 9 16 18 14 18 15
-3 4 -13 -6 -23 -16 -23 -23 0 -7 -9 -18 -20 -25 -17 -10 -24 -10 -40 1 -11 8
-17 17 -12 22 4 4 0 6 -8 3 -8 -3 -22 3 -31 13 -24 28 -65 34 -78 12 -6 -10
-11 -14 -11 -10 0 4 -12 -3 -27 -17 -20 -19 -30 -22 -40 -14 -7 6 -13 15 -13
21 0 7 4 7 12 -1 15 -15 28 -15 28 -1 0 5 -4 8 -9 4 -6 -3 -14 3 -20 12 -6 11
-11 13 -11 5 0 -7 -4 -11 -9 -7 -5 3 -12 1 -16 -5 -4 -6 -11 -7 -17 -4 -7 5
-8 2 -3 -7 8 -12 6 -12 -8 0 -19 15 -23 36 -5 25 7 -4 8 -3 4 5 -6 9 -11 9
-23 -1 -14 -11 -15 -10 -8 12 7 23 6 24 -7 6 -12 -16 -18 -17 -34 -7 -18 12
-18 12 1 6 15 -5 17 -3 8 6 -13 13 -34 4 -28 -14 3 -7 -12 -23 -32 -37 -21
-14 -41 -29 -44 -33 -7 -10 -59 21 -59 35 0 5 -6 6 -12 2 -9 -5 -8 -2 1 10 11
13 16 14 22 4 4 -6 5 -16 2 -22 -3 -5 -1 -6 6 -2 6 4 9 12 6 17 -4 5 -3 15 2
22 11 17 12 36 3 42 -4 2 -7 -5 -6 -18 1 -17 -4 -22 -21 -21 -13 1 -20 -3 -17
-7 3 -5 -4 -9 -16 -9 -11 0 -23 7 -26 15 -5 12 -10 12 -32 -2 -15 -9 -37 -26
-49 -37 -13 -11 -23 -15 -23 -10 0 5 -7 0 -15 -10 -11 -14 -15 -16 -15 -5 0
12 -2 12 -11 -1 -8 -11 -9 -9 -3 10 6 23 6 24 -11 10 -11 -8 -16 -10 -12 -4 6
10 -17 28 -27 21 -1 -1 -11 4 -20 12 -11 10 -15 23 -11 40 3 14 7 35 9 46 8
41 26 76 36 70 6 -4 25 4 43 18 18 13 42 27 55 31 12 4 20 12 17 17 -7 10 19
7 47 -5 10 -5 14 -14 11 -24 -5 -11 -2 -14 10 -9 10 4 20 0 26 -11 6 -9 11
-14 11 -10 0 4 10 4 23 -1 21 -8 57 9 95 46 28 27 50 24 106 -15 30 -22 52
-43 48 -47 -10 -11 39 17 61 34 9 8 17 11 17 8 0 -3 11 5 25 18 13 14 29 25
36 25 6 0 33 -16 59 -35 26 -19 53 -35 59 -35 6 0 11 -5 11 -11 0 -6 7 -3 16
5 19 20 100 76 109 76 5 0 95 -58 125 -81 3 -2 32 17 65 42 56 44 61 45 82 32
13 -9 20 -20 16 -27z m266 -103 c5 -10 17 -18 27 -18 9 0 18 -7 19 -15 2 -11
-5 -16 -21 -16 -17 0 -23 4 -19 13 2 8 -2 16 -9 19 -17 6 -30 34 -16 34 5 0
13 -8 19 -17z m96 -63 c3 -5 1 -10 -4 -10 -6 0 -11 5 -11 10 0 6 2 10 4 10 3
0 8 -4 11 -10z m-1009 -88 c-10 -10 -39 25 -31 38 5 8 12 5 22 -10 8 -12 12
-24 9 -28z m982 24 c-7 -8 -15 -12 -17 -11 -5 6 10 25 20 25 5 0 4 -6 -3 -14z
m-1324 -55 c3 -5 -6 -8 -20 -8 -19 0 -22 2 -13 8 18 11 26 11 33 0z m236 -2
c0 -6 -7 -9 -14 -6 -11 4 -13 1 -10 -11 5 -14 4 -15 -5 -2 -8 11 -11 12 -11 2
0 -7 -5 -10 -11 -7 -6 5 -4 12 8 21 22 16 43 18 43 3z m227 -3 c-3 -7 3 -20
14 -29 10 -9 19 -12 19 -7 0 6 -7 13 -15 16 -8 4 -12 10 -9 15 3 5 19 -2 36
-16 16 -14 34 -25 39 -25 6 0 7 -5 4 -10 -12 -20 44 -2 79 25 19 15 40 24 46
20 6 -4 9 -1 8 6 -5 18 16 21 37 4 19 -16 19 -16 -4 -9 -16 4 -21 3 -17 -5 4
-6 18 -11 31 -11 30 0 41 -17 16 -25 -10 -3 -23 -5 -27 -4 -5 1 -21 -3 -35 -8
-31 -14 -196 -9 -262 7 l-48 12 37 29 c39 31 59 37 51 15z m483 4 c0 -5 8 -10
17 -10 29 0 5 -12 -31 -15 -20 -2 -39 1 -42 7 -4 6 -3 8 3 5 6 -4 13 0 17 8 6
17 36 21 36 5z m230 0 c0 -5 -4 -10 -10 -10 -5 0 -10 5 -10 10 0 6 5 10 10 10
6 0 10 -4 10 -10z m-910 -20 c12 -8 9 -10 -13 -10 -16 0 -26 4 -22 10 8 12 16
12 35 0z m336 -243 c5 -4 0 -5 -10 -1 -14 5 -17 4 -11 -5 6 -10 3 -11 -14 -2
-11 7 -21 13 -21 14 0 7 49 1 56 -6z m1045 -60 c-7 -7 -7 -15 1 -25 9 -10 8
-16 -3 -22 -10 -7 -9 -9 8 -8 14 2 19 7 15 18 -4 12 -2 12 8 3 10 -9 8 -17 -9
-42 -13 -18 -17 -32 -11 -36 6 -4 -2 -19 -20 -37 -23 -22 -28 -34 -20 -43 7
-9 6 -16 -4 -24 -11 -9 -15 -8 -21 6 -11 28 -16 69 -8 58 9 -12 33 -18 33 -9
0 4 -8 13 -17 20 -17 13 -17 14 2 8 16 -6 18 -5 8 7 -16 16 -17 29 -2 29 5 0
8 -4 4 -9 -3 -5 -1 -12 4 -15 5 -3 12 1 15 9 3 9 -1 18 -9 22 -13 5 -13 7 2
20 14 11 14 13 3 10 -11 -3 -16 2 -17 17 0 11 1 15 4 9 7 -18 20 -16 20 2 0 8
-4 15 -9 15 -13 0 -9 28 5 33 18 7 30 -4 18 -16z m-1145 -25 c5 -26 -10 -36
-33 -23 -11 6 -13 11 -5 11 7 0 10 5 7 10 -4 6 -3 10 2 9 20 -4 27 2 13 12
-12 8 -12 10 -1 7 8 -2 16 -14 17 -26z m164 -12 c-11 -20 -10 -22 4 -17 8 3
18 1 22 -5 4 -7 3 -8 -4 -4 -19 11 -14 -5 6 -21 16 -13 16 -14 -3 -6 -29 12
-58 10 -63 -5 -2 -8 2 -10 15 -5 13 4 11 0 -7 -15 -24 -22 -25 -22 -6 -37 22
-17 40 -20 31 -5 -3 6 -1 10 5 10 11 0 6 -48 -6 -59 -4 -3 -5 1 -1 10 8 24
-37 43 -54 23 -11 -13 -10 -15 2 -14 26 4 36 0 36 -13 0 -15 -34 -16 -56 -3
-10 7 -12 5 -7 -5 4 -8 1 -6 -7 4 -12 15 -15 15 -20 3 -4 -9 -2 -18 4 -21 5
-4 6 -12 2 -18 -4 -8 -1 -7 9 1 9 7 18 9 20 5 3 -4 4 -3 2 3 -1 7 5 10 17 7
11 -3 18 -6 17 -7 -2 -1 -12 -9 -24 -19 -19 -16 -22 -16 -51 6 -28 21 -30 24
-15 34 15 10 14 11 -7 8 -13 -3 -31 0 -40 6 -12 8 -10 8 9 3 24 -6 24 -6 8 12
-12 14 -14 23 -7 34 9 13 10 12 5 -2 -3 -10 -1 -20 4 -23 6 -4 10 -1 10 6 0 7
6 4 14 -7 8 -10 17 -16 20 -13 3 3 -4 16 -16 28 l-21 23 24 -7 c20 -7 22 -6
12 7 -17 20 -52 16 -69 -7 -8 -10 -14 -14 -14 -8 0 6 7 16 15 23 15 13 12 30
-6 30 -6 0 -8 -4 -4 -9 3 -6 -5 -15 -17 -21 -21 -10 -22 -10 -5 4 10 8 19 18
20 23 1 4 7 9 12 9 6 1 15 2 20 3 6 1 3 6 -5 11 -10 7 -11 10 -2 11 6 1 17 2
24 3 6 0 13 7 16 15 3 8 0 11 -5 8 -5 -3 -10 1 -10 9 0 11 6 9 23 -7 12 -12
27 -18 33 -14 6 3 11 1 11 -5 0 -6 5 -8 10 -5 6 4 8 10 5 15 -5 8 24 25 38 21
4 0 10 6 14 15 3 10 9 12 15 6 6 -6 5 -18 -2 -32z m-195 -30 c3 -6 -1 -7 -9
-4 -18 7 -21 14 -7 14 6 0 13 -4 16 -10z m-972 -34 c4 -10 1 -13 -9 -9 -7 3
-14 9 -14 14 0 14 17 10 23 -5z m1188 -11 c5 4 6 -1 2 -10 -5 -13 -7 -14 -14
-3 -5 7 -8 18 -8 23 0 6 3 4 6 -3 2 -6 9 -10 14 -7z m-39 -27 c-7 -7 -12 -8
-12 -2 0 6 3 14 7 17 3 4 9 5 12 2 2 -3 -1 -11 -7 -17z m-217 -7 c3 -5 2 -12
-3 -15 -5 -3 -9 1 -9 9 0 17 3 19 12 6z m305 -15 c0 -2 -8 -10 -17 -17 -16
-13 -17 -12 -4 4 13 16 21 21 21 13z m-260 -10 c0 -3 -4 -8 -10 -11 -5 -3 -10
-1 -10 4 0 6 5 11 10 11 6 0 10 -2 10 -4z m1092 -104 c-4 -11 -1 -13 8 -7 10
6 11 4 4 -6 -5 -8 -9 -22 -10 -31 -1 -10 -3 -21 -4 -25 -2 -5 -3 -15 -4 -23
-1 -8 -6 -13 -11 -11 -6 2 -16 6 -22 8 -7 3 -10 10 -6 16 4 6 0 8 -8 5 -11 -4
-15 1 -15 17 0 13 4 21 8 19 5 -3 6 -10 3 -15 -4 -5 -1 -9 4 -9 6 0 11 6 11
13 0 8 4 7 10 -3 5 -8 10 -13 11 -10 0 3 2 13 4 23 3 14 -1 17 -18 12 -12 -4
-17 -3 -11 2 6 4 13 15 16 24 3 9 13 16 21 16 9 0 13 -6 9 -15z m-1088 -33
c-7 -12 13 -39 29 -39 6 0 2 6 -9 14 -10 8 -16 17 -12 21 4 4 22 -4 40 -18 44
-33 65 -39 72 -21 3 8 11 14 17 14 6 0 20 9 29 21 21 23 72 36 68 17 -2 -7 4
-12 12 -10 8 2 12 0 8 -3 -4 -4 -3 -17 3 -27 9 -16 8 -19 -3 -15 -7 2 -12 9
-11 15 1 5 -4 16 -12 22 -11 9 -15 9 -15 1 0 -6 5 -11 11 -11 5 0 8 -4 4 -10
-3 -5 -13 -7 -23 -4 -15 5 -15 4 1 -6 9 -6 14 -16 11 -22 -5 -7 -2 -8 7 -3 7
5 25 9 39 9 14 0 28 7 33 15 5 11 6 9 3 -6 -5 -25 4 -29 22 -11 9 9 12 9 12 0
0 -7 -5 -12 -12 -12 -16 0 23 -29 40 -30 6 0 12 5 12 11 0 5 -4 8 -9 4 -17
-10 -24 16 -9 31 13 13 18 12 42 -7 21 -17 29 -19 41 -9 8 7 15 9 15 4 0 -5 5
-2 11 6 9 13 10 13 6 0 -2 -8 -9 -14 -15 -13 -5 1 -18 -7 -28 -18 -17 -19 -17
-20 0 -37 17 -16 18 -16 12 5 -4 12 -3 24 2 27 11 7 58 -32 49 -40 -4 -4 -15
4 -26 17 -24 28 -28 13 -5 -19 8 -12 10 -22 5 -22 -6 0 -11 6 -12 13 0 9 -2 9
-6 0 -3 -8 -13 -3 -28 15 -14 15 -25 21 -25 14 0 -7 9 -22 20 -34 11 -12 18
-24 15 -26 -6 -6 -29 18 -44 46 -6 12 -16 22 -22 22 -6 0 -2 -16 10 -36 12
-19 17 -32 11 -29 -5 3 -10 1 -10 -5 0 -6 -5 -8 -11 -4 -7 4 -10 1 -7 -7 6
-14 9 -15 43 -4 14 4 12 2 -5 -8 -16 -10 -29 -12 -37 -6 -7 7 -13 6 -17 0 -4
-5 3 -12 14 -16 20 -6 20 -7 -2 -25 -26 -21 -51 -10 -41 18 6 14 4 15 -8 5
-11 -9 -20 -6 -41 11 -26 20 -26 22 -8 23 13 1 18 -2 14 -9 -5 -7 -2 -8 6 -3
8 5 11 4 6 -3 -8 -13 20 -10 31 4 4 5 4 6 -1 2 -10 -9 -36 9 -36 24 0 6 7 5
15 -2 8 -7 15 -11 16 -9 7 33 6 38 -4 32 -7 -3 -9 -3 -5 2 4 4 3 17 -3 28 -9
15 -8 18 3 12 7 -5 10 -5 6 0 -4 4 -3 14 3 22 6 7 8 13 4 13 -4 0 -14 -8 -21
-17 -13 -17 -13 -17 -14 0 0 9 5 17 11 17 5 0 7 5 3 11 -4 7 -9 7 -13 1 -3 -5
-14 -8 -23 -6 -10 1 -20 -2 -23 -6 -3 -5 4 -7 15 -5 14 3 20 0 17 -8 -2 -7
-13 -11 -23 -9 -15 2 -16 1 -5 -7 8 -5 20 -7 27 -4 6 2 15 -1 19 -7 3 -6 3 -9
-2 -8 -4 2 -19 -5 -33 -15 -24 -17 -17 -22 20 -17 12 1 12 -1 3 -11 -11 -11
-23 -14 -85 -23 -10 -1 -21 -6 -25 -11 -5 -4 -2 -5 6 0 10 6 12 4 7 -4 -5 -7
-14 -10 -22 -7 -9 3 -11 0 -7 -11 4 -11 3 -14 -5 -9 -7 4 -15 1 -18 -8 -3 -9
-16 -16 -28 -16 -20 0 -20 1 4 20 14 11 21 20 15 20 -5 0 1 7 15 14 l25 14
-27 -1 c-19 -2 -25 -7 -22 -20 2 -13 -1 -17 -12 -13 -9 3 -12 1 -9 -4 10 -15
-25 -12 -41 4 -19 20 -18 37 4 30 14 -5 15 -4 2 5 -11 8 -18 7 -27 -6 -7 -9
-13 -12 -13 -6 0 17 -38 22 -51 7 -7 -8 -18 -13 -25 -10 -6 2 -14 -5 -17 -16
-3 -11 -10 -17 -16 -14 -5 4 -15 -3 -22 -16 -11 -20 -13 -20 -24 -5 -6 9 -14
15 -16 13 -2 -3 -4 12 -4 32 0 29 4 37 18 36 18 -2 23 11 9 20 -18 11 -49 -23
-47 -49 2 -14 -1 -23 -5 -20 -5 3 -7 12 -3 20 4 11 0 14 -13 9 -17 -5 -17 -4
-4 8 9 7 15 19 14 26 -1 6 -2 17 -3 23 0 5 -7 7 -13 3 -8 -5 -8 -2 1 10 13 15
11 20 -13 44 -26 26 -27 27 -42 8 -7 -11 -14 -15 -14 -9 0 5 8 17 18 26 16 15
19 14 41 -14 13 -16 28 -29 34 -29 5 0 3 8 -6 18 -10 10 -17 27 -16 38 1 19 2
17 15 -25 4 -11 9 -10 25 5 19 17 20 17 13 -2 -6 -16 -4 -16 19 5 15 14 27 21
27 16 0 -5 16 7 36 26 19 18 38 34 42 34 4 0 6 4 4 8 -1 4 7 3 18 -3 11 -6 18
-15 14 -21z m280 -25 c3 -8 2 -12 -4 -9 -6 3 -10 10 -10 16 0 14 7 11 14 -7z
m-463 -27 c-10 -9 -11 -8 -5 6 3 10 9 15 12 12 3 -3 0 -11 -7 -18z m-661 1 c0
-9 4 -8 10 2 6 9 10 10 10 3 0 -19 -17 -24 -30 -8 -9 10 -9 15 -1 15 6 0 11
-6 11 -12z m1284 0 c-3 -4 -9 -8 -15 -8 -5 0 -9 4 -9 8 0 5 7 9 15 9 8 0 12
-4 9 -9z m581 -16 c-3 -3 -11 0 -18 7 -9 10 -8 11 6 5 10 -3 15 -9 12 -12z
m-1707 -17 c-3 -3 -9 2 -12 12 -6 14 -5 15 5 6 7 -7 10 -15 7 -18z m388 13 c4
-7 3 -8 -4 -4 -7 4 -12 0 -12 -10 0 -10 -3 -15 -6 -11 -7 6 2 37 10 37 3 0 8
-5 12 -12z m791 -2 c-5 -13 19 -39 43 -44 14 -3 39 -31 40 -45 0 -4 -11 4 -25
19 -14 15 -25 23 -25 19 0 -5 -11 2 -24 14 -21 20 -26 51 -9 51 3 0 3 -6 0
-14z m38 -7 c-4 -5 -12 -9 -18 -8 -9 0 -8 2 1 6 6 2 9 10 6 15 -4 7 -2 8 5 4
6 -4 9 -12 6 -17z m362 7 c0 -8 -6 -12 -15 -9 -11 5 -11 7 0 14 7 5 13 9 14 9
0 0 1 -6 1 -14z m-1462 -17 c-4 -5 -14 -8 -23 -8 -15 1 -15 2 1 6 9 2 14 9 11
15 -4 7 -2 8 5 4 6 -4 9 -12 6 -17z m40 11 c-3 -5 1 -10 9 -10 19 0 21 -16 4
-26 -6 -4 -8 -3 -5 3 4 6 0 13 -8 17 -8 3 -19 -3 -24 -12 -6 -9 -11 -13 -11
-8 0 5 7 18 17 28 17 19 28 24 18 8z m56 -3 c-11 -14 -5 -27 11 -27 5 0 7 4 3
9 -11 19 15 21 42 4 25 -17 27 -17 20 -1 -3 10 -3 19 1 22 4 3 8 -4 9 -14 2
-27 -15 -35 -36 -16 -19 17 -36 22 -26 7 9 -16 -15 -24 -31 -11 -11 10 -12 16
-3 26 6 8 14 14 16 14 3 0 0 -6 -6 -13z m112 -2 c-3 -9 -8 -14 -10 -11 -3 3
-2 9 2 15 9 16 15 13 8 -4z m927 0 c5 3 12 0 16 -6 4 -8 3 -9 -4 -5 -7 4 -12
3 -12 -2 0 -6 7 -13 16 -16 9 -4 14 -9 11 -12 -3 -4 4 -14 16 -24 20 -16 22
-17 34 -1 9 13 14 14 24 4 7 -7 9 -13 4 -13 -5 0 -1 -6 9 -13 16 -12 16 -13
-2 -13 -14 0 -19 6 -17 18 5 24 -12 23 -20 -1 -5 -18 -7 -18 -30 5 -14 13 -25
27 -25 29 0 11 -35 42 -42 38 -4 -2 -5 4 -1 13 4 11 8 13 11 6 2 -7 8 -10 12
-7z m163 -5 c-4 -16 -2 -19 13 -14 16 6 17 5 7 -7 -16 -17 -39 2 -30 25 9 23
16 20 10 -4z m81 3 c4 -10 4 -15 1 -11 -3 3 -17 -5 -30 -18 -13 -13 -30 -24
-37 -24 -7 1 -3 6 10 13 12 7 19 17 15 22 -5 4 -2 5 6 0 11 -6 13 -4 8 9 -4
10 -3 15 3 11 6 -3 10 -1 10 4 0 16 7 13 14 -6z m46 13 c0 -3 -4 -8 -10 -11
-5 -3 -10 -1 -10 4 0 6 5 11 10 11 6 0 10 -2 10 -4z m-1484 -15 c-3 -5 1 -12
10 -15 9 -4 14 -9 11 -12 -3 -3 -15 1 -27 9 -15 11 -18 16 -8 20 19 8 20 8 14
-2z m393 -5 c12 -14 5 -46 -10 -46 -6 0 -5 8 1 19 8 16 6 22 -7 30 -10 6 -13
11 -7 11 6 0 17 -6 23 -14z m895 6 c2 -4 -4 -8 -14 -8 -10 0 -16 4 -14 8 3 4
9 8 14 8 5 0 11 -4 14 -8z m-963 -25 c-10 -9 -11 -8 -5 6 3 10 9 15 12 12 3
-3 0 -11 -7 -18z m919 13 c0 -5 -4 -10 -10 -10 -5 0 -10 5 -10 10 0 6 5 10 10
10 6 0 10 -4 10 -10z m80 0 c0 -5 -4 -10 -10 -10 -5 0 -10 5 -10 10 0 6 5 10
10 10 6 0 10 -4 10 -10z m-1360 -10 c0 -5 -4 -10 -10 -10 -5 0 -10 5 -10 10 0
6 5 10 10 10 6 0 10 -4 10 -10z m410 0 c0 -5 -7 -7 -15 -4 -8 4 -15 8 -15 10
0 2 7 4 15 4 8 0 15 -4 15 -10z m1109 -24 c0 -19 -1 -19 -10 4 -8 20 -12 22
-19 10 -6 -9 -6 -16 0 -18 6 -2 10 -8 10 -13 0 -5 -9 -4 -20 3 -11 7 -20 16
-20 21 0 4 4 6 9 3 5 -3 11 1 15 9 8 21 36 7 35 -19z m-1379 -11 c15 9 22 -14
10 -32 -9 -16 -10 -15 -5 5 5 16 3 22 -7 20 -7 -2 -13 6 -14 17 -1 15 0 16 3
2 3 -9 8 -15 13 -12z m153 20 c-14 -10 -19 -22 -16 -35 3 -11 0 -20 -6 -20 -5
0 -8 7 -4 16 5 14 3 15 -18 5 -17 -9 -14 -3 11 18 19 17 39 31 45 31 5 0 0 -7
-12 -15z m47 0 c0 -8 -2 -15 -4 -15 -2 0 -6 7 -10 15 -3 8 -1 15 4 15 6 0 10
-7 10 -15z m1006 -6 c38 -23 39 -25 22 -35 -6 -4 -8 -3 -5 3 4 6 -12 20 -36
32 -23 12 -36 21 -28 21 7 0 29 -9 47 -21z m-1371 0 c11 -16 1 -19 -13 -3 -7
8 -8 14 -3 14 5 0 13 -5 16 -11z m55 1 c0 -5 -4 -10 -10 -10 -5 0 -10 5 -10
10 0 6 5 10 10 10 6 0 10 -4 10 -10z m55 1 c-3 -5 -1 -12 5 -16 5 -3 8 -16 6
-28 -2 -15 -10 -21 -24 -20 -16 2 -20 -2 -16 -15 5 -14 4 -14 -4 -2 -14 19 -5
32 17 25 12 -3 17 1 18 16 2 18 0 19 -15 8 -14 -11 -15 -11 -5 0 6 7 9 20 6
27 -3 8 0 14 7 14 6 0 9 -4 5 -9z m95 -1 c0 -5 -4 -10 -10 -10 -5 0 -10 5 -10
10 0 6 5 10 10 10 6 0 10 -4 10 -10z m60 0 c0 -6 -7 -13 -15 -16 -8 -4 -13 -9
-11 -13 3 -4 0 -13 -5 -21 -7 -11 -8 -9 -6 9 2 14 9 27 15 29 7 2 10 8 6 13
-3 5 0 9 5 9 6 0 11 -5 11 -10z m140 0 c-8 -5 -19 -10 -25 -10 -5 0 -3 5 5 10
8 5 20 10 25 10 6 0 3 -5 -5 -10z m915 -8 c-3 -3 -11 0 -18 7 -9 10 -8 11 6 5
10 -3 15 -9 12 -12z m90 8 c3 -6 -1 -7 -9 -4 -18 7 -21 14 -7 14 6 0 13 -4 16
-10z m185 0 c0 -5 -4 -10 -10 -10 -5 0 -10 5 -10 10 0 6 5 10 10 10 6 0 10 -4
10 -10z m-1523 -25 c-9 -7 -14 -15 -10 -19 4 -4 -1 -4 -11 0 -17 7 -17 8 3 19
12 6 18 15 14 20 -4 4 -2 5 6 0 12 -7 11 -10 -2 -20z m263 5 c-8 -5 -17 -7
-19 -4 -3 3 1 9 9 14 8 5 17 7 19 4 3 -3 -1 -9 -9 -14z m646 2 c-3 -3 0 -12 6
-21 9 -11 5 -10 -9 2 -13 12 -27 16 -35 11 -11 -6 -11 -5 0 8 8 9 20 14 28 11
8 -3 12 -8 10 -11z m-1104 0 c-9 -3 -10 -8 -2 -17 14 -16 -17 -30 -35 -15 -6
5 -14 7 -18 4 -4 -4 -3 21 2 33 1 1 16 1 34 1 17 -1 26 -3 19 -6z m108 -2 c0
-5 -2 -10 -4 -10 -3 0 -8 5 -11 10 -3 6 -1 10 4 10 6 0 11 -4 11 -10z m37 -10
c-1 -11 -5 -20 -9 -20 -10 0 -10 4 -2 24 8 22 13 20 11 -4z m410 -11 l2 -24
-8 25 -8 25 -11 -25 c-11 -26 -16 -13 -6 15 9 23 29 13 31 -16z m789 10 c3
-31 6 -33 14 -14 7 16 9 17 9 3 1 -24 -11 -28 -34 -12 -10 8 -13 14 -7 14 7 0
12 5 12 11 0 5 -4 7 -10 4 -5 -3 -10 -1 -10 5 0 17 25 6 26 -11z m264 0 c0 -6
-4 -7 -10 -4 -5 3 -10 11 -10 16 0 6 5 7 10 4 6 -3 10 -11 10 -16z m-1273 -11
c-3 -8 -6 -5 -6 6 -1 11 2 17 5 13 3 -3 4 -12 1 -19z m170 16 c-3 -3 -12 -4
-19 -1 -8 3 -5 6 6 6 11 1 17 -2 13 -5z m90 0 c-3 -3 -12 -4 -19 -1 -8 3 -5 6
6 6 11 1 17 -2 13 -5z m971 -2 c14 10 15 10 5 -2 -18 -20 -43 -22 -35 -2 4 11
7 12 10 4 3 -10 7 -10 20 0z m-1102 -11 c-4 -5 -1 -11 6 -13 7 -3 5 -7 -6 -11
-10 -4 -15 -3 -11 3 3 6 0 10 -7 10 -9 0 -9 3 2 10 19 12 23 12 16 1z m960
-30 c-4 -6 -13 -11 -19 -11 -7 0 -6 4 3 11 11 8 12 12 3 16 -7 2 -13 10 -13
16 0 6 7 4 16 -5 9 -9 13 -21 10 -27z m201 17 c-3 -8 -6 -5 -6 6 -1 11 2 17 5
13 3 -3 4 -12 1 -19z m73 12 c12 -7 10 -9 -8 -7 -12 0 -22 5 -22 9 0 11 12 10
30 -2z m-1200 -31 c-12 -22 -16 -23 -26 -7 -4 7 -3 8 4 4 11 -7 17 6 13 27 -1
5 3 6 9 2 7 -4 7 -12 0 -26z m1103 18 c7 3 8 2 4 -2 -10 -11 -37 -15 -37 -6 0
14 14 23 18 12 2 -6 9 -8 15 -4z m67 -22 c0 -5 -5 -3 -10 5 -5 8 -10 20 -10
25 0 6 5 3 10 -5 5 -8 10 -19 10 -25z m-1503 18 c-4 -3 1 -12 11 -20 15 -13
15 -13 -6 -3 -19 9 -23 30 -5 30 4 0 3 -3 0 -7z m236 -22 c-2 -15 1 -20 9 -15
7 4 8 3 4 -5 -11 -17 -28 -2 -21 20 5 14 3 17 -9 13 -9 -3 -16 -2 -16 4 0 6 8
9 18 7 11 -1 16 -10 15 -24z m907 19 c0 -5 -2 -10 -4 -10 -3 0 -8 5 -11 10 -3
6 -1 10 4 10 6 0 11 -4 11 -10z m79 -2 c-3 -27 1 -39 13 -32 7 5 8 3 3 -6 -6
-10 -11 -9 -21 4 -7 10 -10 24 -7 32 6 17 14 18 12 2z m-1125 -13 c-10 -8 -23
-15 -28 -15 -6 0 -1 7 10 15 10 8 23 15 28 15 6 0 1 -7 -10 -15z m180 0 c3 -8
1 -15 -4 -15 -6 0 -10 7 -10 15 0 8 2 15 4 15 2 0 6 -7 10 -15z m1120 -1 c3
-8 2 -12 -4 -9 -6 3 -10 10 -10 16 0 14 7 11 14 -7z m-219 -4 c3 -5 2 -10 -4
-10 -5 0 -13 5 -16 10 -3 6 -2 10 4 10 5 0 13 -4 16 -10z m305 0 c0 -5 -4 -10
-10 -10 -5 0 -10 5 -10 10 0 6 5 10 10 10 6 0 10 -4 10 -10z m-1176 -18 c2 -4
-5 -9 -17 -9 -17 -2 -19 0 -7 7 18 12 18 12 24 2z m893 1 c-4 -3 1 -12 11 -20
15 -13 15 -13 -6 -3 -19 9 -23 30 -5 30 4 0 3 -3 0 -7z m-777 -84 c3 -3 15
-11 28 -18 12 -7 20 -17 16 -23 -4 -6 -3 -8 4 -4 6 3 22 2 37 -4 15 -6 24 -6
20 0 -3 5 5 14 17 21 13 7 25 15 28 18 3 3 15 14 27 25 21 18 23 18 53 -4 16
-12 28 -26 25 -31 -4 -5 0 -6 8 -3 8 3 20 -2 27 -10 7 -9 17 -13 23 -9 7 4 8
-1 4 -13 -7 -18 -6 -18 7 -1 7 9 16 17 19 17 3 0 18 11 33 25 15 14 34 23 41
20 8 -2 11 -1 8 4 -12 20 19 23 34 5 9 -11 20 -20 24 -21 5 -1 20 -10 33 -22
31 -27 44 -26 80 1 16 13 25 16 20 8 -4 -8 2 -4 14 10 12 14 19 18 15 10 -4
-8 3 -4 15 10 12 14 20 18 17 10 -2 -8 -1 -24 3 -34 6 -19 7 -19 12 2 4 14 2
20 -4 15 -7 -4 -8 -1 -4 6 8 13 29 0 67 -41 9 -10 19 -15 23 -11 3 3 6 1 6 -5
0 -9 6 -9 25 0 14 6 25 16 25 21 0 6 3 7 7 4 3 -4 16 2 28 13 26 25 74 38 55
15 -6 -8 -18 -11 -26 -8 -8 3 -14 -1 -14 -8 0 -7 3 -9 7 -6 3 4 13 1 21 -6 9
-6 13 -7 9 -1 -4 7 5 11 23 12 17 0 30 -4 30 -9 0 -6 4 -8 9 -5 5 3 15 -1 22
-10 18 -22 63 -11 94 22 22 24 24 24 22 5 -1 -15 -6 -20 -17 -16 -11 5 -12 3
-3 -6 13 -13 37 -3 28 12 -4 5 -1 9 4 9 17 0 13 -37 -4 -44 -8 -3 -22 -3 -30
0 -8 4 -15 1 -15 -4 0 -6 13 -9 28 -7 22 3 28 -1 28 -15 0 -10 -3 -17 -7 -14
-4 2 -7 -12 -7 -32 0 -20 -4 -39 -9 -43 -5 -3 -8 -13 -8 -21 1 -8 -2 -19 -6
-25 -4 -5 -8 -14 -9 -20 0 -5 -12 -9 -26 -8 -24 2 -34 -20 -14 -32 6 -3 7 1 4
10 -5 11 -2 14 10 9 18 -7 21 -20 6 -29 -6 -4 -24 5 -41 19 -17 14 -36 26 -42
26 -8 0 -7 4 1 12 7 7 12 17 12 22 0 6 -4 6 -8 -1 -11 -18 -50 -4 -58 19 -4
15 -8 17 -14 8 -6 -9 -11 -8 -20 6 -6 11 -10 12 -7 4 2 -8 -2 -21 -9 -28 -8
-7 -14 -10 -14 -6 0 3 -9 -4 -21 -17 -11 -13 -17 -17 -14 -9 4 8 -4 2 -19 -15
-14 -16 -25 -24 -26 -17 0 6 -5 12 -11 12 -15 0 -39 26 -39 42 0 10 -3 9 -10
-2 -8 -13 -10 -12 -10 3 0 10 -4 15 -10 12 -5 -3 -10 2 -10 12 0 12 -3 14 -8
6 -4 -6 -19 -14 -34 -18 -15 -4 -29 -13 -32 -21 -3 -8 -12 -14 -20 -14 -8 0
-21 -9 -29 -20 -12 -18 -15 -18 -35 -4 -13 9 -19 21 -16 32 5 14 4 15 -5 2
-10 -13 -12 -13 -21 0 -7 11 -5 17 8 22 16 6 16 7 0 7 -9 1 -20 -4 -24 -10 -5
-8 -13 -4 -26 12 -11 13 -17 19 -14 13 3 -7 -4 -14 -17 -18 -12 -3 -41 -21
-63 -40 l-40 -34 -44 34 c-70 54 -85 58 -116 29 -15 -14 -33 -25 -41 -25 -8 0
-12 -4 -9 -9 3 -5 -4 -11 -15 -14 -25 -7 -72 20 -62 36 4 6 0 8 -10 4 -10 -3
-17 -2 -17 3 0 4 -14 11 -30 15 -26 6 -39 0 -84 -33 -51 -39 -53 -39 -67 -21
-7 10 -18 19 -24 19 -5 0 -22 10 -37 23 -26 22 -26 25 -10 41 16 16 16 17 0
10 -10 -3 -18 -10 -18 -15 0 -5 -8 -13 -17 -16 -10 -4 -32 -17 -49 -30 -17
-13 -36 -23 -43 -23 -7 0 -9 -5 -5 -12 4 -7 3 -8 -5 -4 -6 4 -9 16 -6 27 4 12
2 19 -6 19 -7 0 -9 -3 -6 -7 11 -11 -14 -32 -31 -26 -14 4 -14 3 -3 -5 8 -6
20 -8 28 -5 19 7 16 -5 -8 -30 -19 -20 -20 -21 -13 -2 4 11 3 17 -1 12 -10 -9
-51 88 -60 140 -4 29 -3 34 8 25 10 -8 13 -7 13 7 0 13 -6 17 -21 14 -16 -4
-17 -3 -5 6 12 8 12 11 1 11 -11 0 -11 3 0 17 10 11 10 14 2 9 -7 -4 -13 -2
-13 3 0 6 7 11 15 11 8 0 15 4 15 10 0 5 -8 7 -17 4 -15 -5 -16 -4 -3 5 12 9
13 11 1 11 -8 0 -12 2 -9 5 9 10 38 -7 38 -22 0 -9 6 -13 15 -10 8 4 17 2 20
-3 3 -5 19 -16 36 -24 27 -14 30 -14 25 0 -4 9 3 19 19 26 14 6 25 15 25 20 0
5 5 6 11 2 8 -4 2 -12 -15 -21 -31 -16 -32 -19 -7 -19 11 0 18 3 15 7 -6 11
24 19 43 12 12 -5 15 -2 10 10 -10 27 16 25 60 -5 48 -32 70 -33 95 -3 10 11
17 16 18 11 0 -4 8 2 18 15 15 17 21 19 27 9 5 -8 4 -11 -3 -6 -6 3 -13 2 -16
-3 -4 -5 2 -8 11 -6 11 1 17 9 15 21 -3 16 -2 16 15 3 10 -7 20 -17 23 -20z
m-269 12 c-7 -5 -11 -14 -7 -20 5 -7 1 -9 -8 -5 -19 7 -21 20 -3 27 20 9 33 7
18 -2z m30 -312 c16 -11 27 -25 24 -30 -4 -5 1 -6 9 -3 9 4 18 0 22 -9 3 -8
13 -14 22 -12 9 1 23 -2 30 -8 9 -7 11 -5 5 8 -5 14 -3 17 10 12 9 -3 16 -3
14 2 -4 15 61 61 77 55 9 -3 16 -10 16 -14 0 -4 9 -10 21 -13 14 -4 18 -10 13
-19 -4 -7 -4 -10 1 -6 4 4 13 4 19 -1 15 -13 66 -22 66 -12 0 4 20 21 45 39
44 31 45 31 75 14 16 -9 30 -23 30 -31 0 -8 3 -11 6 -8 4 3 16 0 28 -8 28 -20
27 -20 85 25 49 39 53 40 79 27 15 -7 26 -19 24 -26 -1 -7 2 -10 7 -7 5 4 15
0 23 -7 29 -29 56 -26 109 14 53 39 65 40 101 6 30 -29 105 -67 93 -47 -6 10
64 57 77 52 5 -1 7 4 5 11 -1 6 5 12 13 12 8 0 14 -6 12 -13 -1 -8 1 -11 6 -8
5 3 28 -8 52 -24 24 -16 48 -26 53 -23 4 3 3 -4 -4 -15 -7 -12 -17 -18 -21
-16 -5 3 -8 2 -7 -3 4 -21 -4 -34 -49 -82 -42 -45 -74 -68 -57 -42 3 5 1 12
-4 16 -6 3 -8 -5 -5 -18 3 -21 -7 -32 -68 -72 -39 -27 -77 -48 -85 -48 -7 0
-13 -5 -13 -10 0 -5 -7 -6 -16 -3 -8 3 -13 2 -9 -3 3 -5 -30 -20 -72 -34 -44
-13 -80 -20 -82 -14 -2 5 -7 3 -12 -4 -7 -11 -51 -14 -211 -14 -112 0 -212 4
-223 9 -11 5 -31 11 -43 13 -73 12 -239 98 -235 121 2 6 -3 9 -11 6 -8 -3 -21
5 -30 18 -9 12 -16 19 -16 14 0 -5 -9 -1 -20 9 -11 10 -20 25 -20 33 0 9 -3
12 -6 9 -10 -10 -85 76 -79 91 3 7 1 10 -5 7 -5 -3 -14 3 -20 14 -8 16 -8 19
3 16 7 -3 22 4 34 15 12 11 25 20 28 20 3 0 15 9 27 20 27 24 24 24 59 -1z"/>
<path d="M1527 3579 c7 -7 15 -10 18 -7 3 3 -2 9 -12 12 -14 6 -15 5 -6 -5z"/>
<path d="M1615 3560 c-3 -5 -1 -10 4 -10 6 0 11 5 11 10 0 6 -2 10 -4 10 -3 0
-8 -4 -11 -10z"/>
<path d="M2495 3561 c-3 -5 -2 -12 3 -15 5 -3 9 1 9 9 0 17 -3 19 -12 6z"/>
<path d="M2434 3515 c0 -13 3 -22 7 -19 8 4 6 30 -2 38 -3 3 -5 -5 -5 -19z"/>
<path d="M1627 3518 c2 -5 10 -8 18 -8 8 0 16 3 18 8 3 4 -5 7 -18 7 -13 0
-21 -3 -18 -7z"/>
<path d="M2480 3520 c18 -12 30 -13 30 -2 0 4 -10 9 -22 9 -18 2 -20 0 -8 -7z"/>
<path d="M1710 3500 c0 -5 5 -10 11 -10 5 0 7 5 4 10 -3 6 -8 10 -11 10 -2 0
-4 -4 -4 -10z"/>
<path d="M2476 3497 c3 -10 9 -15 12 -12 3 3 0 11 -7 18 -10 9 -11 8 -5 -6z"/>
<path d="M2395 3490 c-3 -6 1 -7 9 -4 18 7 21 14 7 14 -6 0 -13 -4 -16 -10z"/>
<path d="M1680 3480 c0 -5 5 -10 11 -10 5 0 7 -5 3 -12 -4 -7 -3 -8 5 -4 9 6
9 11 0 22 -14 17 -19 18 -19 4z"/>
<path d="M2445 3480 c-3 -6 1 -7 9 -4 18 7 21 14 7 14 -6 0 -13 -4 -16 -10z"/>
<path d="M1638 3463 c6 -3 12 -11 12 -18 0 -8 3 -16 8 -18 4 -3 7 5 7 17 0 15
-6 22 -20 23 -11 1 -14 -1 -7 -4z"/>
<path d="M1772 3458 c2 -7 -2 -12 -9 -11 -6 1 -10 -5 -9 -14 2 -9 8 -18 15
-19 7 -2 7 -1 1 3 -7 3 -6 11 5 23 11 12 13 20 5 25 -6 4 -9 1 -8 -7z"/>
<path d="M2280 3446 c0 -2 8 -10 18 -17 15 -13 16 -12 3 4 -13 16 -21 21 -21
13z"/>
<path d="M1793 3427 c0 -8 6 -14 14 -14 9 0 10 4 2 14 -6 7 -12 13 -14 13 -1
0 -2 -6 -2 -13z"/>
<path d="M2395 3430 c-3 -6 1 -7 9 -4 18 7 21 14 7 14 -6 0 -13 -4 -16 -10z"/>
<path d="M1850 3419 c0 -5 5 -7 10 -4 6 3 10 8 10 11 0 2 -4 4 -10 4 -5 0 -10
-5 -10 -11z"/>
<path d="M1715 3408 c25 -15 68 -23 45 -9 -8 5 -17 8 -21 5 -4 -2 -10 0 -14 6
-3 5 -12 10 -18 10 -7 0 -3 -6 8 -12z"/>
<path d="M2366 3398 c3 -5 10 -6 15 -3 13 9 11 12 -6 12 -8 0 -12 -4 -9 -9z"/>
<path d="M1780 3384 c0 -1 8 -8 17 -15 9 -8 14 -9 10 -2 -4 6 -1 13 5 16 7 3
3 4 -9 4 -13 -1 -23 -2 -23 -3z"/>
<path d="M2279 3373 c-13 -16 -12 -17 4 -4 9 7 17 15 17 17 0 8 -8 3 -21 -13z"/>
<path d="M1730 3359 c0 -5 5 -7 10 -4 6 3 10 8 10 11 0 2 -4 4 -10 4 -5 0 -10
-5 -10 -11z"/>
<path d="M1819 3353 c-13 -16 -12 -17 4 -4 14 11 20 11 35 0 15 -13 16 -12 3
4 -7 9 -17 17 -21 17 -4 0 -14 -8 -21 -17z"/>
<path d="M2315 3360 c3 -5 8 -10 11 -10 2 0 4 5 4 10 0 6 -5 10 -11 10 -5 0
-7 -4 -4 -10z"/>
<path d="M1906 3342 c-3 -5 1 -9 9 -9 8 0 12 4 9 9 -3 4 -7 8 -9 8 -2 0 -6 -4
-9 -8z"/>
<path d="M2225 3340 c-3 -6 1 -7 9 -4 18 7 21 14 7 14 -6 0 -13 -4 -16 -10z"/>
<path d="M2285 3340 c-3 -6 1 -7 9 -4 18 7 21 14 7 14 -6 0 -13 -4 -16 -10z"/>
<path d="M1341 3314 c0 -11 3 -14 6 -6 3 7 2 16 -1 19 -3 4 -6 -2 -5 -13z"/>
<path d="M1880 3320 c8 -5 20 -10 25 -10 6 0 3 5 -5 10 -8 5 -19 10 -25 10 -5
0 -3 -5 5 -10z"/>
<path d="M1980 3326 c0 -2 8 -10 18 -17 15 -13 16 -12 3 4 -13 16 -21 21 -21
13z"/>
<path d="M2754 3305 c0 -13 3 -22 7 -19 8 4 6 30 -2 38 -3 3 -5 -5 -5 -19z"/>
<path d="M1430 3310 c0 -5 5 -10 10 -10 6 0 10 5 10 10 0 6 -4 10 -10 10 -5 0
-10 -4 -10 -10z"/>
<path d="M2668 3308 c-12 -9 -13 -19 -7 -33 l9 -20 -3 20 c-1 11 4 25 13 32 8
7 12 13 9 13 -3 0 -12 -6 -21 -12z"/>
<path d="M1295 3300 c3 -5 8 -10 11 -10 2 0 4 5 4 10 0 6 -5 10 -11 10 -5 0
-7 -4 -4 -10z"/>
<path d="M2695 3301 c-3 -5 0 -13 6 -17 8 -5 9 -3 4 6 -6 10 -4 12 9 7 10 -4
15 -3 11 3 -8 13 -22 13 -30 1z"/>
<path d="M2810 3299 c0 -5 5 -7 10 -4 6 3 10 8 10 11 0 2 -4 4 -10 4 -5 0 -10
-5 -10 -11z"/>
<path d="M1486 3291 c-17 -6 -17 -8 -4 -14 10 -3 19 0 22 9 3 8 4 14 3 13 -1
0 -11 -4 -21 -8z"/>
<path d="M1410 3280 c0 -5 5 -10 10 -10 6 0 10 5 10 10 0 6 -4 10 -10 10 -5 0
-10 -4 -10 -10z"/>
<path d="M1953 3259 c1 -24 -2 -33 -11 -31 -8 1 -11 -2 -7 -8 12 -19 35 10 30
37 -7 39 -14 39 -12 2z"/>
<path d="M2610 3280 c0 -5 5 -10 10 -10 6 0 10 5 10 10 0 6 -4 10 -10 10 -5 0
-10 -4 -10 -10z"/>
<path d="M1570 3260 c0 -5 5 -10 11 -10 5 0 7 5 4 10 -3 6 -8 10 -11 10 -2 0
-4 -4 -4 -10z"/>
<path d="M1896 3261 c-3 -4 6 -7 19 -7 14 0 22 2 19 5 -8 8 -34 10 -38 2z"/>
<path d="M2096 3262 c-3 -5 1 -9 9 -9 8 0 12 4 9 9 -3 4 -7 8 -9 8 -2 0 -6 -4
-9 -8z"/>
<path d="M1415 3249 c-4 -6 -5 -12 -2 -15 2 -3 7 2 10 11 7 17 1 20 -8 4z"/>
<path d="M2572 3252 c2 -8 7 -13 12 -12 5 1 13 -4 18 -12 8 -11 9 -11 6 0 -2
8 -7 13 -12 12 -5 -1 -13 4 -18 12 -8 11 -9 11 -6 0z"/>
<path d="M2635 3249 c4 -5 1 -18 -6 -27 -11 -13 -8 -12 9 2 26 23 26 22 6 30
-9 3 -12 2 -9 -5z"/>
<path d="M1515 3240 c3 -5 8 -10 11 -10 2 0 4 5 4 10 0 6 -5 10 -11 10 -5 0
-7 -4 -4 -10z"/>
<path d="M2514 3238 c-4 -7 -4 -10 1 -6 4 4 15 2 24 -5 14 -11 14 -10 2 6 -16
20 -18 21 -27 5z"/>
<path d="M1584 3218 c10 -6 22 -6 26 -2 5 5 -3 10 -18 11 -22 1 -24 0 -8 -9z"/>
<path d="M1782 3208 c-30 -30 3 -77 40 -57 22 12 24 55 2 63 -22 8 -28 8 -42
-6z"/>
<path d="M2509 3203 c-13 -16 -12 -17 4 -4 16 13 21 21 13 21 -2 0 -10 -8 -17
-17z"/>
<path d="M1495 3200 c3 -5 8 -10 11 -10 2 0 4 5 4 10 0 6 -5 10 -11 10 -5 0
-7 -4 -4 -10z"/>
<path d="M1546 3195 c4 -8 11 -15 16 -15 6 0 5 6 -2 15 -7 8 -14 15 -16 15 -2
0 -1 -7 2 -15z"/>
<path d="M2450 3205 c0 -5 5 -17 10 -25 5 -8 10 -10 10 -5 0 6 -5 17 -10 25
-5 8 -10 11 -10 5z"/>
<path d="M2550 3200 c0 -5 5 -10 10 -10 6 0 10 5 10 10 0 6 -4 10 -10 10 -5 0
-10 -4 -10 -10z"/>
<path d="M2080 3170 c-6 -11 -8 -20 -6 -20 3 0 10 9 16 20 6 11 8 20 6 20 -3
0 -10 -9 -16 -20z"/>
<path d="M1513 3165 c0 -8 4 -12 9 -9 5 3 6 10 3 15 -9 13 -12 11 -12 -6z"/>
<path d="M2015 3171 c3 -5 0 -11 -7 -13 -7 -3 -5 -7 6 -11 9 -4 15 -3 11 2 -3
5 0 11 7 13 7 3 5 7 -6 11 -9 4 -15 3 -11 -2z"/>
<path d="M2497 3173 c-2 -5 -3 -15 -3 -23 1 -16 36 -27 36 -11 0 6 -7 8 -15 5
-10 -4 -13 0 -10 15 4 21 0 28 -8 14z"/>
<path d="M2530 3170 c-9 -6 -10 -10 -3 -10 6 0 15 5 18 10 8 12 4 12 -15 0z"/>
<path d="M1436 3153 c-6 -14 -5 -15 5 -6 7 7 10 15 7 18 -3 3 -9 -2 -12 -12z"/>
<path d="M1479 3168 c-7 -23 -4 -35 7 -35 9 0 11 4 4 12 -5 7 -7 15 -3 18 3 4
3 7 0 7 -4 0 -7 -1 -8 -2z"/>
<path d="M1570 3160 c0 -5 5 -10 10 -10 6 0 10 5 10 10 0 6 -4 10 -10 10 -5 0
-10 -4 -10 -10z"/>
<path d="M2573 3156 c-3 -6 -2 -8 2 -3 5 4 18 -1 29 -10 15 -14 18 -14 8 -2
-6 9 -10 18 -7 21 3 2 -2 5 -10 5 -9 0 -19 -5 -22 -11z"/>
<path d="M1170 3140 c0 -5 5 -10 11 -10 5 0 7 5 4 10 -3 6 -8 10 -11 10 -2 0
-4 -4 -4 -10z"/>
<path d="M1219 3148 c-5 -18 -6 -38 -1 -34 7 8 12 36 6 36 -2 0 -4 -1 -5 -2z"/>
<path d="M1276 3141 c-3 -5 1 -14 8 -20 10 -9 16 -9 21 -1 4 6 1 9 -7 8 -7 -2
-12 3 -10 10 2 14 -4 16 -12 3z"/>
<path d="M1385 3140 c-3 -6 1 -7 9 -4 18 7 21 14 7 14 -6 0 -13 -4 -16 -10z"/>
<path d="M1521 3141 c-9 -6 -10 -11 -2 -15 6 -4 11 -2 11 4 0 6 5 8 12 4 7 -4
8 -3 4 4 -8 14 -7 14 -25 3z"/>
<path d="M1595 3140 c-7 -12 2 -30 16 -30 5 0 9 5 9 11 0 5 -5 7 -12 3 -8 -5
-9 -2 -5 9 7 19 2 23 -8 7z"/>
<path d="M2636 3141 c-3 -4 3 -16 13 -25 14 -13 18 -14 18 -2 0 8 -5 14 -11
13 -6 -1 -10 4 -8 11 2 14 -4 16 -12 3z"/>
<path d="M2716 3142 c-3 -5 1 -9 9 -9 8 0 12 4 9 9 -3 4 -7 8 -9 8 -2 0 -6 -4
-9 -8z"/>
<path d="M2755 3140 c-3 -5 -1 -10 4 -10 6 0 11 5 11 10 0 6 -2 10 -4 10 -3 0
-8 -4 -11 -10z"/>
<path d="M1556 3125 c-3 -8 -1 -15 4 -15 6 0 10 7 10 15 0 8 -2 15 -4 15 -2 0
-6 -7 -10 -15z"/>
<path d="M2542 3120 c0 -14 2 -19 5 -12 2 6 2 18 0 25 -3 6 -5 1 -5 -13z"/>
<path d="M2574 3129 c1 -7 10 -13 19 -15 9 -1 15 2 11 7 -3 5 -9 7 -14 4 -4
-3 -11 0 -13 5 -3 6 -4 5 -3 -1z"/>
<path d="M1400 3125 c0 -2 6 -8 13 -14 10 -8 14 -7 14 2 0 8 -6 14 -14 14 -7
0 -13 -1 -13 -2z"/>
<path d="M1633 3109 c-2 -23 3 -25 10 -4 4 8 3 16 -1 19 -4 3 -9 -4 -9 -15z"/>
<path d="M2015 3120 c-3 -5 -1 -10 4 -10 6 0 11 5 11 10 0 6 -2 10 -4 10 -3 0
-8 -4 -11 -10z"/>
<path d="M2480 3120 c30 -22 50 -31 50 -22 0 6 -8 12 -17 16 -10 3 -25 9 -33
12 -13 5 -13 4 0 -6z"/>
<path d="M1335 3110 c-3 -6 1 -7 9 -4 18 7 21 14 7 14 -6 0 -13 -4 -16 -10z"/>
<path d="M1926 3104 c-19 -49 21 -81 56 -45 14 16 15 22 4 37 -17 23 -52 28
-60 8z"/>
<path d="M2951 3107 c-8 -10 -7 -14 2 -14 8 0 14 6 14 14 0 7 -1 13 -2 13 -2
0 -8 -6 -14 -13z"/>
<path d="M1151 3093 c9 -10 8 -13 -1 -13 -8 0 -11 -3 -7 -6 3 -3 14 -1 24 5
11 6 13 11 5 11 -7 0 -11 4 -8 8 3 5 -1 9 -9 9 -11 0 -12 -4 -4 -14z"/>
<path d="M1575 3100 c-3 -5 -1 -18 5 -27 9 -15 10 -14 5 7 -5 21 -4 23 7 10
12 -14 38 -25 38 -16 0 11 -50 35 -55 26z"/>
<path d="M1682 3080 c-8 -21 -6 -29 11 -43 24 -19 52 -9 60 22 11 44 -57 64
-71 21z"/>
<path d="M2631 3093 c7 -12 15 -20 18 -17 3 2 -3 12 -13 22 -17 16 -18 16 -5
-5z"/>
<path d="M2718 3103 c7 -3 16 -2 19 1 4 3 -2 6 -13 5 -11 0 -14 -3 -6 -6z"/>
<path d="M2790 3100 c0 -5 5 -10 10 -10 6 0 10 5 10 10 0 6 -4 10 -10 10 -5 0
-10 -4 -10 -10z"/>
<path d="M1120 3089 c0 -5 -6 -7 -12 -3 -8 5 -8 1 2 -12 8 -10 15 -20 16 -22
1 -2 2 9 2 23 0 14 -2 25 -4 25 -2 0 -4 -5 -4 -11z"/>
<path d="M1211 3095 c0 -5 3 -16 8 -23 7 -11 9 -10 14 3 4 9 3 14 -2 10 -5 -3
-12 1 -14 7 -3 7 -6 9 -6 3z"/>
<path d="M1522 3087 c10 -8 14 -18 10 -22 -4 -5 -1 -5 6 -1 17 10 15 14 -10
26 -21 10 -21 10 -6 -3z"/>
<path d="M1646 3083 c-4 -9 -2 -21 4 -27 8 -8 9 -6 4 8 -5 13 -4 17 4 12 8 -5
10 -2 6 8 -8 20 -10 20 -18 -1z"/>
<path d="M2480 3081 c0 -11 4 -22 9 -25 4 -3 6 6 3 19 -5 30 -12 33 -12 6z"/>
<path d="M2694 3080 c0 -13 4 -16 10 -10 7 7 7 13 0 20 -6 6 -10 3 -10 -10z"/>
<path d="M1026 3082 c-3 -5 1 -9 9 -9 8 0 12 4 9 9 -3 4 -7 8 -9 8 -2 0 -6 -4
-9 -8z"/>
<path d="M1434 3075 c3 -23 12 -26 13 -5 1 11 -2 20 -7 20 -4 0 -7 -7 -6 -15z"/>
<path d="M2914 3081 c4 -5 1 -12 -4 -14 -6 -3 -5 -4 2 -3 15 3 23 26 8 26 -6
0 -9 -4 -6 -9z"/>
<path d="M2944 3064 c-18 -14 -18 -15 4 -4 12 6 22 13 22 15 0 8 -5 6 -26 -11z"/>
<path d="M1079 3052 c-13 -15 -12 -16 3 -4 13 10 17 10 21 0 4 -9 6 -9 6 -1 2
20 -16 24 -30 5z"/>
<path d="M1556 3053 c-6 -14 -5 -15 5 -6 7 7 10 15 7 18 -3 3 -9 -2 -12 -12z"/>
<path d="M2435 3061 c3 -6 -3 -14 -12 -20 -10 -6 -13 -11 -7 -11 12 0 34 20
34 32 0 4 -5 8 -11 8 -5 0 -8 -4 -4 -9z"/>
<path d="M2527 3059 c7 -7 15 -10 18 -7 3 3 -2 9 -12 12 -14 6 -15 5 -6 -5z"/>
<path d="M2855 3060 c3 -5 8 -10 11 -10 2 0 4 5 4 10 0 6 -5 10 -11 10 -5 0
-7 -4 -4 -10z"/>
<path d="M2974 3059 c-4 -7 -3 -9 4 -5 5 3 13 0 15 -6 4 -9 6 -10 6 -1 1 17
-16 25 -25 12z"/>
<path d="M3073 3055 c0 -8 4 -12 9 -9 5 3 6 10 3 15 -9 13 -12 11 -12 -6z"/>
<path d="M1519 3033 c-13 -16 -12 -17 4 -4 9 7 17 15 17 17 0 8 -8 3 -21 -13z"/>
<path d="M1616 3034 c-5 -14 -4 -15 9 -4 17 14 19 20 6 20 -5 0 -12 -7 -15
-16z"/>
<path d="M2515 3020 c3 -5 8 -10 11 -10 2 0 4 5 4 10 0 6 -5 10 -11 10 -5 0
-7 -4 -4 -10z"/>
<path d="M3135 3009 c-4 -6 -5 -12 -2 -15 2 -3 7 2 10 11 7 17 1 20 -8 4z"/>
<path d="M1815 2901 c-3 -5 -2 -12 3 -15 5 -3 9 1 9 9 0 17 -3 19 -12 6z"/>
<path d="M1456 3474 c-4 -9 -4 -19 -1 -22 2 -3 7 3 11 12 4 9 4 19 1 22 -2 3
-7 -3 -11 -12z"/>
<path d="M1490 3451 c0 -7 -4 -9 -10 -6 -6 4 -7 -1 -3 -11 6 -15 7 -15 15 1 6
9 7 19 4 22 -3 4 -6 1 -6 -6z"/>
<path d="M1379 3433 c-13 -16 -12 -17 3 -5 9 8 23 10 29 6 8 -4 9 -3 5 4 -10
17 -21 15 -37 -5z"/>
<path d="M1430 3430 c0 -5 5 -10 10 -10 6 0 10 5 10 10 0 6 -4 10 -10 10 -5 0
-10 -4 -10 -10z"/>
<path d="M1507 3427 c-3 -7 3 -13 14 -13 13 0 15 3 7 13 -6 7 -12 13 -13 13
-2 0 -5 -6 -8 -13z"/>
<path d="M1571 2651 c-8 -5 -21 -7 -30 -4 -13 4 -14 3 -2 -5 14 -10 51 0 51
13 0 7 -3 6 -19 -4z"/>
<path d="M2486 2642 c-3 -5 1 -9 9 -9 8 0 12 4 9 9 -3 4 -7 8 -9 8 -2 0 -6 -4
-9 -8z"/>
<path d="M2549 2643 c-1 -5 0 -12 1 -18 1 -5 4 -18 6 -29 6 -34 15 -31 9 3 -5
30 -4 33 10 21 8 -7 15 -8 15 -4 0 12 -40 37 -41 27z"/>
<path d="M1590 2621 c0 -6 4 -12 8 -15 5 -3 9 1 9 9 0 8 -4 15 -9 15 -4 0 -8
-4 -8 -9z"/>
<path d="M2455 2620 c-3 -5 -1 -10 4 -10 6 0 11 5 11 10 0 6 -2 10 -4 10 -3 0
-8 -4 -11 -10z"/>
<path d="M2495 2610 c-3 -5 -3 -15 1 -22 5 -8 2 -9 -10 -5 -11 5 -15 3 -10 -5
5 -8 1 -9 -12 -4 -10 4 -15 4 -11 0 7 -8 -10 -34 -23 -34 -5 0 -6 10 -4 23 4
20 4 20 -5 2 -5 -11 -5 -24 -1 -29 12 -13 83 40 85 64 2 22 -1 25 -10 10z"/>
<path d="M1495 2599 c-4 -6 -4 -13 -1 -16 3 -4 6 -1 6 6 0 7 5 9 10 6 6 -3 10
-1 10 4 0 14 -17 14 -25 0z"/>
<path d="M1570 2603 c17 -8 11 -19 -10 -20 -13 -1 -18 2 -14 9 4 7 2 8 -5 4
-17 -11 -3 -26 22 -22 24 3 31 28 9 32 -7 1 -8 0 -2 -3z"/>
<path d="M1896 2602 c-3 -5 1 -9 9 -9 8 0 12 4 9 9 -3 4 -7 8 -9 8 -2 0 -6 -4
-9 -8z"/>
<path d="M1995 2600 c-3 -5 -1 -10 4 -10 6 0 11 5 11 10 0 6 -2 10 -4 10 -3 0
-8 -4 -11 -10z"/>
<path d="M2099 2593 c-13 -16 -12 -17 4 -4 16 13 21 21 13 21 -2 0 -10 -8 -17
-17z"/>
<path d="M2385 2600 c-3 -6 1 -7 9 -4 18 7 21 14 7 14 -6 0 -13 -4 -16 -10z"/>
<path d="M2520 2600 c0 -5 5 -10 10 -10 6 0 10 5 10 10 0 6 -4 10 -10 10 -5 0
-10 -4 -10 -10z"/>
<path d="M2593 2602 c-9 -5 -6 -12 10 -21 19 -13 21 -12 10 1 -7 8 -10 18 -6
21 9 9 1 8 -14 -1z"/>
<path d="M1616 2592 c-2 -4 4 -8 14 -8 10 0 16 4 14 8 -3 4 -9 8 -14 8 -5 0
-11 -4 -14 -8z"/>
<path d="M2159 2598 c-5 -18 -6 -38 -1 -34 7 8 12 36 6 36 -2 0 -4 -1 -5 -2z"/>
<path d="M1695 2580 c6 -10 -6 -14 -35 -11 -13 2 -13 0 -1 -8 17 -11 55 5 46
20 -4 5 -8 9 -11 9 -3 0 -2 -4 1 -10z"/>
<path d="M1793 2567 c-1 -11 -1 -18 0 -16 2 2 8 11 15 20 9 12 9 16 -1 16 -7
0 -14 -9 -14 -20z"/>
<path d="M1950 2586 c0 -2 7 -7 16 -10 8 -3 12 -2 9 4 -6 10 -25 14 -25 6z"/>
<path d="M2025 2580 c-3 -6 1 -7 9 -4 18 7 21 14 7 14 -6 0 -13 -4 -16 -10z"/>
<path d="M2121 2576 c-6 -7 -24 -12 -40 -11 -16 1 -35 -1 -41 -5 -7 -4 6 -7
29 -6 23 1 49 9 58 19 10 9 15 17 11 17 -3 0 -11 -6 -17 -14z"/>
<path d="M2185 2580 c-3 -6 1 -7 9 -4 18 7 21 14 7 14 -6 0 -13 -4 -16 -10z"/>
<path d="M2359 2588 c-6 -21 -5 -38 1 -38 5 0 8 9 7 20 -1 17 -5 26 -8 18z"/>
<path d="M2490 2553 c-45 -31 -43 -29 -33 -48 8 -14 12 -14 33 5 13 11 27 20
32 20 4 0 8 5 8 11 0 6 -14 1 -31 -11 -16 -12 -33 -19 -36 -16 -4 3 -4 7 -2 9
2 1 18 12 35 24 20 14 35 18 41 12 6 -6 10 -5 10 4 0 20 -17 17 -57 -10z"/>
<path d="M1508 2563 c7 -3 16 -2 19 1 4 3 -2 6 -13 5 -11 0 -14 -3 -6 -6z"/>
<path d="M1590 2562 c0 -4 9 -13 20 -20 12 -7 18 -17 15 -22 -3 -6 -1 -10 4
-10 16 0 13 14 -8 38 -19 22 -31 28 -31 14z"/>
<path d="M1860 2560 c8 -5 20 -10 25 -10 6 0 3 5 -5 10 -8 5 -19 10 -25 10 -5
0 -3 -5 5 -10z"/>
<path d="M1924 2563 c4 -4 16 -8 28 -10 28 -4 18 6 -12 12 -12 2 -20 1 -16 -2z"/>
<path d="M2283 2558 c-11 -19 -13 -39 -2 -32 5 3 7 9 4 14 -3 5 3 13 12 19 10
6 13 11 6 11 -6 0 -15 -6 -20 -12z"/>
<path d="M1550 2549 c-13 -10 -13 -10 1 -6 8 3 21 -3 27 -14 13 -21 32 -25 32
-7 0 6 -3 9 -6 5 -4 -3 -14 3 -23 13 -12 15 -19 17 -31 9z"/>
<path d="M1833 2547 c0 -8 6 -14 14 -14 9 0 10 4 2 14 -6 7 -12 13 -14 13 -1
0 -2 -6 -2 -13z"/>
<path d="M1455 2540 c3 -5 8 -10 11 -10 2 0 4 5 4 10 0 6 -5 10 -11 10 -5 0
-7 -4 -4 -10z"/>
<path d="M1515 2541 c-3 -5 -2 -12 3 -15 5 -3 9 1 9 9 0 17 -3 19 -12 6z"/>
<path d="M1645 2540 c3 -5 11 -10 16 -10 6 0 7 5 4 10 -3 6 -11 10 -16 10 -6
0 -7 -4 -4 -10z"/>
<path d="M1697 2539 c7 -7 15 -10 18 -7 3 3 -2 9 -12 12 -14 6 -15 5 -6 -5z"/>
<path d="M2230 2536 c7 -7 13 -7 20 0 6 6 3 10 -10 10 -13 0 -16 -4 -10 -10z"/>
<path d="M1770 2530 c-9 -6 -10 -10 -3 -10 6 0 15 5 18 10 8 12 4 12 -15 0z"/>
<path d="M2095 2529 c-4 -6 -5 -12 -2 -15 2 -3 7 2 10 11 7 17 1 20 -8 4z"/>
<path d="M2173 2525 c0 -8 4 -12 9 -9 5 3 6 10 3 15 -9 13 -12 11 -12 -6z"/>
<path d="M2337 2521 c-3 -13 -1 -18 9 -14 7 2 10 11 7 19 -7 19 -10 18 -16 -5z"/>
<path d="M2532 2524 c-7 -8 -8 -14 -3 -14 10 0 25 19 20 25 -2 1 -10 -3 -17
-11z"/>
<path d="M1546 2517 c3 -10 9 -15 12 -12 3 3 0 11 -7 18 -10 9 -11 8 -5 -6z"/>
<path d="M1797 2512 c-14 -15 -14 -19 -3 -19 8 0 14 5 13 11 -1 6 4 10 11 8 8
-1 11 2 7 8 -8 13 -9 13 -28 -8z"/>
<path d="M2380 2526 c0 -2 7 -6 15 -10 8 -3 15 -1 15 4 0 6 -7 10 -15 10 -8 0
-15 -2 -15 -4z"/>
<path d="M1479 2493 c-13 -16 -12 -17 4 -4 9 7 17 15 17 17 0 8 -8 3 -21 -13z"/>
<path d="M1510 2490 c-6 -11 -8 -20 -6 -20 3 0 10 9 16 20 6 11 8 20 6 20 -3
0 -10 -9 -16 -20z"/>
<path d="M1570 2506 c0 -10 23 -31 38 -34 8 -1 11 2 8 7 -4 5 -3 11 1 14 5 2
2 2 -6 0 -7 -2 -20 2 -27 8 -8 6 -14 8 -14 5z"/>
<path d="M1748 2503 c7 -3 16 -2 19 1 4 3 -2 6 -13 5 -11 0 -14 -3 -6 -6z"/>
<path d="M2275 2500 c3 -5 8 -10 11 -10 2 0 4 5 4 10 0 6 -5 10 -11 10 -5 0
-7 -4 -4 -10z"/>
<path d="M2500 2501 c0 -5 9 -13 20 -16 25 -8 27 -24 3 -20 -10 1 -12 0 -5 -2
7 -3 9 -10 5 -16 -4 -7 1 -6 10 2 23 18 21 26 -8 45 -14 9 -25 12 -25 7z"/>
<path d="M2550 2503 c1 -13 30 -48 30 -36 0 7 -5 15 -10 18 -6 4 -8 11 -5 16
4 5 1 9 -4 9 -6 0 -11 -3 -11 -7z"/>
<path d="M1836 2487 c3 -10 9 -15 12 -12 3 3 0 11 -7 18 -10 9 -11 8 -5 -6z"/>
<path d="M1548 2478 c12 -6 22 -15 22 -20 0 -4 6 -8 13 -8 6 1 1 10 -12 20
-13 11 -28 20 -35 19 -6 0 -1 -5 12 -11z"/>
<path d="M1430 2380 c0 -5 5 -10 11 -10 5 0 7 5 4 10 -3 6 -8 10 -11 10 -2 0
-4 -4 -4 -10z"/>
<path d="M1395 2360 c-4 -6 -4 -14 -1 -17 3 -4 6 -1 6 5 0 7 5 12 11 12 5 0 7
-4 4 -10 -3 -5 -1 -10 5 -10 14 0 8 22 -7 27 -6 2 -14 -1 -18 -7z"/>
<path d="M2693 2363 c6 -11 -30 -43 -39 -35 -4 4 -4 2 0 -5 3 -6 -2 -16 -11
-22 -10 -6 -13 -11 -6 -11 7 0 18 7 25 16 7 8 21 23 31 32 19 19 22 32 6 32
-5 0 -8 -3 -6 -7z"/>
<path d="M1350 2347 c0 -3 10 -12 23 -20 16 -10 28 -12 38 -6 12 8 12 9 -1 7
-8 -1 -25 3 -37 10 -13 7 -23 11 -23 9z"/>
<path d="M1436 2333 c-4 -9 -3 -20 1 -24 4 -4 9 3 9 17 2 28 -1 31 -10 7z"/>
<path d="M1470 2330 c-8 -5 -12 -12 -9 -15 4 -3 12 1 19 10 14 17 11 19 -10 5z"/>
<path d="M2710 2329 c0 -5 5 -7 10 -4 6 3 10 8 10 11 0 2 -4 4 -10 4 -5 0 -10
-5 -10 -11z"/>
<path d="M2733 2320 c-11 -16 -10 -18 2 -14 8 4 15 12 15 20 0 19 -3 18 -17
-6z"/>
<path d="M1333 2306 c6 -12 12 -29 14 -40 3 -16 1 -17 -12 -6 -8 7 -13 15 -11
19 3 4 1 13 -3 20 -6 9 -8 5 -8 -12 0 -14 6 -28 13 -31 8 -3 14 -10 14 -16 0
-6 -18 -1 -41 10 -40 21 -40 21 -29 1 5 -11 16 -18 23 -15 16 6 22 -52 6 -62
-7 -4 -9 0 -5 14 5 16 1 24 -16 32 -21 10 -21 10 -5 -3 18 -15 24 -32 7 -22
-5 3 -10 1 -10 -5 0 -6 -5 -8 -12 -4 -7 4 -8 3 -4 -5 4 -6 11 -9 16 -6 5 3 11
1 15 -5 4 -6 11 -8 16 -5 5 4 9 1 9 -5 0 -6 5 -8 10 -5 6 3 13 -1 16 -9 3 -9
11 -13 18 -9 6 4 13 8 16 8 9 0 103 75 95 75 -5 0 -16 -7 -26 -16 -11 -10 -19
-12 -24 -5 -3 6 0 11 7 11 8 1 6 6 -5 15 -11 7 -26 11 -35 8 -11 -3 -9 2 6 16
13 11 21 25 18 30 -4 5 -2 12 4 16 5 3 10 1 10 -6 0 -7 3 -10 6 -6 3 3 3 10 0
16 -9 14 -38 1 -32 -15 3 -7 -3 -18 -11 -26 -14 -11 -16 -11 -10 4 4 11 2 15
-7 12 -7 -3 -13 2 -13 11 0 9 6 14 14 11 7 -3 13 0 13 5 0 7 -9 9 -21 6 -14
-4 -19 -2 -16 7 3 7 -1 13 -8 13 -11 0 -12 -5 -2 -21z m32 -65 c-3 -5 -1 -13
5 -16 8 -5 7 -12 -2 -23 -11 -13 -11 -14 1 -7 9 5 12 4 8 -2 -3 -5 0 -10 8
-10 10 0 12 4 5 12 -5 6 -5 16 0 25 6 8 10 13 11 10 0 -3 2 -14 4 -25 8 -40
-31 -60 -78 -40 -14 6 -15 10 -5 23 15 17 15 21 -4 34 -10 7 -8 8 5 4 11 -3
20 0 23 9 4 8 10 15 16 15 5 0 7 -4 3 -9z"/>
<path d="M1343 2217 c-17 -23 -9 -50 15 -52 13 -1 26 3 29 9 3 6 3 8 -2 4 -14
-13 -37 13 -25 27 7 8 7 16 2 19 -6 3 -14 0 -19 -7z"/>
<path d="M2599 2328 c-5 -18 -6 -38 -1 -34 7 8 12 36 6 36 -2 0 -4 -1 -5 -2z"/>
<path d="M2690 2315 c0 -8 4 -15 10 -15 5 0 7 7 4 15 -4 8 -8 15 -10 15 -2 0
-4 -7 -4 -15z"/>
<path d="M1437 2275 c-6 -15 10 -32 20 -21 4 3 1 6 -5 6 -6 0 -9 7 -6 15 4 8
4 15 1 15 -3 0 -7 -7 -10 -15z"/>
<path d="M2778 2268 c6 -6 18 -8 28 -6 14 3 12 5 -9 10 -19 3 -25 2 -19 -4z"/>
<path d="M1475 2260 c3 -5 8 -10 11 -10 2 0 4 5 4 10 0 6 -5 10 -11 10 -5 0
-7 -4 -4 -10z"/>
<path d="M1420 2240 c8 -5 20 -10 25 -10 6 0 3 5 -5 10 -8 5 -19 10 -25 10 -5
0 -3 -5 5 -10z"/>
<path d="M1635 2240 c-4 -6 -1 -9 7 -8 7 2 12 -3 10 -10 -1 -8 2 -11 8 -7 8 5
7 11 -1 21 -14 17 -16 17 -24 4z"/>
<path d="M1496 2216 c5 -13 4 -17 -4 -12 -8 5 -10 2 -5 -10 6 -15 7 -15 16 1
6 11 5 21 -3 28 -8 9 -9 7 -4 -7z"/>
<path d="M2013 2215 c0 -8 4 -12 9 -9 5 3 6 10 3 15 -9 13 -12 11 -12 -6z"/>
<path d="M2047 2219 c7 -7 15 -10 18 -7 3 3 -2 9 -12 12 -14 6 -15 5 -6 -5z"/>
<path d="M2575 2221 c-3 -5 -2 -12 3 -15 5 -3 9 1 9 9 0 17 -3 19 -12 6z"/>
<path d="M2625 2220 c3 -6 12 -10 19 -10 7 0 21 -9 31 -20 10 -11 20 -18 23
-15 3 3 11 -4 19 -14 16 -23 48 -17 50 9 1 14 -4 17 -25 15 -15 -2 -33 2 -39
7 -7 6 -13 7 -13 3 0 -5 -8 -1 -17 7 -22 19 -56 32 -48 18z m119 -61 c-3 -5
-10 -7 -15 -3 -5 3 -7 10 -3 15 3 5 10 7 15 3 5 -3 7 -10 3 -15z"/>
<path d="M1619 2196 c6 -7 8 -22 4 -32 -7 -18 -6 -18 11 -1 15 15 16 19 2 32
-18 19 -32 20 -17 1z"/>
<path d="M1890 2195 c0 -8 2 -15 4 -15 2 0 6 7 10 15 3 8 1 15 -4 15 -6 0 -10
-7 -10 -15z"/>
<path d="M1966 2198 c3 -4 9 -8 15 -8 5 0 9 4 9 8 0 5 -7 9 -15 9 -8 0 -12 -4
-9 -9z"/>
<path d="M2079 2203 c0 -5 -3 -19 -5 -32 -2 -14 -2 -22 1 -19 8 8 17 58 10 58
-3 0 -5 -3 -6 -7z"/>
<path d="M2150 2205 c0 -7 30 -13 34 -7 3 4 -4 9 -15 9 -10 1 -19 0 -19 -2z"/>
<path d="M2357 2193 c3 -7 6 -13 8 -13 2 0 5 6 8 13 3 8 -1 14 -8 14 -7 0 -11
-6 -8 -14z"/>
<path d="M2410 2199 c0 -5 5 -7 10 -4 6 3 10 8 10 11 0 2 -4 4 -10 4 -5 0 -10
-5 -10 -11z"/>
<path d="M2447 2199 c7 -7 15 -10 18 -7 3 3 -2 9 -12 12 -14 6 -15 5 -6 -5z"/>
<path d="M2547 2199 c7 -7 15 -10 18 -7 3 3 -2 9 -12 12 -14 6 -15 5 -6 -5z"/>
<path d="M1768 2193 c6 -2 9 -10 6 -15 -4 -7 -2 -8 5 -4 13 9 5 26 -12 25 -9
0 -8 -2 1 -6z"/>
<path d="M1574 2178 c-4 -5 -3 -12 0 -15 3 -4 6 -1 6 5 0 6 7 9 15 6 8 -4 15
-2 15 3 0 12 -29 13 -36 1z"/>
<path d="M1830 2178 c0 -6 6 -8 14 -5 8 3 17 2 20 -4 2 -5 3 -4 2 2 -3 15 -36
21 -36 7z"/>
<path d="M2017 2179 c7 -7 15 -10 18 -7 3 3 -2 9 -12 12 -14 6 -15 5 -6 -5z"/>
<path d="M2223 2177 c0 -8 6 -14 14 -14 9 0 10 4 2 14 -6 7 -12 13 -14 13 -1
0 -2 -6 -2 -13z"/>
<path d="M2310 2180 c0 -5 5 -10 10 -10 6 0 10 5 10 10 0 6 -4 10 -10 10 -5 0
-10 -4 -10 -10z"/>
<path d="M2511 2177 c-13 -6 -23 -15 -22 -19 1 -10 11 -10 10 -1 -1 16 37 19
49 4 11 -14 11 -13 2 7 -6 12 -12 22 -13 22 -1 0 -13 -6 -26 -13z"/>
<path d="M1987 2169 c7 -7 15 -10 18 -7 3 3 -2 9 -12 12 -14 6 -15 5 -6 -5z"/>
<path d="M2571 2164 c0 -11 3 -14 6 -6 3 7 2 16 -1 19 -3 4 -6 -2 -5 -13z"/>
<path d="M1590 2150 c0 -5 -3 -9 -7 -7 -5 1 -9 -1 -10 -5 -4 -10 -1 -11 20 -3
18 8 24 25 7 25 -5 0 -10 -4 -10 -10z"/>
<path d="M2040 2150 c13 -9 13 -10 0 -10 -13 0 -13 -2 0 -9 8 -6 18 -7 23 -4
10 6 -11 33 -27 33 -6 0 -4 -5 4 -10z"/>
<path d="M2276 2141 c-4 -5 -2 -12 3 -15 5 -4 12 -2 15 3 4 5 2 12 -3 15 -5 4
-12 2 -15 -3z"/>
<path d="M1897 2063 c-4 -3 -7 -13 -7 -22 1 -13 3 -13 11 2 11 19 8 33 -4 20z"/>
<path d="M1916 2042 c-3 -4 4 -9 15 -9 23 -2 25 3 4 10 -8 4 -16 3 -19 -1z"/>
<path d="M2133 2043 c4 -3 2 -12 -4 -20 -9 -9 -8 -13 0 -13 6 0 11 2 11 4 0 2
3 11 6 20 4 10 1 16 -7 16 -7 0 -9 -3 -6 -7z"/>
<path d="M1976 2021 c-4 -5 3 -7 14 -4 23 6 26 13 6 13 -8 0 -17 -4 -20 -9z"/>
<path d="M2395 2070 c3 -5 8 -10 11 -10 2 0 4 5 4 10 0 6 -5 10 -11 10 -5 0
-7 -4 -4 -10z"/>
<path d="M3115 1687 c-12 -9 -14 -16 -7 -21 6 -3 16 3 22 14 13 24 10 25 -15
7z"/>
<path d="M3101 1627 c-13 -21 -12 -21 5 -5 10 10 16 20 13 22 -3 3 -11 -5 -18
-17z"/>
<path d="M3066 1582 c-2 -4 -1 -14 4 -22 7 -11 9 -9 7 8 -1 24 -3 26 -11 14z"/>
<path d="M1955 1720 c-3 -5 -1 -10 4 -10 6 0 11 5 11 10 0 6 -2 10 -4 10 -3 0
-8 -4 -11 -10z"/>
<path d="M2125 1729 c-4 -6 -5 -12 -2 -15 2 -3 7 2 10 11 7 17 1 20 -8 4z"/>
<path d="M2096 1722 c-4 -7 -5 -16 -2 -20 2 -4 0 -14 -6 -22 -8 -12 -8 -11 -3
5 5 15 3 17 -6 8 -8 -8 -19 -9 -36 -2 -17 6 -30 6 -38 -1 -6 -5 -16 -6 -20 -2
-5 4 -5 2 -1 -5 3 -6 2 -14 -4 -18 -14 -9 -1 -28 15 -21 8 3 19 -2 25 -10 7
-8 18 -14 24 -14 6 0 2 7 -8 15 -19 14 -11 21 18 16 5 -1 6 5 3 13 -4 10 -1
13 9 9 10 -4 12 -9 5 -16 -5 -5 -7 -16 -4 -23 4 -11 9 -12 19 -3 8 6 11 15 8
21 -9 14 16 37 34 32 15 -5 16 -4 1 8 -9 7 -18 20 -21 28 -3 10 -6 11 -12 2z
m-82 -44 c-5 -8 -2 -9 10 -5 11 4 15 3 11 -4 -4 -6 -13 -8 -21 -5 -8 3 -14 0
-14 -6 0 -6 -3 -8 -6 -5 -4 4 -1 13 6 22 15 18 24 20 14 3z"/>
<path d="M2036 1607 c-18 -13 -17 -15 15 -37 19 -14 28 -17 21 -8 -10 12 -9
18 3 28 13 11 13 15 3 21 -18 12 -21 11 -42 -4z m28 -17 c-6 -6 -15 -5 -24 1
-13 9 -12 10 3 5 9 -3 17 0 17 6 0 6 3 8 7 5 4 -4 2 -12 -3 -17z"/>
<path d="M3020 1481 c0 -6 4 -13 10 -16 6 -3 7 1 4 9 -7 18 -14 21 -14 7z"/>
<path d="M3025 1420 c-4 -6 -11 -7 -17 -4 -6 4 -6 -2 1 -15 7 -11 14 -21 17
-21 3 0 2 5 -1 10 -4 6 -1 17 5 25 7 8 10 15 7 15 -3 0 -9 -5 -12 -10z"/>
<path d="M1922 1448 c-7 -7 -12 -8 -12 -3 0 5 -15 -5 -32 -23 -18 -17 -37 -31
-43 -31 -5 0 -11 -4 -13 -10 -2 -6 3 -8 11 -5 8 3 18 1 22 -5 3 -7 0 -8 -9 -5
-15 6 -21 -6 -17 -30 1 -5 -5 -6 -14 -2 -9 3 -13 2 -10 -3 3 -5 2 -12 -3 -15
-4 -2 -9 4 -9 15 -1 10 5 19 13 19 8 0 14 4 14 9 0 5 -11 9 -24 9 -19 0 -23
-5 -22 -23 4 -28 15 -47 26 -40 11 7 33 -22 26 -34 -4 -6 -13 -8 -21 -5 -9 4
-13 -1 -12 -15 1 -12 5 -21 9 -21 4 0 7 -3 7 -7 -5 -29 2 -36 17 -15 8 12 21
19 27 16 7 -4 9 -4 5 1 -4 4 -3 14 3 22 9 10 8 17 -1 28 -11 13 -9 15 8 12 24
-4 42 -17 23 -17 -7 0 -9 -5 -5 -11 5 -8 10 -6 16 6 8 13 5 20 -11 31 -20 15
-31 51 -11 39 6 -3 10 -1 10 5 0 7 -8 9 -19 5 -11 -3 -22 -1 -26 5 -4 6 -1 9
7 8 7 -2 12 4 10 13 -1 9 5 16 13 16 9 0 14 -6 11 -13 -3 -8 0 -11 10 -7 11 4
12 9 3 19 -9 11 -8 15 5 20 9 3 13 11 9 17 -4 6 0 8 8 5 10 -4 15 1 15 13 0
11 -1 19 -1 19 -1 0 -6 -5 -13 -12z m-22 -27 c-11 -21 -30 -37 -30 -25 0 8 30
44 37 44 2 0 -1 -9 -7 -19z m-41 -99 l19 -28 -23 1 c-13 0 -30 6 -37 14 -10
10 -10 12 0 7 11 -6 17 5 13 27 -2 14 8 7 28 -21z m-8 -71 c-6 -10 -18 -24
-28 -31 -10 -8 -15 -11 -11 -6 4 5 3 18 -3 29 -7 11 -7 17 -1 13 5 -3 15 1 22
9 16 20 33 9 21 -14z"/>
<path d="M1830 1255 c-7 -9 -11 -17 -9 -20 3 -2 10 5 17 15 14 24 10 26 -8 5z"/>
<path d="M2140 1439 c0 -5 5 -7 10 -4 6 3 10 8 10 11 0 2 -4 4 -10 4 -5 0 -10
-5 -10 -11z"/>
<path d="M1930 1406 c0 -2 7 -7 16 -10 8 -3 12 -2 9 4 -6 10 -25 14 -25 6z"/>
<path d="M1916 1387 c3 -10 9 -15 12 -12 3 3 0 11 -7 18 -10 9 -11 8 -5 -6z"/>
<path d="M2316 1393 c-8 -9 -8 -23 2 -22 26 4 34 -1 22 -16 -14 -16 -3 -20 19
-6 7 5 10 14 7 20 -10 16 -42 31 -50 24z"/>
<path d="M2154 1366 c1 -8 5 -18 8 -22 4 -3 5 1 4 10 -1 8 -5 18 -8 22 -4 3
-5 -1 -4 -10z"/>
<path d="M1960 1360 c8 -5 20 -10 25 -10 6 0 3 5 -5 10 -8 5 -19 10 -25 10 -5
0 -3 -5 5 -10z"/>
<path d="M2269 1358 c-6 -21 -6 -44 0 -53 4 -5 6 -23 6 -40 -1 -16 3 -36 8
-42 6 -9 6 -13 -2 -13 -7 0 -9 -4 -6 -10 4 -6 11 -5 19 3 12 10 12 13 1 20
-11 6 -11 13 3 36 9 16 20 28 23 25 4 -2 -1 14 -12 36 -16 32 -36 51 -40 38z
m23 -37 c8 11 9 11 6 1 -4 -16 -22 -18 -24 -2 -2 7 -1 6 3 -1 4 -8 8 -7 15 2z
m3 -40 c3 -5 2 -12 -3 -15 -5 -3 -9 1 -9 9 0 17 3 19 12 6z"/>
<path d="M1759 1311 c6 -10 7 -22 3 -27 -4 -5 -1 -4 6 2 13 11 6 44 -9 44 -6
0 -6 -8 0 -19z"/>
<path d="M1895 1321 c-3 -5 0 -13 6 -17 7 -4 9 -3 5 4 -3 5 0 13 6 15 9 4 10
6 1 6 -6 1 -14 -3 -18 -8z"/>
<path d="M2166 1318 c3 -4 9 -8 15 -8 5 0 9 4 9 8 0 5 -7 9 -15 9 -8 0 -12 -4
-9 -9z"/>
<path d="M2150 1305 c0 -5 5 -17 10 -25 5 -8 10 -10 10 -5 0 6 -5 17 -10 25
-5 8 -10 11 -10 5z"/>
<path d="M1950 1285 c0 -8 4 -15 8 -15 5 0 9 7 9 15 0 8 -4 15 -9 15 -4 0 -8
-7 -8 -15z"/>
<path d="M2000 1286 c0 -2 8 -10 18 -17 15 -13 16 -12 3 4 -13 16 -21 21 -21
13z"/>
<path d="M2066 1282 c-3 -5 1 -9 9 -9 8 0 12 4 9 9 -3 4 -7 8 -9 8 -2 0 -6 -4
-9 -8z"/>
<path d="M2127 1279 c7 -7 15 -10 18 -7 3 3 -2 9 -12 12 -14 6 -15 5 -6 -5z"/>
<path d="M2015 1239 c-4 -6 -5 -12 -2 -15 2 -3 7 2 10 11 7 17 1 20 -8 4z"/>
<path d="M1101 1284 c14 -17 32 -19 27 -2 -2 6 -12 12 -22 14 -14 2 -15 0 -5
-12z"/>
<path d="M1915 1151 c-3 -5 -2 -12 3 -15 5 -3 9 1 9 9 0 17 -3 19 -12 6z"/>
<path d="M1491 1123 c7 -12 15 -20 18 -17 3 2 -3 12 -13 22 -17 16 -18 16 -5
-5z"/>
<path d="M1706 1123 c-6 -14 -5 -15 5 -6 7 7 10 15 7 18 -3 3 -9 -2 -12 -12z"/>
<path d="M2433 1127 c0 -8 6 -14 14 -14 9 0 10 4 2 14 -6 7 -12 13 -14 13 -1
0 -2 -6 -2 -13z"/>
<path d="M1656 1111 c-4 -5 3 -7 14 -4 23 6 26 13 6 13 -8 0 -17 -4 -20 -9z"/>
<path d="M1735 1111 c-3 -5 -2 -12 3 -15 5 -3 9 1 9 9 0 17 -3 19 -12 6z"/>
<path d="M1479 1108 c-5 -18 -6 -38 -1 -34 7 8 12 36 6 36 -2 0 -4 -1 -5 -2z"/>
<path d="M2660 1106 c0 -2 9 -6 20 -9 11 -3 18 -1 14 4 -5 9 -34 13 -34 5z"/>
<path d="M2710 1100 c0 -5 5 -10 11 -10 5 0 7 5 4 10 -3 6 -8 10 -11 10 -2 0
-4 -4 -4 -10z"/>
<path d="M1261 1084 c0 -11 3 -14 6 -6 3 7 2 16 -1 19 -3 4 -6 -2 -5 -13z"/>
<path d="M2550 1085 c0 -7 30 -13 34 -7 3 4 -4 9 -15 9 -10 1 -19 0 -19 -2z"/>
<path d="M2655 1080 c3 -5 8 -10 11 -10 2 0 4 5 4 10 0 6 -5 10 -11 10 -5 0
-7 -4 -4 -10z"/>
<path d="M2530 1060 c0 -5 5 -10 11 -10 5 0 7 5 4 10 -3 6 -8 10 -11 10 -2 0
-4 -4 -4 -10z"/>
<path d="M2610 1060 c0 -5 5 -10 11 -10 5 0 7 5 4 10 -3 6 -8 10 -11 10 -2 0
-4 -4 -4 -10z"/>
<path d="M2775 1060 c3 -5 8 -10 11 -10 2 0 4 5 4 10 0 6 -5 10 -11 10 -5 0
-7 -4 -4 -10z"/>
<path d="M2814 1049 c-3 -6 -2 -15 3 -20 5 -5 9 -1 9 11 0 23 -2 24 -12 9z"/>
<path d="M1756 1038 c3 -5 10 -6 15 -3 13 9 11 12 -6 12 -8 0 -12 -4 -9 -9z"/>
<path d="M1450 1019 c0 -5 5 -7 10 -4 6 3 10 8 10 11 0 2 -4 4 -10 4 -5 0 -10
-5 -10 -11z"/>
<path d="M1747 999 c7 -7 15 -10 18 -7 3 3 -2 9 -12 12 -14 6 -15 5 -6 -5z"/>
<path d="M2066 998 c3 -5 10 -6 15 -3 13 9 11 12 -6 12 -8 0 -12 -4 -9 -9z"/>
<path d="M2176 993 c-6 -14 -5 -15 5 -6 7 7 10 15 7 18 -3 3 -9 -2 -12 -12z"/>
<path d="M2210 1001 c0 -6 4 -13 10 -16 6 -3 7 1 4 9 -7 18 -14 21 -14 7z"/>
<path d="M2816 1002 c-3 -5 1 -9 9 -9 8 0 12 4 9 9 -3 4 -7 8 -9 8 -2 0 -6 -4
-9 -8z"/>
<path d="M1879 998 c-5 -15 -9 -61 -5 -58 6 7 16 60 10 60 -2 0 -4 -1 -5 -2z"/>
<path d="M1445 979 c-4 -6 -13 -8 -19 -6 -7 3 -13 -1 -13 -8 0 -16 34 -7 41
11 6 16 0 19 -9 3z"/>
<path d="M1530 980 c0 -5 5 -10 11 -10 5 0 7 5 4 10 -3 6 -8 10 -11 10 -2 0
-4 -4 -4 -10z"/>
<path d="M1573 975 c0 -8 4 -12 9 -9 5 3 6 10 3 15 -9 13 -12 11 -12 -6z"/>
<path d="M1835 981 c-3 -5 -2 -12 3 -15 5 -3 9 1 9 9 0 17 -3 19 -12 6z"/>
<path d="M2435 980 c3 -5 8 -10 11 -10 2 0 4 5 4 10 0 6 -5 10 -11 10 -5 0 -7
-4 -4 -10z"/>
<path d="M2550 986 c0 -2 7 -7 16 -10 8 -3 12 -2 9 4 -6 10 -25 14 -25 6z"/>
<path d="M1296 967 c7 -21 31 -29 31 -11 0 8 -3 12 -5 9 -3 -3 -11 0 -19 7
-11 8 -12 7 -7 -5z"/>
<path d="M1381 964 c0 -11 3 -14 6 -6 3 7 2 16 -1 19 -3 4 -6 -2 -5 -13z"/>
<path d="M1975 970 c-4 -6 -11 -7 -17 -4 -7 4 -8 2 -4 -4 10 -16 23 -15 30 3
6 17 0 20 -9 5z"/>
<path d="M2196 967 c3 -10 9 -15 12 -12 3 3 0 11 -7 18 -10 9 -11 8 -5 -6z"/>
<path d="M2769 963 c-8 -9 -9 -14 -2 -10 6 4 13 1 16 -5 3 -7 4 -3 4 10 -1 26
-1 26 -18 5z"/>
<path d="M2810 961 c0 -11 4 -22 9 -25 4 -3 6 6 3 19 -5 30 -12 33 -12 6z"/>
<path d="M1645 959 c-4 -6 -5 -12 -2 -15 2 -3 7 2 10 11 7 17 1 20 -8 4z"/>
<path d="M2039 968 c-5 -18 -6 -38 -1 -34 7 8 12 36 6 36 -2 0 -4 -1 -5 -2z"/>
<path d="M2100 966 c0 -2 8 -10 18 -17 15 -13 16 -12 3 4 -13 16 -21 21 -21
13z"/>
<path d="M2336 955 c-3 -8 0 -17 6 -21 6 -4 8 -3 4 4 -3 5 -1 12 6 14 8 3 9 6
1 11 -6 4 -13 0 -17 -8z"/>
<path d="M2370 960 c0 -5 5 -10 10 -10 6 0 10 5 10 10 0 6 -4 10 -10 10 -5 0
-10 -4 -10 -10z"/>
<path d="M2470 961 c0 -6 4 -12 8 -15 5 -3 9 1 9 9 0 8 -4 15 -9 15 -4 0 -8
-4 -8 -9z"/>
<path d="M2715 960 c-2 -3 5 -7 16 -7 10 -1 19 2 19 6 0 9 -29 10 -35 1z"/>
<path d="M1510 953 c5 -2 8 -9 4 -14 -3 -5 0 -9 6 -9 15 0 7 23 -8 26 -7 1 -8
0 -2 -3z"/>
<path d="M1556 947 c3 -10 9 -15 12 -12 3 3 0 11 -7 18 -10 9 -11 8 -5 -6z"/>
<path d="M1710 956 c0 -2 9 -6 20 -9 11 -3 18 -1 14 4 -5 9 -34 13 -34 5z"/>
<path d="M1275 940 c3 -5 8 -10 11 -10 2 0 4 5 4 10 0 6 -5 10 -11 10 -5 0 -7
-4 -4 -10z"/>
<path d="M1348 943 c7 -3 16 -2 19 1 4 3 -2 6 -13 5 -11 0 -14 -3 -6 -6z"/>
<path d="M1805 940 c-7 -12 2 -30 16 -30 5 0 9 5 9 11 0 5 -5 7 -12 3 -8 -5
-9 -2 -5 9 7 19 2 23 -8 7z"/>
<path d="M2067 933 c6 -16 23 -17 23 -2 0 5 6 7 13 3 6 -4 9 -3 4 1 -13 15
-46 13 -40 -2z"/>
<path d="M2266 937 c3 -10 9 -15 12 -12 3 3 0 11 -7 18 -10 9 -11 8 -5 -6z"/>
<path d="M2529 948 c-3 -6 -5 -58 -2 -58 1 0 7 10 14 21 9 17 8 20 -2 14 -9
-6 -11 -3 -6 8 5 13 1 25 -4 15z"/>
<path d="M2680 946 c0 -2 7 -7 16 -10 8 -3 12 -2 9 4 -6 10 -25 14 -25 6z"/>
<path d="M1388 933 c7 -3 16 -2 19 1 4 3 -2 6 -13 5 -11 0 -14 -3 -6 -6z"/>
<path d="M2010 935 c0 -5 5 -17 10 -25 5 -8 10 -10 10 -5 0 6 -5 17 -10 25 -5
8 -10 11 -10 5z"/>
<path d="M1300 920 c0 -5 5 -10 10 -10 6 0 10 5 10 10 0 6 -4 10 -10 10 -5 0
-10 -4 -10 -10z"/>
<path d="M1588 916 c3 -5 -3 -6 -13 -2 -15 5 -16 4 -5 -9 7 -9 16 -12 19 -7 3
5 15 14 26 19 18 10 17 11 -7 10 -14 -1 -24 -6 -20 -11z"/>
<path d="M2305 920 c-3 -5 -2 -10 4 -10 5 0 13 5 16 10 3 6 2 10 -4 10 -5 0
-13 -4 -16 -10z"/>
<path d="M2760 917 c0 -6 3 -7 6 -4 4 3 14 2 24 -3 12 -6 17 -5 17 4 0 8 -11
14 -24 14 -12 0 -23 -5 -23 -11z"/>
<path d="M1792 904 c10 -10 20 -16 22 -13 3 3 -5 11 -17 18 -21 13 -21 12 -5
-5z"/>
<path d="M2736 911 c-3 -5 1 -11 9 -14 9 -4 12 -1 8 9 -6 16 -10 17 -17 5z"/>
<path d="M2057 903 c-4 -3 -7 -11 -7 -17 0 -6 5 -5 12 2 6 6 9 14 7 17 -3 3
-9 2 -12 -2z"/>
<path d="M2270 900 c0 -5 5 -10 10 -10 6 0 10 5 10 10 0 6 -4 10 -10 10 -5 0
-10 -4 -10 -10z"/>
<path d="M1450 819 c0 -5 5 -7 10 -4 6 3 10 8 10 11 0 2 -4 4 -10 4 -5 0 -10
-5 -10 -11z"/>
<path d="M2415 820 c-3 -5 -1 -10 4 -10 6 0 11 5 11 10 0 6 -2 10 -4 10 -3 0
-8 -4 -11 -10z"/>
<path d="M1414 796 c1 -8 5 -18 8 -22 4 -3 5 1 4 10 -1 8 -5 18 -8 22 -4 3 -5
-1 -4 -10z"/>
<path d="M2110 801 c0 -6 4 -13 10 -16 6 -3 7 1 4 9 -7 18 -14 21 -14 7z"/>
<path d="M2670 801 c0 -6 4 -13 10 -16 6 -3 7 1 4 9 -7 18 -14 21 -14 7z"/>
<path d="M1553 755 c0 -8 4 -12 9 -9 5 3 6 10 3 15 -9 13 -12 11 -12 -6z"/>
<path d="M2620 766 c0 -2 8 -10 18 -17 15 -13 16 -12 3 4 -13 16 -21 21 -21
13z"/>
<path d="M2656 702 c-2 -4 -1 -14 4 -22 7 -11 9 -9 7 8 -1 24 -3 26 -11 14z"/>
<path d="M1450 680 c0 -5 5 -10 11 -10 5 0 7 5 4 10 -3 6 -8 10 -11 10 -2 0
-4 -4 -4 -10z"/>
<path d="M2349 672 c-14 -9 -24 -23 -21 -31 2 -8 0 -11 -5 -8 -5 3 -10 0 -10
-8 0 -8 5 -13 11 -12 6 1 10 -4 8 -11 -1 -8 3 -12 10 -9 7 2 22 0 33 -6 11 -5
17 -6 12 -2 -4 5 3 20 15 33 13 14 17 22 9 17 -11 -6 -13 -4 -8 8 4 11 -1 18
-14 22 -10 4 -17 11 -14 16 8 12 5 11 -26 -9z"/>
<path d="M2615 670 c-4 -6 1 -7 11 -3 13 5 15 3 9 -7 -5 -9 -4 -11 4 -6 6 4 9
12 6 17 -8 12 -22 12 -30 -1z"/>
<path d="M1485 659 c-4 -6 -5 -12 -2 -15 2 -3 7 2 10 11 7 17 1 20 -8 4z"/>
<path d="M1530 660 c0 -5 5 -10 11 -10 5 0 7 5 4 10 -3 6 -8 10 -11 10 -2 0
-4 -4 -4 -10z"/>
<path d="M1674 639 c-2 -33 4 -33 11 -1 2 12 1 24 -3 26 -4 2 -8 -9 -8 -25z"/>
<path d="M1993 655 c-20 -14 -24 -35 -13 -65 2 -3 2 -7 2 -10 0 -3 12 -5 28
-5 16 -1 28 4 27 10 -1 5 4 9 12 7 9 -2 11 3 6 15 -4 10 -8 24 -8 31 0 6 -6
12 -13 12 -7 0 -14 5 -16 10 -2 6 -12 4 -25 -5z"/>
<path d="M2155 660 c-3 -5 -1 -10 4 -10 6 0 11 5 11 10 0 6 -2 10 -4 10 -3 0
-8 -4 -11 -10z"/>
<path d="M2215 660 c-3 -5 -1 -10 4 -10 6 0 11 5 11 10 0 6 -2 10 -4 10 -3 0
-8 -4 -11 -10z"/>
<path d="M1507 647 c-3 -8 1 -14 8 -14 7 0 11 6 8 14 -6 16 -10 16 -16 0z"/>
<path d="M2069 643 c-13 -16 -12 -17 4 -4 16 13 21 21 13 21 -2 0 -10 -8 -17
-17z"/>
<path d="M2515 639 c3 -15 0 -19 -11 -15 -9 3 -12 2 -9 -5 4 -5 12 -8 18 -6
13 4 18 35 7 42 -5 3 -7 -4 -5 -16z"/>
<path d="M1573 635 c0 -8 4 -12 9 -9 4 3 8 9 8 15 0 5 -4 9 -8 9 -5 0 -9 -7
-9 -15z"/>
<path d="M2099 633 c-13 -16 -12 -17 4 -4 9 7 17 15 17 17 0 8 -8 3 -21 -13z"/>
<path d="M2193 645 c3 -6 -4 -22 -15 -35 -11 -14 -16 -18 -12 -10 4 8 3 11 -1
7 -12 -10 -15 -38 -4 -31 5 3 9 1 9 -5 0 -5 -6 -12 -12 -14 -9 -4 -8 -6 2 -6
8 -1 27 -8 42 -15 15 -8 27 -12 26 -8 -4 14 14 52 24 52 6 0 0 8 -13 19 -13
10 -30 17 -39 14 -13 -4 -13 -4 0 6 13 9 13 12 1 23 -8 7 -11 8 -8 3z"/>
<path d="M2557 633 c3 -7 6 -13 8 -13 2 0 5 6 8 13 3 8 -1 14 -8 14 -7 0 -11
-6 -8 -14z"/>
<path d="M1875 629 c-4 -6 -5 -12 -2 -15 2 -3 7 2 10 11 7 17 1 20 -8 4z"/>
<path d="M1475 620 c3 -5 8 -10 11 -10 2 0 4 5 4 10 0 6 -5 10 -11 10 -5 0 -7
-4 -4 -10z"/>
<path d="M1627 613 c6 -25 18 -30 29 -10 4 6 4 9 -1 5 -4 -4 -14 0 -21 10 -12
15 -12 15 -7 -5z"/>
<path d="M2424 618 c-4 -7 -4 -10 1 -6 4 4 14 0 22 -10 13 -15 13 -15 3 6 -12
25 -16 27 -26 10z"/>
<path d="M1541 608 c-1 -20 14 -24 25 -6 4 6 3 8 -4 4 -5 -3 -13 0 -15 6 -3 8
-6 6 -6 -4z"/>
<path d="M1694 609 c1 -7 10 -13 19 -15 9 -1 15 2 11 7 -3 5 -9 7 -14 4 -4 -3
-11 0 -13 5 -3 6 -4 5 -3 -1z"/>
<path d="M1801 602 c8 -12 15 -18 17 -12 2 6 8 8 12 5 5 -3 11 -1 14 4 4 5 -2
8 -11 6 -10 -1 -24 3 -32 9 -12 9 -12 8 0 -12z"/>
<path d="M1895 609 c-4 -6 -5 -12 -2 -15 2 -3 7 2 10 11 7 17 1 20 -8 4z"/>
<path d="M2278 613 c7 -3 16 -2 19 1 4 3 -2 6 -13 5 -11 0 -14 -3 -6 -6z"/>
<path d="M2096 598 c3 -5 8 -7 12 -4 3 3 11 -2 19 -12 13 -16 14 -16 5 2 -5
11 -17 21 -26 22 -9 1 -13 -2 -10 -8z"/>
<path d="M2406 597 c3 -10 9 -15 12 -12 3 3 0 11 -7 18 -10 9 -11 8 -5 -6z"/>
<path d="M2475 600 c-3 -5 -1 -10 4 -10 6 0 11 5 11 10 0 6 -2 10 -4 10 -3 0
-8 -4 -11 -10z"/>
<path d="M2546 595 c10 -8 23 -15 28 -15 6 0 1 7 -10 15 -10 8 -23 15 -28 15
-6 0 -1 -7 10 -15z"/>
<path d="M1575 591 c-3 -6 3 -14 13 -20 14 -7 19 -6 19 4 0 7 -7 11 -15 7 -10
-3 -13 -1 -8 6 4 7 5 12 2 12 -3 0 -7 -4 -11 -9z"/>
<path d="M1917 589 c7 -7 15 -10 18 -7 3 3 -2 9 -12 12 -14 6 -15 5 -6 -5z"/>
<path d="M1840 580 c-9 -6 -10 -10 -3 -10 6 0 15 5 18 10 8 12 4 12 -15 0z"/>
<path d="M2070 583 c0 -5 5 -15 10 -23 7 -12 9 -10 7 8 -1 19 -17 33 -17 15z"/>
<path d="M2310 580 c8 -5 20 -10 25 -10 6 0 3 5 -5 10 -8 5 -19 10 -25 10 -5
0 -3 -5 5 -10z"/>
<path d="M2497 583 c-3 -5 0 -17 4 -28 9 -18 9 -18 5 3 -3 17 1 22 16 22 18 0
19 -2 7 -17 -13 -16 -12 -17 3 -4 10 7 15 17 12 22 -6 11 -41 12 -47 2z"/>
<path d="M1620 572 c0 -6 5 -14 10 -17 6 -4 7 -11 4 -17 -4 -7 -2 -8 5 -4 9 6
9 12 -1 24 -7 10 -14 19 -15 21 -2 2 -3 -1 -3 -7z"/>
<path d="M1697 573 c-10 -9 -9 -23 1 -23 5 0 9 7 9 15 0 17 -1 18 -10 8z"/>
<path d="M1893 565 c0 -8 4 -15 9 -15 4 0 8 4 8 9 0 6 -4 12 -8 15 -5 3 -9 -1
-9 -9z"/>
<path d="M1567 559 c7 -7 15 -10 18 -7 3 3 -2 9 -12 12 -14 6 -15 5 -6 -5z"/>
<path d="M1797 552 c-15 -16 -15 -19 -2 -19 8 0 13 3 10 5 -3 3 0 11 6 19 17
20 5 16 -14 -5z"/>
<path d="M2264 558 c9 -5 23 -5 32 0 12 6 7 9 -16 9 -23 0 -28 -3 -16 -9z"/>
<path d="M2414 553 c1 -7 6 -16 11 -20 4 -4 5 -3 1 4 -3 6 2 16 11 22 16 9 16
10 -3 8 -12 0 -21 -7 -20 -14z"/>
<path d="M2306 545 c-11 -8 -15 -15 -9 -15 6 0 16 7 23 15 16 19 11 19 -14 0z"/>
<path d="M2370 539 c0 -5 5 -7 10 -4 6 3 10 8 10 11 0 2 -4 4 -10 4 -5 0 -10
-5 -10 -11z"/>
<path d="M2013 525 c0 -8 4 -12 9 -9 5 3 6 10 3 15 -9 13 -12 11 -12 -6z"/>
<path d="M1255 3521 c-3 -5 -2 -12 3 -15 5 -3 9 1 9 9 0 17 -3 19 -12 6z"/>
<path d="M1310 3519 c0 -5 5 -7 10 -4 6 3 10 8 10 11 0 2 -4 4 -10 4 -5 0 -10
-5 -10 -11z"/>
<path d="M1371 3518 c-2 -25 15 -30 30 -10 13 15 12 16 -3 4 -14 -11 -17 -10
-21 5 -4 16 -5 16 -6 1z"/>
<path d="M2774 3514 c1 -7 6 -17 10 -21 4 -4 6 -1 4 7 -2 9 3 14 12 12 8 -2
11 0 7 4 -13 14 -35 12 -33 -2z"/>
<path d="M1353 3496 c3 -8 -3 -22 -14 -32 -10 -9 -19 -24 -18 -33 0 -13 2 -13
6 -1 3 8 14 23 24 33 15 17 17 47 2 47 -3 0 -3 -6 0 -14z"/>
<path d="M2678 3488 c-20 -25 -25 -46 -5 -26 26 28 39 48 31 48 -5 0 -17 -10
-26 -22z"/>
<path d="M2720 3506 c0 -2 7 -9 15 -16 9 -7 15 -8 15 -2 0 5 -7 12 -15 16 -8
3 -15 4 -15 2z"/>
<path d="M2641 3486 c-9 -11 -10 -20 -1 -35 6 -12 13 -21 16 -21 3 0 1 8 -5
17 -6 11 -6 24 0 35 12 22 6 23 -10 4z"/>
<path d="M2812 3491 c-11 -7 -11 -9 0 -14 9 -3 15 1 15 9 0 8 -1 14 -1 14 -1
0 -7 -4 -14 -9z"/>
<path d="M1268 3478 c5 -5 16 -8 23 -6 8 3 3 7 -10 11 -17 4 -21 3 -13 -5z"/>
<path d="M2714 3483 c3 -6 0 -13 -6 -16 -7 -2 -11 -7 -8 -10 3 -3 12 -2 20 3
13 8 13 11 1 22 -8 8 -11 8 -7 1z"/>
<path d="M2760 3480 c0 -5 5 -10 11 -10 5 0 7 5 4 10 -3 6 -8 10 -11 10 -2 0
-4 -4 -4 -10z"/>
<path d="M2840 3470 c-6 -11 -8 -20 -6 -20 3 0 10 9 16 20 6 11 8 20 6 20 -3
0 -10 -9 -16 -20z"/>
<path d="M2915 3480 c3 -5 8 -10 11 -10 2 0 4 5 4 10 0 6 -5 10 -11 10 -5 0
-7 -4 -4 -10z"/>
<path d="M2740 3460 c0 -5 5 -10 11 -10 5 0 7 5 4 10 -3 6 -8 10 -11 10 -2 0
-4 -4 -4 -10z"/>
<path d="M2876 3458 c3 -5 10 -6 15 -3 13 9 11 12 -6 12 -8 0 -12 -4 -9 -9z"/>
<path d="M2595 3451 c-3 -5 0 -13 6 -17 8 -5 9 -3 4 6 -6 10 -4 12 9 7 10 -4
15 -3 11 3 -8 13 -22 13 -30 1z"/>
<path d="M2910 3457 c0 -2 6 -10 14 -16 11 -9 16 -9 22 1 4 7 4 10 -1 6 -4 -4
-14 -3 -22 3 -7 6 -13 9 -13 6z"/>
<path d="M2710 3440 c-13 -8 -12 -10 3 -10 9 0 17 5 17 10 0 12 -1 12 -20 0z"/>
<path d="M2850 3441 c0 -17 19 -22 37 -11 15 9 14 10 -6 4 -16 -4 -21 -3 -17
5 4 6 2 11 -3 11 -6 0 -11 -4 -11 -9z"/>
<path d="M1206 3425 c4 -8 11 -15 16 -15 6 0 5 6 -2 15 -7 8 -14 15 -16 15 -2
0 -1 -7 2 -15z"/>
<path d="M1186 3417 c3 -10 9 -15 12 -12 3 3 0 11 -7 18 -10 9 -11 8 -5 -6z"/>
<path d="M2933 3405 c0 -8 4 -12 9 -9 5 3 6 10 3 15 -9 13 -12 11 -12 -6z"/>
<path d="M1054 2915 c3 -23 12 -26 13 -5 1 11 -2 20 -7 20 -4 0 -7 -7 -6 -15z"/>
<path d="M990 2883 c0 -6 8 -17 18 -24 16 -13 16 -13 2 6 -8 11 -16 22 -17 24
-2 2 -3 0 -3 -6z"/>
<path d="M3040 2880 c-9 -6 -10 -10 -3 -10 6 0 15 5 18 10 8 12 4 12 -15 0z"/>
<path d="M3095 2880 c3 -5 8 -10 11 -10 2 0 4 5 4 10 0 6 -5 10 -11 10 -5 0
-7 -4 -4 -10z"/>
<path d="M939 2868 c0 -2 -2 -14 -5 -28 -3 -18 -2 -21 5 -10 5 8 8 17 5 21 -2
4 6 10 18 12 l23 4 -22 2 c-13 0 -23 0 -24 -1z"/>
<path d="M905 2839 c-4 -6 -5 -12 -2 -15 2 -3 7 2 10 11 7 17 1 20 -8 4z"/>
<path d="M966 2838 c3 -5 10 -6 15 -3 13 9 11 12 -6 12 -8 0 -12 -4 -9 -9z"/>
<path d="M3159 2833 c-13 -17 -13 -17 6 -3 11 8 22 16 24 17 2 2 0 3 -6 3 -6
0 -17 -8 -24 -17z"/>
<path d="M950 2820 c0 -5 5 -10 11 -10 5 0 7 5 4 10 -3 6 -8 10 -11 10 -2 0
-4 -4 -4 -10z"/>
<path d="M3119 2813 c-13 -16 -12 -17 4 -4 9 7 17 15 17 17 0 8 -8 3 -21 -13z"/>
<path d="M3175 2819 c-5 -8 -5 -11 0 -7 4 4 13 1 19 -7 8 -11 15 -12 26 -4 13
9 13 10 0 6 -8 -2 -20 3 -26 11 -9 13 -12 13 -19 1z"/>
<path d="M1175 2791 c-3 -5 -2 -12 3 -15 5 -3 9 1 9 9 0 17 -3 19 -12 6z"/>
<path d="M3220 2786 c0 -2 8 -10 18 -17 15 -13 16 -12 3 4 -13 16 -21 21 -21
13z"/>
<path d="M877 2770 c7 -8 23 -15 35 -17 12 -2 19 -1 16 3 -3 3 -12 6 -20 8 -7
1 -20 5 -28 10 -12 7 -13 6 -3 -4z"/>
<path d="M1290 2766 c0 -2 7 -7 16 -10 8 -3 12 -2 9 4 -6 10 -25 14 -25 6z"/>
<path d="M2610 2760 c0 -5 5 -10 11 -10 5 0 7 5 4 10 -3 6 -8 10 -11 10 -2 0
-4 -4 -4 -10z"/>
<path d="M3146 2762 c-2 -4 4 -8 14 -8 10 0 16 4 14 8 -3 4 -9 8 -14 8 -5 0
-11 -4 -14 -8z"/>
<path d="M2799 2758 c-5 -18 -6 -38 -1 -34 7 8 12 36 6 36 -2 0 -4 -1 -5 -2z"/>
<path d="M970 2740 c0 -5 5 -10 11 -10 5 0 7 5 4 10 -3 6 -8 10 -11 10 -2 0
-4 -4 -4 -10z"/>
<path d="M1426 2742 c-3 -5 1 -9 9 -9 8 0 15 4 15 9 0 4 -4 8 -9 8 -6 0 -12
-4 -15 -8z"/>
<path d="M3066 2738 c3 -5 10 -6 15 -3 13 9 11 12 -6 12 -8 0 -12 -4 -9 -9z"/>
<path d="M3246 2738 c3 -5 10 -6 15 -3 13 9 11 12 -6 12 -8 0 -12 -4 -9 -9z"/>
<path d="M1155 2729 c-4 -6 -5 -12 -2 -15 2 -3 7 2 10 11 7 17 1 20 -8 4z"/>
<path d="M1324 2722 c11 -12 20 -22 20 -22 1 0 2 10 3 23 0 12 -1 16 -4 9 -4
-10 -8 -10 -21 0 -12 9 -11 6 2 -10z"/>
<path d="M1377 2723 c3 -7 6 -13 8 -13 1 0 7 6 13 13 8 10 6 13 -7 13 -11 0
-17 -6 -14 -13z"/>
<path d="M2655 2729 c-4 -6 -14 -8 -22 -4 -13 4 -14 3 -3 -10 7 -9 13 -14 14
-13 1 2 8 11 15 21 7 9 11 17 8 17 -3 0 -9 -5 -12 -11z"/>
<path d="M3177 2729 c7 -7 15 -10 18 -7 3 3 -2 9 -12 12 -14 6 -15 5 -6 -5z"/>
<path d="M836 2722 c-3 -5 1 -9 9 -9 8 0 12 4 9 9 -3 4 -7 8 -9 8 -2 0 -6 -4
-9 -8z"/>
<path d="M885 2720 c-16 -7 -17 -9 -3 -9 9 -1 20 4 23 9 7 11 7 11 -20 0z"/>
<path d="M2680 2715 c-7 -9 -8 -15 -2 -15 5 0 12 7 16 15 3 8 4 15 2 15 -2 0
-9 -7 -16 -15z"/>
<path d="M2715 2720 c3 -5 8 -10 11 -10 2 0 4 5 4 10 0 6 -5 10 -11 10 -5 0
-7 -4 -4 -10z"/>
<path d="M2937 2715 c-4 -8 -3 -16 1 -19 4 -3 9 4 9 15 2 23 -3 25 -10 4z"/>
<path d="M3228 2712 c9 -10 19 -17 21 -16 6 5 -20 34 -30 34 -5 0 -1 -8 9 -18z"/>
<path d="M1408 2703 c6 -2 9 -10 6 -15 -4 -7 -2 -8 5 -4 13 9 5 26 -12 25 -9
0 -8 -2 1 -6z"/>
<path d="M3197 2694 c4 -10 0 -13 -13 -8 -16 5 -16 4 -4 -5 11 -8 18 -7 26 4
6 8 13 14 15 12 2 -1 3 0 1 2 -7 12 -30 7 -25 -5z"/>
<path d="M856 2688 c5 -8 1 -9 -12 -4 -10 4 -15 4 -11 0 4 -4 1 -14 -5 -23
-10 -13 -10 -14 2 -3 18 15 34 16 24 0 -4 -7 -3 -8 5 -4 6 4 9 11 6 16 -3 4 0
10 7 12 7 3 5 7 -6 11 -11 5 -15 3 -10 -5z"/>
<path d="M906 2681 c-3 -5 0 -11 7 -14 8 -3 14 1 14 9 0 16 -13 19 -21 5z"/>
<path d="M2691 2687 c2 -1 13 -9 24 -17 19 -14 19 -14 6 3 -7 9 -18 17 -24 17
-6 0 -8 -1 -6 -3z"/>
<path d="M2755 2679 c-3 -4 2 -6 10 -5 21 3 28 13 10 13 -9 0 -18 -4 -20 -8z"/>
<path d="M872 2650 c-18 -29 -15 -38 4 -12 9 13 14 25 12 27 -2 2 -9 -5 -16
-15z"/>
<path d="M3157 2650 c21 -24 24 -25 16 -3 -5 12 -3 14 8 8 8 -4 11 -4 6 0 -4
5 -16 10 -27 12 -19 3 -19 2 -3 -17z"/>
<path d="M3213 2663 c4 -3 -1 -12 -11 -20 -15 -13 -15 -13 6 -3 19 9 23 30 5
30 -4 0 -3 -3 0 -7z"/>
<path d="M1375 2649 c-4 -6 -5 -12 -2 -15 2 -3 7 2 10 11 7 17 1 20 -8 4z"/>
<path d="M3246 2643 c-4 -9 -3 -20 1 -24 4 -4 9 3 9 17 2 28 -1 31 -10 7z"/>
<path d="M900 2640 c0 -5 5 -10 11 -10 5 0 7 5 4 10 -3 6 -8 10 -11 10 -2 0
-4 -4 -4 -10z"/>
<path d="M3273 2635 c0 -8 4 -12 9 -9 5 3 6 10 3 15 -9 13 -12 11 -12 -6z"/>
<path d="M813 2616 c-3 -6 -2 -8 2 -3 5 4 16 0 26 -9 11 -10 19 -12 24 -4 4 6
1 9 -7 8 -7 -2 -12 2 -11 8 1 6 -5 11 -13 11 -8 0 -18 -5 -21 -11z"/>
<path d="M920 2620 c-9 -6 -10 -10 -3 -10 6 0 15 5 18 10 8 12 4 12 -15 0z"/>
<path d="M876 2593 c-6 -14 -5 -15 5 -6 7 7 10 15 7 18 -3 3 -9 -2 -12 -12z"/>
<path d="M3230 2576 c7 -7 13 -7 20 0 6 6 3 10 -10 10 -13 0 -16 -4 -10 -10z"/>
<path d="M3035 2171 c-3 -5 -2 -12 3 -15 5 -3 9 1 9 9 0 17 -3 19 -12 6z"/>
<path d="M3007 2139 c7 -7 15 -10 18 -7 3 3 -2 9 -12 12 -14 6 -15 5 -6 -5z"/>
<path d="M1119 2138 c-6 -12 -5 -48 1 -48 4 0 7 11 6 25 -1 22 -3 30 -7 23z"/>
<path d="M3055 2100 c-3 -5 -1 -10 4 -10 6 0 11 5 11 10 0 6 -2 10 -4 10 -3 0
-8 -4 -11 -10z"/>
<path d="M3015 2090 c-4 -6 -11 -7 -17 -4 -7 4 -8 2 -4 -5 6 -9 11 -9 22 0 14
11 18 19 10 19 -3 0 -8 -5 -11 -10z"/>
<path d="M1080 2080 c-9 -6 -10 -10 -3 -10 6 0 15 5 18 10 8 12 4 12 -15 0z"/>
<path d="M3175 1829 c-4 -6 -5 -12 -2 -15 2 -3 7 2 10 11 7 17 1 20 -8 4z"/>
<path d="M970 1801 c0 -7 -4 -9 -10 -6 -5 3 -10 1 -10 -4 0 -6 4 -11 9 -11 13
0 25 20 17 27 -3 4 -6 1 -6 -6z"/>
<path d="M3150 1765 c0 -8 4 -15 10 -15 5 0 7 7 4 15 -4 8 -8 15 -10 15 -2 0
-4 -7 -4 -15z"/>
<path d="M953 1754 c29 -16 37 -27 12 -18 -8 4 -15 1 -15 -6 0 -6 -5 -8 -11
-5 -6 4 -5 -2 3 -14 16 -26 28 -27 23 -1 -2 11 1 19 8 17 6 -1 11 6 12 17 0
14 -8 20 -30 22 l-30 3 28 -15z"/>
<path d="M894 1738 c-3 -4 5 -5 17 -3 30 6 36 14 9 12 -12 -1 -24 -5 -26 -9z"/>
<path d="M922 1696 c7 -8 15 -12 17 -11 5 6 -10 25 -20 25 -5 0 -4 -6 3 -14z"/>
<path d="M974 1694 c2 -10 8 -20 14 -22 6 -2 9 5 8 14 -2 10 -8 20 -14 22 -6
2 -9 -5 -8 -14z"/>
<path d="M3180 1686 c0 -2 8 -10 18 -17 15 -13 16 -12 3 4 -13 16 -21 21 -21
13z"/>
<path d="M910 1656 c0 -2 8 -10 18 -17 15 -13 16 -12 3 4 -13 16 -21 21 -21
13z"/>
<path d="M955 1570 c-3 -6 1 -7 9 -4 18 7 21 14 7 14 -6 0 -13 -4 -16 -10z"/>
<path d="M960 1540 c-12 -7 -10 -9 7 -7 12 0 19 5 17 9 -6 10 -6 10 -24 -2z"/>
<path d="M1040 1523 c7 -3 -3 -18 -22 -35 -18 -17 -24 -26 -13 -21 22 11 48 6
40 -7 -3 -5 -13 -6 -23 -3 -12 4 -11 1 5 -14 25 -22 19 -40 -6 -20 -14 10 -14
10 -4 -4 9 -11 9 -19 2 -26 -8 -8 -7 -13 2 -18 7 -5 10 -4 5 3 -3 6 -2 13 3
16 5 3 18 -9 29 -27 14 -24 26 -33 46 -33 14 0 25 5 23 11 -2 5 -12 9 -21 7
-9 -2 -15 1 -14 5 2 4 -5 19 -15 33 -9 13 -17 19 -17 12 0 -7 -5 -10 -11 -7
-7 5 -4 13 7 26 9 10 22 16 28 12 6 -4 6 0 -1 9 -7 8 -10 18 -6 21 3 4 -2 16
-13 28 -10 12 -18 24 -16 27 2 4 -1 7 -7 8 -8 2 -8 1 -1 -3z m25 -61 c4 -23
-10 -39 -19 -23 -4 5 -2 12 3 16 6 3 8 12 5 20 -4 8 -11 12 -17 8 -6 -4 -7 -1
-2 6 9 16 24 2 30 -27z m22 -110 c0 -11 -4 -10 -14 4 -7 10 -13 22 -13 26 0 5
6 3 13 -4 8 -7 14 -19 14 -26z"/>
<path d="M3093 1518 c-25 -12 -29 -23 -11 -34 7 -4 8 -3 4 4 -4 6 5 18 21 26
32 17 20 20 -14 4z"/>
<path d="M3090 1459 c0 -5 5 -7 10 -4 6 3 10 8 10 11 0 2 -4 4 -10 4 -5 0 -10
-5 -10 -11z"/>
<path d="M3069 1397 c6 -8 7 -18 3 -22 -4 -5 -1 -5 6 -1 10 6 10 11 1 22 -6 8
-14 14 -16 14 -3 0 0 -6 6 -13z"/>
<path d="M1047 1259 c7 -7 15 -10 18 -7 3 3 -2 9 -12 12 -14 6 -15 5 -6 -5z"/>
<path d="M1070 1206 c0 -2 7 -7 16 -10 8 -3 12 -2 9 4 -6 10 -25 14 -25 6z"/>
<path d="M2969 1198 c0 -2 -2 -11 -4 -21 -3 -15 -1 -16 11 -6 7 6 11 15 8 20
-5 9 -13 12 -15 7z"/>
<path d="M1112 1150 c-12 -19 -11 -20 8 -8 20 13 27 28 12 28 -4 0 -13 -9 -20
-20z"/>
<path d="M2987 1119 c7 -7 15 -10 18 -7 3 3 -2 9 -12 12 -14 6 -15 5 -6 -5z"/>
<path d="M1110 1096 c0 -2 8 -10 18 -17 15 -13 16 -12 3 4 -13 16 -21 21 -21
13z"/>
<path d="M2973 1069 c-2 -23 3 -25 10 -4 4 8 3 16 -1 19 -4 3 -9 -4 -9 -15z"/>
<path d="M1130 1039 c0 -5 5 -7 10 -4 6 3 10 8 10 11 0 2 -4 4 -10 4 -5 0 -10
-5 -10 -11z"/>
<path d="M2976 982 c-3 -5 1 -9 9 -9 8 0 12 4 9 9 -3 4 -7 8 -9 8 -2 0 -6 -4
-9 -8z"/>
<path d="M1135 960 c-3 -5 -1 -10 4 -10 6 0 11 5 11 10 0 6 -2 10 -4 10 -3 0
-8 -4 -11 -10z"/>
<path d="M2947 879 c7 -7 15 -10 18 -7 3 3 -2 9 -12 12 -14 6 -15 5 -6 -5z"/>
<path d="M2920 871 c0 -6 4 -13 10 -16 6 -3 7 1 4 9 -7 18 -14 21 -14 7z"/>
<path d="M1161 843 c7 -12 15 -20 18 -17 3 2 -3 12 -13 22 -17 16 -18 16 -5
-5z"/>
<path d="M2900 840 c-9 -6 -10 -10 -3 -10 6 0 15 5 18 10 8 12 4 12 -15 0z"/>
<path d="M1190 820 c0 -6 7 -10 15 -10 8 0 15 2 15 4 0 2 -7 6 -15 10 -8 3
-15 1 -15 -4z"/>
<path d="M2934 800 c0 -13 4 -16 10 -10 7 7 7 13 0 20 -6 6 -10 3 -10 -10z"/>
<path d="M1149 797 c6 -8 9 -16 6 -19 -3 -2 2 -5 10 -5 13 0 13 3 -2 19 -19
21 -31 25 -14 5z"/>
<path d="M2880 748 c-10 -21 -10 -21 3 -6 8 10 18 14 22 10 5 -4 5 -1 1 6 -10
17 -14 15 -26 -10z"/>
<path d="M1170 741 c0 -6 4 -13 10 -16 6 -3 7 1 4 9 -7 18 -14 21 -14 7z"/>
<path d="M2926 738 c3 -5 10 -6 15 -3 13 9 11 12 -6 12 -8 0 -12 -4 -9 -9z"/>
<path d="M2835 730 c-3 -6 1 -7 9 -4 18 7 21 14 7 14 -6 0 -13 -4 -16 -10z"/>
<path d="M1230 725 c0 -5 5 -17 10 -25 5 -8 10 -10 10 -5 0 6 -5 17 -10 25 -5
8 -10 11 -10 5z"/>
<path d="M1194 688 c0 -10 1 -18 3 -18 1 0 7 8 12 18 7 13 6 19 -2 19 -7 0
-13 -9 -13 -19z"/>
<path d="M1216 675 c-9 -26 -7 -32 5 -12 6 10 9 21 6 23 -2 3 -7 -2 -11 -11z"/>
<path d="M1266 642 c-2 -4 4 -8 14 -8 10 0 16 4 14 8 -3 4 -9 8 -14 8 -5 0
-11 -4 -14 -8z"/>
<path d="M2876 638 c3 -5 10 -6 15 -3 13 9 11 12 -6 12 -8 0 -12 -4 -9 -9z"/>
<path d="M1230 615 c5 -7 8 -14 5 -17 -3 -2 2 -5 10 -5 8 0 16 6 19 13 3 9 -1
11 -11 7 -10 -4 -14 -2 -10 4 3 5 0 10 -8 10 -10 0 -12 -4 -5 -12z"/>
<path d="M2759 617 c-15 -11 -15 -14 -1 -27 14 -13 15 -12 10 2 -4 8 -1 21 5
27 15 15 6 14 -14 -2z"/>
<path d="M2790 626 c0 -2 7 -7 16 -10 8 -3 12 -2 9 4 -6 10 -25 14 -25 6z"/>
<path d="M2793 595 c0 -8 4 -12 9 -9 5 3 6 10 3 15 -9 13 -12 11 -12 -6z"/>
<path d="M2832 605 c3 -3 16 -8 28 -10 12 -2 20 -1 16 2 -4 4 -16 8 -28 10
-12 2 -19 1 -16 -2z"/>
<path d="M1350 589 c0 -6 -5 -7 -12 -3 -6 4 -8 3 -5 -4 4 -5 16 -8 27 -5 24 6
25 9 5 17 -8 3 -15 1 -15 -5z"/>
<path d="M2815 580 c-3 -6 1 -7 9 -4 18 7 21 14 7 14 -6 0 -13 -4 -16 -10z"/>
<path d="M2854 560 c0 -13 4 -16 10 -10 7 7 7 13 0 20 -6 6 -10 3 -10 -10z"/>
<path d="M1270 563 c0 -5 5 -15 10 -23 7 -12 9 -10 7 8 -1 19 -17 33 -17 15z"/>
<path d="M1310 560 c-13 -8 -12 -10 3 -10 9 0 17 5 17 10 0 12 -1 12 -20 0z"/>
<path d="M1370 566 c0 -2 7 -7 16 -10 8 -3 12 -2 9 4 -6 10 -25 14 -25 6z"/>
<path d="M2770 562 c0 -4 9 -13 21 -20 16 -10 19 -10 13 -1 -5 9 -2 10 10 6
11 -4 15 -3 11 4 -4 6 -13 8 -21 5 -8 -3 -14 -1 -14 4 0 6 -4 10 -10 10 -5 0
-10 -3 -10 -8z"/>
<path d="M1339 548 c-7 -23 -4 -35 7 -35 10 0 11 4 3 13 -7 8 -6 14 3 17 10 4
10 6 1 6 -7 1 -13 0 -14 -1z"/>
<path d="M2735 541 c-3 -5 -2 -12 3 -15 5 -3 9 1 9 9 0 17 -3 19 -12 6z"/>
<path d="M1255 531 c-3 -5 -2 -12 3 -15 5 -3 9 1 9 9 0 17 -3 19 -12 6z"/>
<path d="M1295 520 c-3 -6 1 -7 9 -4 18 7 21 14 7 14 -6 0 -13 -4 -16 -10z"/>
<path d="M2800 511 c0 -6 4 -13 10 -16 6 -3 7 1 4 9 -7 18 -14 21 -14 7z"/>
<path d="M1316 498 c5 -7 2 -9 -7 -6 -10 4 -15 -1 -15 -13 0 -17 2 -17 18 -2
15 14 16 33 2 33 -3 0 -2 -5 2 -12z"/>
<path d="M2754 482 c0 -17 5 -29 13 -29 9 0 10 4 3 12 -6 7 -8 20 -4 29 3 9 2
16 -3 16 -5 0 -9 -13 -9 -28z"/>
<path d="M1348 493 c7 -3 16 -2 19 1 4 3 -2 6 -13 5 -11 0 -14 -3 -6 -6z"/>
<path d="M2786 475 c4 -8 11 -15 16 -15 6 0 5 6 -2 15 -7 8 -14 15 -16 15 -2
0 -1 -7 2 -15z"/>
<path d="M1344 462 c4 -3 14 -7 22 -8 9 -1 13 0 10 4 -4 3 -14 7 -22 8 -9 1
-13 0 -10 -4z"/>
<path d="M1395 441 c-3 -5 -2 -12 3 -15 5 -3 9 1 9 9 0 17 -3 19 -12 6z"/>
<path d="M2815 440 c-3 -5 -1 -10 4 -10 6 0 11 5 11 10 0 6 -2 10 -4 10 -3 0
-8 -4 -11 -10z"/>
<path d="M2749 417 c6 -8 7 -18 3 -22 -4 -5 -1 -5 6 -1 10 6 10 11 1 22 -6 8
-14 14 -16 14 -3 0 0 -6 6 -13z"/>
<path d="M2719 418 c-5 -18 -6 -38 -1 -34 7 8 12 36 6 36 -2 0 -4 -1 -5 -2z"/>
<path d="M1370 401 c0 -6 4 -13 10 -16 6 -3 7 1 4 9 -7 18 -14 21 -14 7z"/>
<path d="M1415 381 c-3 -5 -2 -12 3 -15 5 -3 9 1 9 9 0 17 -3 19 -12 6z"/>
<path d="M1336 367 c3 -10 9 -15 12 -12 3 3 0 11 -7 18 -10 9 -11 8 -5 -6z"/>
<path d="M1466 358 c3 -4 9 -8 15 -8 5 0 9 4 9 8 0 5 -7 9 -15 9 -8 0 -12 -4
-9 -9z"/>
<path d="M1393 325 c0 -8 4 -12 9 -9 5 3 6 10 3 15 -9 13 -12 11 -12 -6z"/>
<path d="M1430 326 c0 -2 7 -7 16 -10 8 -3 12 -2 9 4 -6 10 -25 14 -25 6z"/>
<path d="M2556 238 c3 -5 10 -6 15 -3 13 9 11 12 -6 12 -8 0 -12 -4 -9 -9z"/>
<path d="M1535 220 c3 -5 8 -10 11 -10 2 0 4 5 4 10 0 6 -5 10 -11 10 -5 0 -7
-4 -4 -10z"/>
<path d="M1660 220 c-8 -5 -10 -10 -5 -10 6 0 17 5 25 10 8 5 11 10 5 10 -5 0
-17 -5 -25 -10z"/>
<path d="M1590 179 c0 -5 5 -7 10 -4 6 3 10 8 10 11 0 2 -4 4 -10 4 -5 0 -10
-5 -10 -11z"/>
<path d="M2335 180 c3 -5 8 -10 11 -10 2 0 4 5 4 10 0 6 -5 10 -11 10 -5 0 -7
-4 -4 -10z"/>
<path d="M2470 185 c0 -7 30 -13 34 -7 3 4 -4 9 -15 9 -10 1 -19 0 -19 -2z"/>
<path d="M1866 158 c3 -5 10 -6 15 -3 13 9 11 12 -6 12 -8 0 -12 -4 -9 -9z"/>
<path d="M2429 143 c-13 -16 -12 -17 4 -4 16 13 21 21 13 21 -2 0 -10 -8 -17
-17z"/>
<path d="M2095 141 c-3 -5 -2 -12 3 -15 5 -3 9 1 9 9 0 17 -3 19 -12 6z"/>
<path d="M1713 115 c0 -8 4 -12 9 -9 5 3 6 10 3 15 -9 13 -12 11 -12 -6z"/>
<path d="M1830 120 c0 -5 5 -10 11 -10 5 0 7 5 4 10 -3 6 -8 10 -11 10 -2 0
-4 -4 -4 -10z"/>
<path d="M1913 115 c0 -8 4 -12 9 -9 4 3 8 9 8 15 0 5 -4 9 -8 9 -5 0 -9 -7
-9 -15z"/>
<path d="M1870 106 c0 -2 7 -7 16 -10 8 -3 12 -2 9 4 -6 10 -25 14 -25 6z"/>
<path d="M2090 99 c0 -5 5 -7 10 -4 6 3 10 8 10 11 0 2 -4 4 -10 4 -5 0 -10
-5 -10 -11z"/>
<path d="M2195 89 c-4 -6 -5 -12 -2 -15 2 -3 7 2 10 11 7 17 1 20 -8 4z"/>
</g>
</svg>
