<?xml version="1.0" standalone="no"?><!-- Generator: Gravit.io --><svg xmlns="http://www.w3.org/2000/svg" xmlns:xlink="http://www.w3.org/1999/xlink" style="isolation:isolate" viewBox="1198 -2167.65 2672 3753.112" width="2672" height="3753.112"><defs><clipPath id="_clipPath_EXFTEgiZ4uTHyOaAhpPOF6iVarkBEI6t"><rect x="1198" y="-2167.65" width="2672" height="3753.112"/></clipPath></defs><g clip-path="url(#_clipPath_EXFTEgiZ4uTHyOaAhpPOF6iVarkBEI6t)"><rect x="1198" y="-2167.65" width="2672" height="3753.112" style="fill:rgb(215,251,238)" fill-opacity="0"/><g><path d=" M 1417.191 -63.286 C 1920.668 -366.082 2183.989 -400.866 2320.374 148.46 L 2115.452 229.947 C 2192.766 -47.288 1674.721 -108.629 1417.191 -63.286 Z " fill="rgb(90,167,68)"/><path d=" M 1340.938 -536.631 C 1880.443 -766.96 2509.673 -646.352 2420.623 163.861 L 2210.884 179.115 C 2182.553 -305.18 1803.738 -435.74 1340.938 -536.631 Z " fill="rgb(79,148,62)"/><linearGradient id="_lgradient_71" x1="1.3773889133243744" y1="0.17944250871080192" x2="0.1037307089644568" y2="0.9808362369337982" gradientTransform="matrix(560.82,-435.796,1081.163,1391.333,1335.13,-1194.479)" gradientUnits="userSpaceOnUse"><stop offset="3.0434782608695654%" stop-opacity="1" style="stop-color:rgb(81,151,62)"/><stop offset="98.69565217391305%" stop-opacity="1" style="stop-color:rgb(71,111,62)"/></linearGradient><path d=" M 1533.892 -1348.93 C 2511.998 -1429.697 2457.865 -804.261 2486.587 142.231 L 2389.924 162.92 C 2170.717 -733.674 1932.256 -1237.577 1533.892 -1348.93 Z " fill="url(#_lgradient_71)"/><linearGradient id="_lgradient_72" x1="0.045775108436964224" y1="0.8933748762550542" x2="0.9821659239467689" y2="0.035339262744042976" gradientTransform="matrix(1175.604,-913.527,1165.924,1500.41,1341.924,-1289.172)" gradientUnits="userSpaceOnUse"><stop offset="0.8695652173913043%" stop-opacity="1" style="stop-color:rgb(92,170,67)"/><stop offset="100%" stop-opacity="1" style="stop-color:rgb(59,87,56)"/></linearGradient><path d=" M 2529.071 -2142.399 C 2660.503 -1455.784 2678.369 -667.452 2570.87 162.265 L 2466.409 157.911 C 2245.505 -460.81 2262.587 -1247.675 2501.693 -2143.381 C 2510.433 -2176.12 2522.7 -2175.679 2529.071 -2142.399 Z " fill="url(#_lgradient_72)"/><linearGradient id="_lgradient_73" x1="0.0017982446877572444" y1="0.9038575919322095" x2="0.9573721608566049" y2="0.05910792014301414" gradientTransform="matrix(1493.138,-1160.273,956.848,1231.354,1620.075,-1017.896)" gradientUnits="userSpaceOnUse"><stop offset="1.7391304347826086%" stop-opacity="1" style="stop-color:rgb(91,167,67)"/><stop offset="100%" stop-opacity="1" style="stop-color:rgb(71,141,61)"/></linearGradient><path d=" M 3116.3 -2116.852 C 3124.781 -1948.358 3133.362 -1598.377 3092.124 -1364.826 C 2991.466 -794.755 2606.719 -364.739 2603.587 192.739 L 2533.602 157.708 C 2280.241 -985.968 2825.859 -1748.094 3079.105 -2127.121 C 3097.93 -2155.295 3114.596 -2150.694 3116.3 -2116.852 Z " fill="url(#_lgradient_73)"/><path d=" M 2543.02 169.827 C 2824.025 -678.904 3064.226 -1505.596 3802.92 -1415.667 C 3495.061 -1182.601 3096.09 -652.198 2605.748 175.509 L 2543.02 169.827 Z " fill="rgb(90,140,62)"/><path d=" M 2583.595 180.44 C 2778.961 -411.986 3176.379 -789.449 3703.587 -1004.767 L 2848.513 196.172 L 2583.595 180.44 Z " fill="rgb(83,157,65)"/><path d=" M 2657.142 171.671 C 3084.669 -271.852 3489.041 -245.189 3870 251.63 C 3459.113 132.066 3182.168 3.984 2951.363 285.148 L 2657.142 171.671 Z " fill="rgb(94,167,67)"/><path d=" M 3683.395 1585.462 C 3642.132 780.956 3118.543 143.853 2479.61 143.853 C 1840.677 143.853 1317.089 780.956 1275.825 1585.462 L 3683.395 1585.462 L 3683.395 1585.462 Z " fill="rgb(102,133,57)"/><linearGradient id="_lgradient_74" x1="0" y1="0.5" x2="1" y2="0.5" gradientTransform="matrix(184.184,0,0,184.184,1392.928,1078.733)" gradientUnits="userSpaceOnUse"><stop offset="0.43478260869565216%" stop-opacity="1" style="stop-color:rgb(146,131,48)"/><stop offset="98.26086956521739%" stop-opacity="1" style="stop-color:rgb(125,124,51)"/></linearGradient><circle vector-effect="non-scaling-stroke" cx="1485.019281033016" cy="1170.8252375788475" r="92.09175258065625" fill="url(#_lgradient_74)"/><clipPath id="_clipPath_qV4b3OhyiEid5H1n7YAPBgqwsPtYrCbw"><circle vector-effect="non-scaling-stroke" cx="1485.019281033016" cy="1170.8252375788475" r="92.09175258065625" fill="url(#_lgradient_74)"/></clipPath><g clip-path="url(#_clipPath_qV4b3OhyiEid5H1n7YAPBgqwsPtYrCbw)"><path d=" M 1485.019 1228.552 C 1495.976 1200.46 1527.758 1188.242 1567.902 1191.715 C 1558.639 1232.796 1528.996 1254.315 1485.019 1256.179 C 1440.606 1255.91 1411.986 1234.453 1399.067 1191.715 C 1437.035 1178.844 1463.67 1191.154 1485.019 1228.552 Z " fill="rgb(82,97,44)"/></g><linearGradient id="_lgradient_75" x1="0" y1="0.5" x2="1" y2="0.5" gradientTransform="matrix(184.184,0,0,184.184,2845.9,1212.117)" gradientUnits="userSpaceOnUse"><stop offset="0.43478260869565216%" stop-opacity="1" style="stop-color:rgb(146,131,48)"/><stop offset="98.26086956521739%" stop-opacity="1" style="stop-color:rgb(125,124,51)"/></linearGradient><circle vector-effect="non-scaling-stroke" cx="2937.9921507658105" cy="1304.2089948728933" r="92.09175258065625" fill="url(#_lgradient_75)"/><clipPath id="_clipPath_xbmP0LjTNydNClG0Xg0WsOJAk3a2Z76M"><circle vector-effect="non-scaling-stroke" cx="2937.9921507658105" cy="1304.2089948728933" r="92.09175258065625" fill="url(#_lgradient_75)"/></clipPath><g clip-path="url(#_clipPath_xbmP0LjTNydNClG0Xg0WsOJAk3a2Z76M)"><path d=" M 2937.992 1361.935 C 2948.949 1333.843 2980.731 1321.626 3020.875 1325.099 C 3011.612 1366.18 2981.969 1387.699 2937.992 1389.563 C 2893.579 1389.294 2864.959 1367.836 2852.04 1325.099 C 2890.008 1312.228 2916.643 1324.538 2937.992 1361.935 Z " fill="rgb(82,97,44)"/></g><linearGradient id="_lgradient_76" x1="0" y1="0.5" x2="1" y2="0.5" gradientTransform="matrix(184.184,0,0,184.184,3425.086,1189.244)" gradientUnits="userSpaceOnUse"><stop offset="0.43478260869565216%" stop-opacity="1" style="stop-color:rgb(146,131,48)"/><stop offset="98.26086956521739%" stop-opacity="1" style="stop-color:rgb(125,124,51)"/></linearGradient><circle vector-effect="non-scaling-stroke" cx="3517.1772879795017" cy="1281.3353406756357" r="92.09175258065625" fill="url(#_lgradient_76)"/><clipPath id="_clipPath_KzELaYlHdtjcazXd6vT0XLuI9vWgS9x6"><circle vector-effect="non-scaling-stroke" cx="3517.1772879795017" cy="1281.3353406756357" r="92.09175258065625" fill="url(#_lgradient_76)"/></clipPath><g clip-path="url(#_clipPath_KzELaYlHdtjcazXd6vT0XLuI9vWgS9x6)"><path d=" M 3517.177 1339.062 C 3528.134 1310.97 3559.916 1298.752 3600.06 1302.225 C 3590.797 1343.306 3561.154 1364.825 3517.177 1366.689 C 3472.764 1366.42 3444.144 1344.963 3431.225 1302.225 C 3469.193 1289.355 3495.828 1301.664 3517.177 1339.062 Z " fill="rgb(82,97,44)"/></g><linearGradient id="_lgradient_77" x1="0" y1="0.5" x2="1" y2="0.5" gradientTransform="matrix(184.184,0,0,184.184,2568.632,1120.025)" gradientUnits="userSpaceOnUse"><stop offset="0.43478260869565216%" stop-opacity="1" style="stop-color:rgb(146,131,48)"/><stop offset="98.26086956521739%" stop-opacity="1" style="stop-color:rgb(125,124,51)"/></linearGradient><circle vector-effect="non-scaling-stroke" cx="2660.7239889793927" cy="1212.1172422922373" r="92.09175258065625" fill="url(#_lgradient_77)"/><clipPath id="_clipPath_crq3Q8PNgIWShL3JEYCk7q8SKvAjQA0J"><circle vector-effect="non-scaling-stroke" cx="2660.7239889793927" cy="1212.1172422922373" r="92.09175258065625" fill="url(#_lgradient_77)"/></clipPath><g clip-path="url(#_clipPath_crq3Q8PNgIWShL3JEYCk7q8SKvAjQA0J)"><path d=" M 2660.724 1269.844 C 2671.681 1241.752 2703.462 1229.534 2743.607 1233.007 C 2734.344 1274.088 2704.701 1295.607 2660.724 1297.471 C 2616.311 1297.202 2587.691 1275.745 2574.772 1233.007 C 2612.74 1220.137 2639.375 1232.446 2660.724 1269.844 Z " fill="rgb(82,97,44)"/></g><linearGradient id="_lgradient_78" x1="0" y1="0.5" x2="1" y2="0.5" gradientTransform="matrix(184.184,0,0,184.184,2224.823,1080.119)" gradientUnits="userSpaceOnUse"><stop offset="0.43478260869565216%" stop-opacity="1" style="stop-color:rgb(146,131,48)"/><stop offset="98.26086956521739%" stop-opacity="1" style="stop-color:rgb(125,124,51)"/></linearGradient><circle vector-effect="non-scaling-stroke" cx="2316.9147793449456" cy="1172.2108161739525" r="92.09175258065625" fill="url(#_lgradient_78)"/><clipPath id="_clipPath_4C6XQYdt4O4uKHUVw9khtxDENSFqUrcJ"><circle vector-effect="non-scaling-stroke" cx="2316.9147793449456" cy="1172.2108161739525" r="92.09175258065625" fill="url(#_lgradient_78)"/></clipPath><g clip-path="url(#_clipPath_4C6XQYdt4O4uKHUVw9khtxDENSFqUrcJ)"><path d=" M 2316.915 1229.937 C 2327.871 1201.845 2359.653 1189.628 2399.797 1193.1 C 2390.535 1234.182 2360.891 1255.7 2316.915 1257.565 C 2272.502 1257.296 2243.882 1235.838 2230.962 1193.1 C 2268.93 1180.23 2295.565 1192.54 2316.915 1229.937 Z " fill="rgb(82,97,44)"/></g><linearGradient id="_lgradient_79" x1="0" y1="0.5" x2="1" y2="0.5" gradientTransform="matrix(184.184,0,0,184.184,2384.449,862.169)" gradientUnits="userSpaceOnUse"><stop offset="0.43478260869565216%" stop-opacity="1" style="stop-color:rgb(146,131,48)"/><stop offset="98.26086956521739%" stop-opacity="1" style="stop-color:rgb(125,124,51)"/></linearGradient><circle vector-effect="non-scaling-stroke" cx="2476.540483818083" cy="954.2603350663994" r="92.09175258065625" fill="url(#_lgradient_79)"/><clipPath id="_clipPath_jXgyfBjIHDm96DIaYl7QksMXWFWrPfq9"><circle vector-effect="non-scaling-stroke" cx="2476.540483818083" cy="954.2603350663994" r="92.09175258065625" fill="url(#_lgradient_79)"/></clipPath><g clip-path="url(#_clipPath_jXgyfBjIHDm96DIaYl7QksMXWFWrPfq9)"><path d=" M 2476.54 1011.987 C 2487.497 983.895 2519.279 971.677 2559.423 975.15 C 2550.16 1016.231 2520.517 1037.75 2476.54 1039.614 C 2432.128 1039.345 2403.508 1017.888 2390.588 975.15 C 2428.556 962.28 2455.191 974.589 2476.54 1011.987 Z " fill="rgb(82,97,44)"/></g><linearGradient id="_lgradient_80" x1="0" y1="0.5" x2="1" y2="0.5" gradientTransform="matrix(184.184,0,0,184.184,3065.928,493.802)" gradientUnits="userSpaceOnUse"><stop offset="0.43478260869565216%" stop-opacity="1" style="stop-color:rgb(146,131,48)"/><stop offset="98.26086956521739%" stop-opacity="1" style="stop-color:rgb(125,124,51)"/></linearGradient><circle vector-effect="non-scaling-stroke" cx="3158.0194529149385" cy="585.8933247437749" r="92.09175258065625" fill="url(#_lgradient_80)"/><clipPath id="_clipPath_wK4sb5W9wcodYDl36yiovgwPaqY6mMkG"><circle vector-effect="non-scaling-stroke" cx="3158.0194529149385" cy="585.8933247437749" r="92.09175258065625" fill="url(#_lgradient_80)"/></clipPath><g clip-path="url(#_clipPath_wK4sb5W9wcodYDl36yiovgwPaqY6mMkG)"><path d=" M 3158.019 643.62 C 3168.976 615.528 3200.758 603.31 3240.902 606.783 C 3231.639 647.864 3201.996 669.383 3158.019 671.247 C 3113.607 670.978 3084.987 649.521 3072.067 606.783 C 3110.035 593.913 3136.67 606.222 3158.019 643.62 Z " fill="rgb(82,97,44)"/></g><linearGradient id="_lgradient_81" x1="0" y1="0.5" x2="1" y2="0.5" gradientTransform="matrix(184.184,0,0,184.184,2801.931,493.802)" gradientUnits="userSpaceOnUse"><stop offset="0.43478260869565216%" stop-opacity="1" style="stop-color:rgb(146,131,48)"/><stop offset="98.26086956521739%" stop-opacity="1" style="stop-color:rgb(125,124,51)"/></linearGradient><circle vector-effect="non-scaling-stroke" cx="2894.023095517058" cy="585.8933247437749" r="92.09175258065625" fill="url(#_lgradient_81)"/><clipPath id="_clipPath_xrWLdT5TQgMBcv1LIoSM9dEgdpvBFUzB"><circle vector-effect="non-scaling-stroke" cx="2894.023095517058" cy="585.8933247437749" r="92.09175258065625" fill="url(#_lgradient_81)"/></clipPath><g clip-path="url(#_clipPath_xrWLdT5TQgMBcv1LIoSM9dEgdpvBFUzB)"><path d=" M 2894.023 643.62 C 2904.98 615.528 2936.762 603.31 2976.906 606.783 C 2967.643 647.864 2938 669.383 2894.023 671.247 C 2849.61 670.978 2820.99 649.521 2808.071 606.783 C 2846.039 593.913 2872.674 606.222 2894.023 643.62 Z " fill="rgb(82,97,44)"/></g><linearGradient id="_lgradient_82" x1="0" y1="0.5" x2="1" y2="0.5" gradientTransform="matrix(184.184,0,0,184.184,2295.427,607.381)" gradientUnits="userSpaceOnUse"><stop offset="0.43478260869565216%" stop-opacity="1" style="stop-color:rgb(146,131,48)"/><stop offset="98.26086956521739%" stop-opacity="1" style="stop-color:rgb(125,124,51)"/></linearGradient><circle vector-effect="non-scaling-stroke" cx="2387.5184563234516" cy="699.4731529265833" r="92.09175258065625" fill="url(#_lgradient_82)"/><clipPath id="_clipPath_wscw2Jm9MnQcSvctLdkKJrrbdihibJ4l"><circle vector-effect="non-scaling-stroke" cx="2387.5184563234516" cy="699.4731529265833" r="92.09175258065625" fill="url(#_lgradient_82)"/></clipPath><g clip-path="url(#_clipPath_wscw2Jm9MnQcSvctLdkKJrrbdihibJ4l)"><path d=" M 2387.518 757.199 C 2398.475 729.108 2430.257 716.89 2470.401 720.363 C 2461.138 761.444 2431.495 782.963 2387.518 784.827 C 2343.106 784.558 2314.486 763.101 2301.566 720.363 C 2339.534 707.492 2366.169 719.802 2387.518 757.199 Z " fill="rgb(82,97,44)"/></g><linearGradient id="_lgradient_83" x1="0" y1="0.5" x2="1" y2="0.5" gradientTransform="matrix(184.184,0,0,184.184,1976.175,515.29)" gradientUnits="userSpaceOnUse"><stop offset="0.43478260869565216%" stop-opacity="1" style="stop-color:rgb(146,131,48)"/><stop offset="98.26086956521739%" stop-opacity="1" style="stop-color:rgb(125,124,51)"/></linearGradient><circle vector-effect="non-scaling-stroke" cx="2068.267047377172" cy="607.3814003459272" r="92.09175258065625" fill="url(#_lgradient_83)"/><clipPath id="_clipPath_DEMa2MbFcp5a6AseqSVc4XmwWZsZmCsr"><circle vector-effect="non-scaling-stroke" cx="2068.267047377172" cy="607.3814003459272" r="92.09175258065625" fill="url(#_lgradient_83)"/></clipPath><g clip-path="url(#_clipPath_DEMa2MbFcp5a6AseqSVc4XmwWZsZmCsr)"><path d=" M 2068.267 665.108 C 2079.224 637.016 2111.006 624.798 2151.15 628.271 C 2141.887 669.352 2112.244 690.871 2068.267 692.735 C 2023.854 692.466 1995.234 671.009 1982.315 628.271 C 2020.283 615.401 2046.918 627.71 2068.267 665.108 Z " fill="rgb(82,97,44)"/></g><linearGradient id="_lgradient_84" x1="0" y1="0.5" x2="1" y2="0.5" gradientTransform="matrix(184.184,0,0,184.184,1739.806,401.71)" gradientUnits="userSpaceOnUse"><stop offset="0.43478260869565216%" stop-opacity="1" style="stop-color:rgb(146,131,48)"/><stop offset="98.26086956521739%" stop-opacity="1" style="stop-color:rgb(125,124,51)"/></linearGradient><circle vector-effect="non-scaling-stroke" cx="1831.8982157534897" cy="493.8015721631176" r="92.09175258065625" fill="url(#_lgradient_84)"/><clipPath id="_clipPath_skExdl0wBimj15hxNEZ6QB6NWIycj9SP"><circle vector-effect="non-scaling-stroke" cx="1831.8982157534897" cy="493.8015721631176" r="92.09175258065625" fill="url(#_lgradient_84)"/></clipPath><g clip-path="url(#_clipPath_skExdl0wBimj15hxNEZ6QB6NWIycj9SP)"><path d=" M 1831.898 551.528 C 1842.855 523.436 1874.637 511.219 1914.781 514.691 C 1905.518 555.772 1875.875 577.291 1831.898 579.155 C 1787.485 578.886 1758.865 557.429 1745.946 514.691 C 1783.914 501.821 1810.549 514.13 1831.898 551.528 Z " fill="rgb(82,97,44)"/></g><linearGradient id="_lgradient_85" x1="0" y1="0.5" x2="1" y2="0.5" gradientTransform="matrix(184.184,0,0,184.184,2537.935,401.71)" gradientUnits="userSpaceOnUse"><stop offset="0.43478260869565216%" stop-opacity="1" style="stop-color:rgb(146,131,48)"/><stop offset="98.26086956521739%" stop-opacity="1" style="stop-color:rgb(125,124,51)"/></linearGradient><circle vector-effect="non-scaling-stroke" cx="2630.0267381191743" cy="493.8015721631176" r="92.09175258065625" fill="url(#_lgradient_85)"/><clipPath id="_clipPath_Zw6neHxqfn41gJ1PbLN8gWnBmXoK28Qe"><circle vector-effect="non-scaling-stroke" cx="2630.0267381191743" cy="493.8015721631176" r="92.09175258065625" fill="url(#_lgradient_85)"/></clipPath><g clip-path="url(#_clipPath_Zw6neHxqfn41gJ1PbLN8gWnBmXoK28Qe)"><path d=" M 2630.027 551.528 C 2640.983 523.436 2672.765 511.219 2712.909 514.691 C 2703.647 555.772 2674.003 577.291 2630.027 579.155 C 2585.614 578.886 2556.994 557.429 2544.074 514.691 C 2582.042 501.821 2608.677 514.13 2630.027 551.528 Z " fill="rgb(82,97,44)"/></g><linearGradient id="_lgradient_86" x1="0" y1="0.5" x2="1" y2="0.5" gradientTransform="matrix(184.184,0,0,184.184,2224.823,371.013)" gradientUnits="userSpaceOnUse"><stop offset="0.43478260869565216%" stop-opacity="1" style="stop-color:rgb(146,131,48)"/><stop offset="98.26086956521739%" stop-opacity="1" style="stop-color:rgb(125,124,51)"/></linearGradient><circle vector-effect="non-scaling-stroke" cx="2316.9147793449456" cy="463.1043213028996" r="92.09175258065625" fill="url(#_lgradient_86)"/><clipPath id="_clipPath_WIbpSGCOW1ZMLPKOq16X5qZkmCyEwsq2"><circle vector-effect="non-scaling-stroke" cx="2316.9147793449456" cy="463.1043213028996" r="92.09175258065625" fill="url(#_lgradient_86)"/></clipPath><g clip-path="url(#_clipPath_WIbpSGCOW1ZMLPKOq16X5qZkmCyEwsq2)"><path d=" M 2316.915 520.831 C 2327.871 492.739 2359.653 480.521 2399.797 483.994 C 2390.535 525.075 2360.891 546.594 2316.915 548.458 C 2272.502 548.189 2243.882 526.732 2230.962 483.994 C 2268.93 471.124 2295.565 483.433 2316.915 520.831 Z " fill="rgb(82,97,44)"/></g><linearGradient id="_lgradient_87" x1="0" y1="0.5" x2="1" y2="0.5" gradientTransform="matrix(184.184,0,0,184.184,1957.757,217.526)" gradientUnits="userSpaceOnUse"><stop offset="0.43478260869565216%" stop-opacity="1" style="stop-color:rgb(146,131,48)"/><stop offset="98.26086956521739%" stop-opacity="1" style="stop-color:rgb(125,124,51)"/></linearGradient><circle vector-effect="non-scaling-stroke" cx="2049.848696861041" cy="309.6180670018051" r="92.09175258065625" fill="url(#_lgradient_87)"/><clipPath id="_clipPath_KOTBtovfiN9TUJFx8WVZhyhAJuhU7mym"><circle vector-effect="non-scaling-stroke" cx="2049.848696861041" cy="309.6180670018051" r="92.09175258065625" fill="url(#_lgradient_87)"/></clipPath><g clip-path="url(#_clipPath_KOTBtovfiN9TUJFx8WVZhyhAJuhU7mym)"><path d=" M 2049.849 367.344 C 2060.805 339.253 2092.587 327.035 2132.731 330.508 C 2123.469 371.589 2093.825 393.108 2049.849 394.972 C 2005.436 394.703 1976.816 373.246 1963.896 330.508 C 2001.864 317.637 2028.499 329.947 2049.849 367.344 Z " fill="rgb(82,97,44)"/></g><linearGradient id="_lgradient_88" x1="0" y1="0.5" x2="1" y2="0.5" gradientTransform="matrix(184.184,0,0,184.184,2224.823,143.853)" gradientUnits="userSpaceOnUse"><stop offset="0.43478260869565216%" stop-opacity="1" style="stop-color:rgb(146,131,48)"/><stop offset="98.26086956521739%" stop-opacity="1" style="stop-color:rgb(125,124,51)"/></linearGradient><circle vector-effect="non-scaling-stroke" cx="2316.9147793449456" cy="235.94466493728044" r="92.09175258065625" fill="url(#_lgradient_88)"/><clipPath id="_clipPath_BDsyXpJf26HIkCduGoaR4ZgR7ZWnrVwJ"><circle vector-effect="non-scaling-stroke" cx="2316.9147793449456" cy="235.94466493728044" r="92.09175258065625" fill="url(#_lgradient_88)"/></clipPath><g clip-path="url(#_clipPath_BDsyXpJf26HIkCduGoaR4ZgR7ZWnrVwJ)"><path d=" M 2316.915 293.671 C 2327.871 265.579 2359.653 253.362 2399.797 256.834 C 2390.535 297.916 2360.891 319.434 2316.915 321.298 C 2272.502 321.03 2243.882 299.572 2230.962 256.834 C 2268.93 243.964 2295.565 256.274 2316.915 293.671 Z " fill="rgb(82,97,44)"/></g><linearGradient id="_lgradient_89" x1="0" y1="0.5" x2="1" y2="0.5" gradientTransform="matrix(184.184,0,0,184.184,2568.632,168.411)" gradientUnits="userSpaceOnUse"><stop offset="0.43478260869565216%" stop-opacity="1" style="stop-color:rgb(146,131,48)"/><stop offset="98.26086956521739%" stop-opacity="1" style="stop-color:rgb(125,124,51)"/></linearGradient><circle vector-effect="non-scaling-stroke" cx="2660.7239889793927" cy="260.50246562545516" r="92.09175258065625" fill="url(#_lgradient_89)"/><clipPath id="_clipPath_PjEuoZshFUG4iAr8WXNlBmtNjgC2zqi3"><circle vector-effect="non-scaling-stroke" cx="2660.7239889793927" cy="260.50246562545516" r="92.09175258065625" fill="url(#_lgradient_89)"/></clipPath><g clip-path="url(#_clipPath_PjEuoZshFUG4iAr8WXNlBmtNjgC2zqi3)"><path d=" M 2660.724 318.229 C 2671.681 290.137 2703.462 277.919 2743.607 281.392 C 2734.344 322.473 2704.701 343.992 2660.724 345.856 C 2616.311 345.587 2587.691 324.13 2574.772 281.392 C 2612.74 268.522 2639.375 280.831 2660.724 318.229 Z " fill="rgb(82,97,44)"/></g><linearGradient id="_lgradient_90" x1="0" y1="0.5" x2="1" y2="0.5" gradientTransform="matrix(184.184,0,0,184.184,2851.047,260.502)" gradientUnits="userSpaceOnUse"><stop offset="0.43478260869565216%" stop-opacity="1" style="stop-color:rgb(146,131,48)"/><stop offset="98.26086956521739%" stop-opacity="1" style="stop-color:rgb(125,124,51)"/></linearGradient><circle vector-effect="non-scaling-stroke" cx="2943.1386968934094" cy="352.59421820611135" r="92.09175258065625" fill="url(#_lgradient_90)"/><clipPath id="_clipPath_3Lv6INKPKyKtvG2SR1UyGXeH1mMZN7ld"><circle vector-effect="non-scaling-stroke" cx="2943.1386968934094" cy="352.59421820611135" r="92.09175258065625" fill="url(#_lgradient_90)"/></clipPath><g clip-path="url(#_clipPath_3Lv6INKPKyKtvG2SR1UyGXeH1mMZN7ld)"><path d=" M 2943.139 410.321 C 2954.095 382.229 2985.877 370.011 3026.021 373.484 C 3016.759 414.565 2987.115 436.084 2943.139 437.948 C 2898.726 437.679 2870.106 416.222 2857.186 373.484 C 2895.154 360.613 2921.789 372.923 2943.139 410.321 Z " fill="rgb(82,97,44)"/></g><linearGradient id="_lgradient_91" x1="0" y1="0.5" x2="1" y2="0.5" gradientTransform="matrix(184.184,0,0,118.558,1799.097,1466.904)" gradientUnits="userSpaceOnUse"><stop offset="0.43478260869565216%" stop-opacity="1" style="stop-color:rgb(146,131,48)"/><stop offset="98.26086956521739%" stop-opacity="1" style="stop-color:rgb(125,124,51)"/></linearGradient><path d=" M 1979.342 1585.462 C 1981.927 1577.099 1983.281 1568.204 1983.281 1558.996 C 1983.281 1508.169 1942.016 1466.904 1891.189 1466.904 C 1840.362 1466.904 1799.097 1508.169 1799.097 1558.996 C 1799.097 1568.204 1800.452 1577.099 1803.037 1585.462 L 1979.342 1585.462 L 1979.342 1585.462 Z " fill="url(#_lgradient_91)"/><clipPath id="_clipPath_syH9DDdH86mBqvvS69oQLcW3Bz6jmsRa"><path d=" M 1979.342 1585.462 C 1981.927 1577.099 1983.281 1568.204 1983.281 1558.996 C 1983.281 1508.169 1942.016 1466.904 1891.189 1466.904 C 1840.362 1466.904 1799.097 1508.169 1799.097 1558.996 C 1799.097 1568.204 1800.452 1577.099 1803.037 1585.462 L 1979.342 1585.462 L 1979.342 1585.462 Z " fill="url(#_lgradient_91)"/></clipPath><g clip-path="url(#_clipPath_syH9DDdH86mBqvvS69oQLcW3Bz6jmsRa)"><path d=" M 1891.189 1616.722 C 1902.146 1588.631 1933.928 1576.413 1974.072 1579.886 C 1964.809 1620.967 1935.166 1642.486 1891.189 1644.35 C 1846.776 1644.081 1818.156 1622.624 1805.237 1579.886 C 1843.205 1567.015 1869.84 1579.325 1891.189 1616.722 Z " fill="rgb(82,97,44)"/></g><linearGradient id="_lgradient_92" x1="0" y1="0.5" x2="1" y2="0.5" gradientTransform="matrix(184.184,0,0,136.976,1537.205,1448.486)" gradientUnits="userSpaceOnUse"><stop offset="0.43478260869565216%" stop-opacity="1" style="stop-color:rgb(146,131,48)"/><stop offset="98.26086956521739%" stop-opacity="1" style="stop-color:rgb(125,124,51)"/></linearGradient><path d=" M 1709.639 1585.462 C 1717.141 1572.205 1721.388 1556.884 1721.388 1540.578 C 1721.388 1489.751 1680.123 1448.486 1629.296 1448.486 C 1578.47 1448.486 1537.205 1489.751 1537.205 1540.578 C 1537.205 1556.884 1541.452 1572.205 1548.954 1585.462 L 1709.639 1585.462 L 1709.639 1585.462 Z " fill="url(#_lgradient_92)"/><clipPath id="_clipPath_TzYHZjMyppe4RHzqDhpwXdvfLZ1UJEej"><path d=" M 1709.639 1585.462 C 1717.141 1572.205 1721.388 1556.884 1721.388 1540.578 C 1721.388 1489.751 1680.123 1448.486 1629.296 1448.486 C 1578.47 1448.486 1537.205 1489.751 1537.205 1540.578 C 1537.205 1556.884 1541.452 1572.205 1548.954 1585.462 L 1709.639 1585.462 L 1709.639 1585.462 Z " fill="url(#_lgradient_92)"/></clipPath><g clip-path="url(#_clipPath_TzYHZjMyppe4RHzqDhpwXdvfLZ1UJEej)"><path d=" M 1629.296 1598.304 C 1640.253 1570.212 1672.035 1557.995 1712.179 1561.467 C 1702.916 1602.549 1673.273 1624.068 1629.296 1625.932 C 1584.883 1625.663 1556.263 1604.205 1543.344 1561.467 C 1581.312 1548.597 1607.947 1560.907 1629.296 1598.304 Z " fill="rgb(82,97,44)"/></g><linearGradient id="_lgradient_93" x1="0" y1="0.5" x2="1" y2="0.5" gradientTransform="matrix(158.161,0,0,44.884,2366.763,1540.578)" gradientUnits="userSpaceOnUse"><stop offset="0.43478260869565216%" stop-opacity="1" style="stop-color:rgb(146,131,48)"/><stop offset="98.26086956521739%" stop-opacity="1" style="stop-color:rgb(125,124,51)"/></linearGradient><path d=" M 2524.924 1585.462 C 2508.827 1558.588 2479.422 1540.578 2445.843 1540.578 C 2412.265 1540.578 2382.859 1558.588 2366.763 1585.462 L 2524.924 1585.462 L 2524.924 1585.462 Z " fill="url(#_lgradient_93)"/><clipPath id="_clipPath_JrYVac4O65J2U5c3XKhCI9Htb55l8XEj"><path d=" M 2524.924 1585.462 C 2508.827 1558.588 2479.422 1540.578 2445.843 1540.578 C 2412.265 1540.578 2382.859 1558.588 2366.763 1585.462 L 2524.924 1585.462 L 2524.924 1585.462 Z " fill="url(#_lgradient_93)"/></clipPath><g clip-path="url(#_clipPath_JrYVac4O65J2U5c3XKhCI9Htb55l8XEj)"><path d=" M 2445.843 1690.396 C 2456.8 1662.304 2488.582 1650.087 2528.726 1653.559 C 2519.463 1694.64 2489.82 1716.159 2445.843 1718.023 C 2401.43 1717.754 2372.81 1696.297 2359.891 1653.559 C 2397.859 1640.689 2424.494 1652.998 2445.843 1690.396 Z " fill="rgb(82,97,44)"/></g><linearGradient id="_lgradient_94" x1="0" y1="0.5" x2="1" y2="0.5" gradientTransform="matrix(184.184,0,0,184.184,3286.948,1396.301)" gradientUnits="userSpaceOnUse"><stop offset="0.43478260869565216%" stop-opacity="1" style="stop-color:rgb(146,131,48)"/><stop offset="98.26086956521739%" stop-opacity="1" style="stop-color:rgb(125,124,51)"/></linearGradient><circle vector-effect="non-scaling-stroke" cx="3379.039659108516" cy="1488.3925000342074" r="92.09175258065625" fill="url(#_lgradient_94)"/><clipPath id="_clipPath_9GXxOZnQxv572Jj4Wo7yNLOlCApcCF4C"><circle vector-effect="non-scaling-stroke" cx="3379.039659108516" cy="1488.3925000342074" r="92.09175258065625" fill="url(#_lgradient_94)"/></clipPath><g clip-path="url(#_clipPath_9GXxOZnQxv572Jj4Wo7yNLOlCApcCF4C)"><path d=" M 3379.04 1546.119 C 3389.996 1518.027 3421.778 1505.809 3461.922 1509.282 C 3452.66 1550.363 3423.016 1571.882 3379.04 1573.746 C 3334.627 1573.477 3306.007 1552.02 3293.087 1509.282 C 3331.055 1496.412 3357.69 1508.721 3379.04 1546.119 Z " fill="rgb(82,97,44)"/></g><linearGradient id="_lgradient_95" x1="0" y1="0.5" x2="1" y2="0.5" gradientTransform="matrix(182.879,0,0,81.721,3517.83,1503.741)" gradientUnits="userSpaceOnUse"><stop offset="0.43478260869565216%" stop-opacity="1" style="stop-color:rgb(146,131,48)"/><stop offset="98.26086956521739%" stop-opacity="1" style="stop-color:rgb(125,124,51)"/></linearGradient><path d=" M 3700.708 1585.462 C 3695.611 1539.499 3656.583 1503.741 3609.269 1503.741 C 3561.955 1503.741 3522.927 1539.499 3517.83 1585.462 L 3700.708 1585.462 L 3700.708 1585.462 Z " fill="url(#_lgradient_95)"/><clipPath id="_clipPath_3XJSM0LJyMpqytDtsU2WGZk0hoFuIn9v"><path d=" M 3700.708 1585.462 C 3695.611 1539.499 3656.583 1503.741 3609.269 1503.741 C 3561.955 1503.741 3522.927 1539.499 3517.83 1585.462 L 3700.708 1585.462 L 3700.708 1585.462 Z " fill="url(#_lgradient_95)"/></clipPath><g clip-path="url(#_clipPath_3XJSM0LJyMpqytDtsU2WGZk0hoFuIn9v)"><path d=" M 3609.269 1653.559 C 3620.226 1625.467 3652.008 1613.25 3692.152 1616.722 C 3682.889 1657.804 3653.246 1679.323 3609.269 1681.187 C 3564.856 1680.918 3536.236 1659.46 3523.317 1616.722 C 3561.285 1603.852 3587.92 1616.162 3609.269 1653.559 Z " fill="rgb(82,97,44)"/></g><linearGradient id="_lgradient_96" x1="0" y1="0.5" x2="1" y2="0.5" gradientTransform="matrix(184.184,0,0,118.558,3035.231,1466.904)" gradientUnits="userSpaceOnUse"><stop offset="0.43478260869565216%" stop-opacity="1" style="stop-color:rgb(146,131,48)"/><stop offset="98.26086956521739%" stop-opacity="1" style="stop-color:rgb(125,124,51)"/></linearGradient><path d=" M 3215.474 1585.462 C 3218.06 1577.099 3219.414 1568.204 3219.414 1558.996 C 3219.414 1508.169 3178.149 1466.904 3127.322 1466.904 C 3076.495 1466.904 3035.231 1508.169 3035.231 1558.996 C 3035.231 1568.204 3036.585 1577.099 3039.17 1585.462 L 3215.474 1585.462 L 3215.474 1585.462 Z " fill="url(#_lgradient_96)"/><clipPath id="_clipPath_YydesHqTG4bIYng9r1qUUoJECa6KQti2"><path d=" M 3215.474 1585.462 C 3218.06 1577.099 3219.414 1568.204 3219.414 1558.996 C 3219.414 1508.169 3178.149 1466.904 3127.322 1466.904 C 3076.495 1466.904 3035.231 1508.169 3035.231 1558.996 C 3035.231 1568.204 3036.585 1577.099 3039.17 1585.462 L 3215.474 1585.462 L 3215.474 1585.462 Z " fill="url(#_lgradient_96)"/></clipPath><g clip-path="url(#_clipPath_YydesHqTG4bIYng9r1qUUoJECa6KQti2)"><path d=" M 3127.322 1616.722 C 3138.279 1588.631 3170.061 1576.413 3210.205 1579.886 C 3200.942 1620.967 3171.299 1642.486 3127.322 1644.35 C 3082.909 1644.081 3054.289 1622.624 3041.37 1579.886 C 3079.338 1567.015 3105.973 1579.325 3127.322 1616.722 Z " fill="rgb(82,97,44)"/></g><linearGradient id="_lgradient_97" x1="0" y1="0.5" x2="1" y2="0.5" gradientTransform="matrix(184.184,0,0,118.558,2083.616,1466.904)" gradientUnits="userSpaceOnUse"><stop offset="0.43478260869565216%" stop-opacity="1" style="stop-color:rgb(146,131,48)"/><stop offset="98.26086956521739%" stop-opacity="1" style="stop-color:rgb(125,124,51)"/></linearGradient><path d=" M 2263.86 1585.462 C 2266.445 1577.099 2267.799 1568.204 2267.799 1558.996 C 2267.799 1508.169 2226.534 1466.904 2175.707 1466.904 C 2124.881 1466.904 2083.616 1508.169 2083.616 1558.996 C 2083.616 1568.204 2084.97 1577.099 2087.555 1585.462 L 2263.86 1585.462 L 2263.86 1585.462 Z " fill="url(#_lgradient_97)"/><clipPath id="_clipPath_bWLjV57IkV0rTE3CFUvKhNc1OZgGlZE3"><path d=" M 2263.86 1585.462 C 2266.445 1577.099 2267.799 1568.204 2267.799 1558.996 C 2267.799 1508.169 2226.534 1466.904 2175.707 1466.904 C 2124.881 1466.904 2083.616 1508.169 2083.616 1558.996 C 2083.616 1568.204 2084.97 1577.099 2087.555 1585.462 L 2263.86 1585.462 L 2263.86 1585.462 Z " fill="url(#_lgradient_97)"/></clipPath><g clip-path="url(#_clipPath_bWLjV57IkV0rTE3CFUvKhNc1OZgGlZE3)"><path d=" M 2175.707 1616.722 C 2186.664 1588.631 2218.446 1576.413 2258.59 1579.886 C 2249.327 1620.967 2219.684 1642.486 2175.707 1644.35 C 2131.295 1644.081 2102.674 1622.624 2089.755 1579.886 C 2127.723 1567.015 2154.358 1579.325 2175.707 1616.722 Z " fill="rgb(82,97,44)"/></g><linearGradient id="_lgradient_98" x1="0" y1="0.5" x2="1" y2="0.5" gradientTransform="matrix(184.184,0,0,184.184,1320.247,1356.394)" gradientUnits="userSpaceOnUse"><stop offset="0.43478260869565216%" stop-opacity="1" style="stop-color:rgb(146,131,48)"/><stop offset="98.26086956521739%" stop-opacity="1" style="stop-color:rgb(125,124,51)"/></linearGradient><circle vector-effect="non-scaling-stroke" cx="1412.338783012937" cy="1448.4860739159215" r="92.09175258065648" fill="url(#_lgradient_98)"/><clipPath id="_clipPath_2HquYYnV8ei3WvU0c8eyitPNxHA3Zx9W"><circle vector-effect="non-scaling-stroke" cx="1412.338783012937" cy="1448.4860739159215" r="92.09175258065648" fill="url(#_lgradient_98)"/></clipPath><g clip-path="url(#_clipPath_2HquYYnV8ei3WvU0c8eyitPNxHA3Zx9W)"><path d=" M 1412.339 1506.212 C 1423.295 1478.121 1455.077 1465.903 1495.221 1469.376 C 1485.959 1510.457 1456.315 1531.976 1412.339 1533.84 C 1367.926 1533.571 1339.306 1512.114 1326.386 1469.376 C 1364.354 1456.505 1390.989 1468.815 1412.339 1506.212 Z " fill="rgb(82,97,44)"/></g><linearGradient id="_lgradient_99" x1="0" y1="0.5" x2="1" y2="0.5" gradientTransform="matrix(184.184,0,0,118.558,2786.583,1466.904)" gradientUnits="userSpaceOnUse"><stop offset="0.43478260869565216%" stop-opacity="1" style="stop-color:rgb(146,131,48)"/><stop offset="98.26086956521739%" stop-opacity="1" style="stop-color:rgb(125,124,51)"/></linearGradient><path d=" M 2966.827 1585.462 C 2969.412 1577.099 2970.766 1568.204 2970.766 1558.996 C 2970.766 1508.169 2929.501 1466.904 2878.674 1466.904 C 2827.848 1466.904 2786.583 1508.169 2786.583 1558.996 C 2786.583 1568.204 2787.937 1577.099 2790.522 1585.462 L 2966.827 1585.462 L 2966.827 1585.462 Z " fill="url(#_lgradient_99)"/><clipPath id="_clipPath_Gzcf75u3Mc6RFxSO5WwYxjFXnkTE9qES"><path d=" M 2966.827 1585.462 C 2969.412 1577.099 2970.766 1568.204 2970.766 1558.996 C 2970.766 1508.169 2929.501 1466.904 2878.674 1466.904 C 2827.848 1466.904 2786.583 1508.169 2786.583 1558.996 C 2786.583 1568.204 2787.937 1577.099 2790.522 1585.462 L 2966.827 1585.462 L 2966.827 1585.462 Z " fill="url(#_lgradient_99)"/></clipPath><g clip-path="url(#_clipPath_Gzcf75u3Mc6RFxSO5WwYxjFXnkTE9qES)"><path d=" M 2878.674 1616.722 C 2889.631 1588.631 2921.413 1576.413 2961.557 1579.886 C 2952.294 1620.967 2922.651 1642.486 2878.674 1644.35 C 2834.262 1644.081 2805.642 1622.624 2792.722 1579.886 C 2830.69 1567.015 2857.325 1579.325 2878.674 1616.722 Z " fill="rgb(82,97,44)"/></g><linearGradient id="_lgradient_100" x1="0" y1="0.5" x2="1" y2="0.5" gradientTransform="matrix(184.184,0,0,184.184,3102.764,1230.536)" gradientUnits="userSpaceOnUse"><stop offset="0.43478260869565216%" stop-opacity="1" style="stop-color:rgb(146,131,48)"/><stop offset="98.26086956521739%" stop-opacity="1" style="stop-color:rgb(125,124,51)"/></linearGradient><circle vector-effect="non-scaling-stroke" cx="3194.856153947203" cy="1322.6273453890249" r="92.09175258065625" fill="url(#_lgradient_100)"/><clipPath id="_clipPath_3kVPw8CwJXBJuQvT1BO6YOUSIxGJso8V"><circle vector-effect="non-scaling-stroke" cx="3194.856153947203" cy="1322.6273453890249" r="92.09175258065625" fill="url(#_lgradient_100)"/></clipPath><g clip-path="url(#_clipPath_3kVPw8CwJXBJuQvT1BO6YOUSIxGJso8V)"><path d=" M 3194.856 1380.354 C 3205.813 1352.262 3237.595 1340.044 3277.739 1343.517 C 3268.476 1384.598 3238.833 1406.117 3194.856 1407.981 C 3150.443 1407.712 3121.823 1386.255 3108.904 1343.517 C 3146.872 1330.647 3173.507 1342.956 3194.856 1380.354 Z " fill="rgb(82,97,44)"/></g><linearGradient id="_lgradient_101" x1="0" y1="0.5" x2="1" y2="0.5" gradientTransform="matrix(184.184,0,0,184.184,1667.126,1230.536)" gradientUnits="userSpaceOnUse"><stop offset="0.43478260869565216%" stop-opacity="1" style="stop-color:rgb(146,131,48)"/><stop offset="98.26086956521739%" stop-opacity="1" style="stop-color:rgb(125,124,51)"/></linearGradient><circle vector-effect="non-scaling-stroke" cx="1759.2177177334079" cy="1322.6273453890249" r="92.09175258065625" fill="url(#_lgradient_101)"/><clipPath id="_clipPath_prslldE8X0aNSzAnmluGDeCWwHtbbJyL"><circle vector-effect="non-scaling-stroke" cx="1759.2177177334079" cy="1322.6273453890249" r="92.09175258065625" fill="url(#_lgradient_101)"/></clipPath><g clip-path="url(#_clipPath_prslldE8X0aNSzAnmluGDeCWwHtbbJyL)"><path d=" M 1759.218 1380.354 C 1770.174 1352.262 1801.956 1340.044 1842.1 1343.517 C 1832.838 1384.598 1803.194 1406.117 1759.218 1407.981 C 1714.805 1407.712 1686.185 1386.255 1673.265 1343.517 C 1711.233 1330.647 1737.868 1342.956 1759.218 1380.354 Z " fill="rgb(82,97,44)"/></g><linearGradient id="_lgradient_102" x1="0" y1="0.5" x2="1" y2="0.5" gradientTransform="matrix(184.184,0,0,184.184,1946.471,1264.303)" gradientUnits="userSpaceOnUse"><stop offset="0.43478260869565216%" stop-opacity="1" style="stop-color:rgb(146,131,48)"/><stop offset="98.26086956521739%" stop-opacity="1" style="stop-color:rgb(125,124,51)"/></linearGradient><circle vector-effect="non-scaling-stroke" cx="2038.562700561402" cy="1356.3943213352654" r="92.09175258065625" fill="url(#_lgradient_102)"/><clipPath id="_clipPath_t6Cw38beYwXLuw26euPFOSqCqgq0zj6X"><circle vector-effect="non-scaling-stroke" cx="2038.562700561402" cy="1356.3943213352654" r="92.09175258065625" fill="url(#_lgradient_102)"/></clipPath><g clip-path="url(#_clipPath_t6Cw38beYwXLuw26euPFOSqCqgq0zj6X)"><path d=" M 2038.563 1414.121 C 2049.519 1386.029 2081.301 1373.811 2121.445 1377.284 C 2112.183 1418.365 2082.539 1439.884 2038.563 1441.748 C 1994.15 1441.479 1965.53 1420.022 1952.61 1377.284 C 1990.578 1364.414 2017.213 1376.723 2038.563 1414.121 Z " fill="rgb(82,97,44)"/></g><linearGradient id="_lgradient_103" x1="0" y1="0.5" x2="1" y2="0.5" gradientTransform="matrix(184.184,0,0,184.184,2244.234,1322.627)" gradientUnits="userSpaceOnUse"><stop offset="0.43478260869565216%" stop-opacity="1" style="stop-color:rgb(146,131,48)"/><stop offset="98.26086956521739%" stop-opacity="1" style="stop-color:rgb(125,124,51)"/></linearGradient><circle vector-effect="non-scaling-stroke" cx="2336.3260339055214" cy="1414.719097969681" r="92.09175258065625" fill="url(#_lgradient_103)"/><clipPath id="_clipPath_7TMHoCCzapzQxZfQctHp1OiofW0RKPoh"><circle vector-effect="non-scaling-stroke" cx="2336.3260339055214" cy="1414.719097969681" r="92.09175258065625" fill="url(#_lgradient_103)"/></clipPath><g clip-path="url(#_clipPath_7TMHoCCzapzQxZfQctHp1OiofW0RKPoh)"><path d=" M 2336.326 1472.445 C 2347.283 1444.354 2379.065 1432.136 2419.209 1435.609 C 2409.946 1476.69 2380.303 1498.209 2336.326 1500.073 C 2291.913 1499.804 2263.293 1478.347 2250.374 1435.609 C 2288.342 1422.738 2314.977 1435.048 2336.326 1472.445 Z " fill="rgb(82,97,44)"/></g><linearGradient id="_lgradient_104" x1="0" y1="0.5" x2="1" y2="0.5" gradientTransform="matrix(184.184,0,0,184.184,2537.935,1374.813)" gradientUnits="userSpaceOnUse"><stop offset="0.43478260869565216%" stop-opacity="1" style="stop-color:rgb(146,131,48)"/><stop offset="98.26086956521739%" stop-opacity="1" style="stop-color:rgb(125,124,51)"/></linearGradient><circle vector-effect="non-scaling-stroke" cx="2630.0267381191743" cy="1466.9044244320535" r="92.09175258065625" fill="url(#_lgradient_104)"/><clipPath id="_clipPath_7XmCYoRNN2Mko2XLjjHLRarAjdGApDH2"><circle vector-effect="non-scaling-stroke" cx="2630.0267381191743" cy="1466.9044244320535" r="92.09175258065625" fill="url(#_lgradient_104)"/></clipPath><g clip-path="url(#_clipPath_7XmCYoRNN2Mko2XLjjHLRarAjdGApDH2)"><path d=" M 2630.027 1524.631 C 2640.983 1496.539 2672.765 1484.321 2712.909 1487.794 C 2703.647 1528.875 2674.003 1550.394 2630.027 1552.258 C 2585.614 1551.989 2556.994 1530.532 2544.074 1487.794 C 2582.042 1474.924 2608.677 1487.233 2630.027 1524.631 Z " fill="rgb(82,97,44)"/></g><path d=" M 2374.697 631.24 L 2374.187 628.096 C 1887.06 537.454 1517.608 543.532 1266.016 646.514 L 1266.016 646.514 C 1169.57 701.478 1175.679 776.144 1284.434 870.604 C 1360.773 1208.648 1542.688 1370.259 1830.363 1355.621 C 2150.203 1351.343 2342.736 1189.376 2408.163 869.928 C 2459.692 818.96 2508.356 819.128 2554.336 870.604 L 2555.642 862.012 C 2619.478 1186.712 2812.536 1351.308 3134.997 1355.621 C 3422.672 1370.259 3604.587 1208.648 3680.925 870.604 C 3789.681 776.144 3795.79 701.478 3699.344 646.514 L 3699.344 646.514 C 3447.752 543.532 3078.3 537.454 2591.173 628.096 L 2591.173 628.096 C 2519.474 640.751 2447.254 641.738 2374.697 631.24 Z " fill-rule="evenodd" fill="rgb(8,46,28)"/></g></g></svg>