<svg height="3753.112" viewBox="1198 -2167.65 2672 3753.112" width="2672" xmlns="http://www.w3.org/2000/svg" xmlns:xlink="http://www.w3.org/1999/xlink"><clipPath id="a"><path d="m1198-2167.65h2672v3753.112h-2672z"/></clipPath><linearGradient id="b" gradientTransform="matrix(560.82 -435.796 1081.163 1391.333 1335.13 -1194.479)" gradientUnits="userSpaceOnUse" x1="1.377389" x2=".103731" y1=".179443" y2=".980836"><stop offset=".03043478261" stop-color="#51973e"/><stop offset=".98695652174" stop-color="#476f3e"/></linearGradient><linearGradient id="c" gradientTransform="matrix(1175.604 -913.527 1165.924 1500.41 1341.924 -1289.172)" gradientUnits="userSpaceOnUse" x1=".045775" x2=".982166" y1=".893375" y2=".035339"><stop offset=".00869565217" stop-color="#5caa43"/><stop offset="1" stop-color="#3b5738"/></linearGradient><linearGradient id="d" gradientTransform="matrix(1493.138 -1160.273 956.848 1231.354 1620.075 -1017.896)" gradientUnits="userSpaceOnUse" x1=".001798" x2=".957372" y1=".903858" y2=".059108"><stop offset=".01739130435" stop-color="#5ba743"/><stop offset="1" stop-color="#478d3d"/></linearGradient><linearGradient id="e"><stop offset=".00434782609" stop-color="#928330"/><stop offset=".98260869565" stop-color="#7d7c33"/></linearGradient><linearGradient id="f" gradientUnits="userSpaceOnUse" x1="1392.928" x2="1577.112" xlink:href="#e" y1="1170.825" y2="1170.825"/><clipPath id="g"><circle cx="1485.019281" cy="1170.825238" r="92.091753"/></clipPath><linearGradient id="h" gradientUnits="userSpaceOnUse" x1="2845.9" x2="3030.084" xlink:href="#e" y1="1304.209" y2="1304.209"/><clipPath id="i"><circle cx="2937.992151" cy="1304.208995" r="92.091753"/></clipPath><linearGradient id="j" gradientUnits="userSpaceOnUse" x1="3425.086" x2="3609.27" xlink:href="#e" y1="1281.336" y2="1281.336"/><clipPath id="k"><circle cx="3517.177288" cy="1281.335341" r="92.091753"/></clipPath><linearGradient id="l" gradientUnits="userSpaceOnUse" x1="2568.632" x2="2752.816" xlink:href="#e" y1="1212.117" y2="1212.117"/><clipPath id="m"><circle cx="2660.723989" cy="1212.117242" r="92.091753"/></clipPath><linearGradient id="n" gradientUnits="userSpaceOnUse" x1="2224.823" x2="2409.007" xlink:href="#e" y1="1172.211" y2="1172.211"/><clipPath id="o"><circle cx="2316.914779" cy="1172.210816" r="92.091753"/></clipPath><linearGradient id="p" gradientUnits="userSpaceOnUse" x1="2384.449" x2="2568.633" xlink:href="#e" y1="954.261" y2="954.261"/><clipPath id="q"><circle cx="2476.540484" cy="954.260335" r="92.091753"/></clipPath><linearGradient id="r" gradientUnits="userSpaceOnUse" x1="3065.928" x2="3250.112" xlink:href="#e" y1="585.894" y2="585.894"/><clipPath id="s"><circle cx="3158.019453" cy="585.893325" r="92.091753"/></clipPath><linearGradient id="t" gradientUnits="userSpaceOnUse" x1="2801.931" x2="2986.115" xlink:href="#e" y1="585.894" y2="585.894"/><clipPath id="u"><circle cx="2894.023096" cy="585.893325" r="92.091753"/></clipPath><linearGradient id="v" gradientUnits="userSpaceOnUse" x1="2295.427" x2="2479.611" xlink:href="#e" y1="699.473" y2="699.473"/><clipPath id="w"><circle cx="2387.518456" cy="699.473153" r="92.091753"/></clipPath><linearGradient id="x" gradientUnits="userSpaceOnUse" x1="1976.175" x2="2160.359" xlink:href="#e" y1="607.382" y2="607.382"/><clipPath id="y"><circle cx="2068.267047" cy="607.3814" r="92.091753"/></clipPath><linearGradient id="z" gradientUnits="userSpaceOnUse" x1="1739.806" x2="1923.99" xlink:href="#e" y1="493.802" y2="493.802"/><clipPath id="A"><circle cx="1831.898216" cy="493.801572" r="92.091753"/></clipPath><linearGradient id="B" gradientUnits="userSpaceOnUse" x1="2537.935" x2="2722.119" xlink:href="#e" y1="493.802" y2="493.802"/><clipPath id="C"><circle cx="2630.026738" cy="493.801572" r="92.091753"/></clipPath><linearGradient id="D" gradientUnits="userSpaceOnUse" x1="2224.823" x2="2409.007" xlink:href="#e" y1="463.105" y2="463.105"/><clipPath id="E"><circle cx="2316.914779" cy="463.104321" r="92.091753"/></clipPath><linearGradient id="F" gradientUnits="userSpaceOnUse" x1="1957.757" x2="2141.941" xlink:href="#e" y1="309.618" y2="309.618"/><clipPath id="G"><circle cx="2049.848697" cy="309.618067" r="92.091753"/></clipPath><linearGradient id="H" gradientUnits="userSpaceOnUse" x1="2224.823" x2="2409.007" xlink:href="#e" y1="235.945" y2="235.945"/><clipPath id="I"><circle cx="2316.914779" cy="235.944665" r="92.091753"/></clipPath><linearGradient id="J" gradientUnits="userSpaceOnUse" x1="2568.632" x2="2752.816" xlink:href="#e" y1="260.503" y2="260.503"/><clipPath id="K"><circle cx="2660.723989" cy="260.502466" r="92.091753"/></clipPath><linearGradient id="L" gradientUnits="userSpaceOnUse" x1="2851.047" x2="3035.231" xlink:href="#e" y1="352.594" y2="352.594"/><clipPath id="M"><circle cx="2943.138697" cy="352.594218" r="92.091753"/></clipPath><linearGradient id="N" gradientTransform="matrix(184.184 0 0 118.558 1799.097 1466.904)" gradientUnits="userSpaceOnUse" x1="0" x2="1" xlink:href="#e" y1=".5" y2=".5"/><clipPath id="O"><path d="m1979.342 1585.462c2.585-8.363 3.939-17.258 3.939-26.466 0-50.827-41.265-92.092-92.092-92.092s-92.092 41.265-92.092 92.092c0 9.208 1.355 18.103 3.94 26.466z"/></clipPath><linearGradient id="P" gradientTransform="matrix(184.184 0 0 136.976 1537.205 1448.486)" gradientUnits="userSpaceOnUse" x1="0" x2="1" xlink:href="#e" y1=".5" y2=".5"/><clipPath id="Q"><path d="m1709.639 1585.462c7.502-13.257 11.749-28.578 11.749-44.884 0-50.827-41.265-92.092-92.092-92.092-50.826 0-92.091 41.265-92.091 92.092 0 16.306 4.247 31.627 11.749 44.884z"/></clipPath><linearGradient id="R" gradientTransform="matrix(158.161 0 0 44.884 2366.763 1540.578)" gradientUnits="userSpaceOnUse" x1="0" x2="1" xlink:href="#e" y1=".5" y2=".5"/><clipPath id="S"><path d="m2524.924 1585.462c-16.097-26.874-45.502-44.884-79.081-44.884-33.578 0-62.984 18.01-79.08 44.884z"/></clipPath><linearGradient id="T" gradientUnits="userSpaceOnUse" x1="3286.948" x2="3471.132" xlink:href="#e" y1="1488.393" y2="1488.393"/><clipPath id="U"><circle cx="3379.039659" cy="1488.3925" r="92.091753"/></clipPath><linearGradient id="V" gradientTransform="matrix(182.879 0 0 81.721 3517.83 1503.741)" gradientUnits="userSpaceOnUse" x1="0" x2="1" xlink:href="#e" y1=".5" y2=".5"/><clipPath id="W"><path d="m3700.708 1585.462c-5.097-45.963-44.125-81.721-91.439-81.721s-86.342 35.758-91.439 81.721z"/></clipPath><linearGradient id="X" gradientTransform="matrix(184.184 0 0 118.558 3035.231 1466.904)" gradientUnits="userSpaceOnUse" x1="0" x2="1" xlink:href="#e" y1=".5" y2=".5"/><clipPath id="Y"><path d="m3215.474 1585.462c2.586-8.363 3.94-17.258 3.94-26.466 0-50.827-41.265-92.092-92.092-92.092s-92.091 41.265-92.091 92.092c0 9.208 1.354 18.103 3.939 26.466z"/></clipPath><linearGradient id="Z" gradientTransform="matrix(184.184 0 0 118.558 2083.616 1466.904)" gradientUnits="userSpaceOnUse" x1="0" x2="1" xlink:href="#e" y1=".5" y2=".5"/><clipPath id="aa"><path d="m2263.86 1585.462c2.585-8.363 3.939-17.258 3.939-26.466 0-50.827-41.265-92.092-92.092-92.092-50.826 0-92.091 41.265-92.091 92.092 0 9.208 1.354 18.103 3.939 26.466z"/></clipPath><linearGradient id="ab" gradientUnits="userSpaceOnUse" x1="1320.247" x2="1504.431" xlink:href="#e" y1="1448.486" y2="1448.486"/><clipPath id="ac"><circle cx="1412.338783" cy="1448.486074" r="92.091753"/></clipPath><linearGradient id="ad" gradientTransform="matrix(184.184 0 0 118.558 2786.583 1466.904)" gradientUnits="userSpaceOnUse" x1="0" x2="1" xlink:href="#e" y1=".5" y2=".5"/><clipPath id="ae"><path d="m2966.827 1585.462c2.585-8.363 3.939-17.258 3.939-26.466 0-50.827-41.265-92.092-92.092-92.092-50.826 0-92.091 41.265-92.091 92.092 0 9.208 1.354 18.103 3.939 26.466z"/></clipPath><linearGradient id="af" gradientUnits="userSpaceOnUse" x1="3102.764" x2="3286.948" xlink:href="#e" y1="1322.628" y2="1322.628"/><clipPath id="ag"><circle cx="3194.856154" cy="1322.627345" r="92.091753"/></clipPath><linearGradient id="ah" gradientUnits="userSpaceOnUse" x1="1667.126" x2="1851.31" xlink:href="#e" y1="1322.628" y2="1322.628"/><clipPath id="ai"><circle cx="1759.217718" cy="1322.627345" r="92.091753"/></clipPath><linearGradient id="aj" gradientUnits="userSpaceOnUse" x1="1946.471" x2="2130.655" xlink:href="#e" y1="1356.395" y2="1356.395"/><clipPath id="ak"><circle cx="2038.562701" cy="1356.394321" r="92.091753"/></clipPath><linearGradient id="al" gradientUnits="userSpaceOnUse" x1="2244.234" x2="2428.418" xlink:href="#e" y1="1414.719" y2="1414.719"/><clipPath id="am"><circle cx="2336.326034" cy="1414.719098" r="92.091753"/></clipPath><linearGradient id="an" gradientUnits="userSpaceOnUse" x1="2537.935" x2="2722.119" xlink:href="#e" y1="1466.905" y2="1466.905"/><clipPath id="ao"><circle cx="2630.026738" cy="1466.904424" r="92.091753"/></clipPath><g clip-path="url(#a)"><path d="m1198-2167.65h2672v3753.112h-2672z" fill="none"/><path d="m1417.191-63.286c503.477-302.796 766.798-337.58 903.183 211.746l-204.922 81.487c77.314-277.235-440.731-338.576-698.261-293.233z" fill="#5aa744"/><path d="m1340.938-536.631c539.505-230.329 1168.735-109.721 1079.685 700.492l-209.739 15.254c-28.331-484.295-407.146-614.855-869.946-715.746z" fill="#4f943e"/><path d="m1533.892-1348.93c978.106-80.767 923.973 544.669 952.695 1491.161l-96.663 20.689c-219.207-896.594-457.668-1400.497-856.032-1511.85z" fill="url(#b)"/><path d="m2529.071-2142.399c131.432 686.615 149.298 1474.947 41.799 2304.664l-104.461-4.354c-220.904-618.721-203.822-1405.586 35.284-2301.292 8.74-32.739 21.007-32.298 27.378.982z" fill="url(#c)"/><path d="m3116.3-2116.852c8.481 168.494 17.062 518.475-24.176 752.026-100.658 570.071-485.405 1000.087-488.537 1557.565l-69.985-35.031c-253.361-1143.676 292.257-1905.802 545.503-2284.829 18.825-28.174 35.491-23.573 37.195 10.269z" fill="url(#d)"/><path d="m2543.02 169.827c281.005-848.731 521.206-1675.423 1259.9-1585.494-307.859 233.066-706.83 763.469-1197.172 1591.176z" fill="#5a8c3e"/><path d="m2583.595 180.44c195.366-592.426 592.784-969.889 1119.992-1185.207l-855.074 1200.939z" fill="#539d41"/><path d="m2657.142 171.671c427.527-443.523 831.899-416.86 1212.858 79.959-410.887-119.564-687.832-247.646-918.637 33.518z" fill="#5ea743"/><path d="m3683.395 1585.462c-41.263-804.506-564.852-1441.609-1203.785-1441.609s-1162.521 637.103-1203.785 1441.609z" fill="#668539"/><circle cx="1485.019281" cy="1170.825238" fill="url(#f)" r="92.091753"/><g clip-path="url(#g)"><path d="m1485.019 1228.552c10.957-28.092 42.739-40.31 82.883-36.837-9.263 41.081-38.906 62.6-82.883 64.464-44.413-.269-73.033-21.726-85.952-64.464 37.968-12.871 64.603-.561 85.952 36.837z" fill="#52612c"/></g><circle cx="2937.992151" cy="1304.208995" fill="url(#h)" r="92.091753"/><g clip-path="url(#i)"><path d="m2937.992 1361.935c10.957-28.092 42.739-40.309 82.883-36.836-9.263 41.081-38.906 62.6-82.883 64.464-44.413-.269-73.033-21.727-85.952-64.464 37.968-12.871 64.603-.561 85.952 36.836z" fill="#52612c"/></g><circle cx="3517.177288" cy="1281.335341" fill="url(#j)" r="92.091753"/><g clip-path="url(#k)"><path d="m3517.177 1339.062c10.957-28.092 42.739-40.31 82.883-36.837-9.263 41.081-38.906 62.6-82.883 64.464-44.413-.269-73.033-21.726-85.952-64.464 37.968-12.87 64.603-.561 85.952 36.837z" fill="#52612c"/></g><circle cx="2660.723989" cy="1212.117242" fill="url(#l)" r="92.091753"/><g clip-path="url(#m)"><path d="m2660.724 1269.844c10.957-28.092 42.738-40.31 82.883-36.837-9.263 41.081-38.906 62.6-82.883 64.464-44.413-.269-73.033-21.726-85.952-64.464 37.968-12.87 64.603-.561 85.952 36.837z" fill="#52612c"/></g><circle cx="2316.914779" cy="1172.210816" fill="url(#n)" r="92.091753"/><g clip-path="url(#o)"><path d="m2316.915 1229.937c10.956-28.092 42.738-40.309 82.882-36.837-9.262 41.082-38.906 62.6-82.882 64.465-44.413-.269-73.033-21.727-85.953-64.465 37.968-12.87 64.603-.56 85.953 36.837z" fill="#52612c"/></g><circle cx="2476.540484" cy="954.260335" fill="url(#p)" r="92.091753"/><g clip-path="url(#q)"><path d="m2476.54 1011.987c10.957-28.092 42.739-40.31 82.883-36.837-9.263 41.081-38.906 62.6-82.883 64.464-44.412-.269-73.032-21.726-85.952-64.464 37.968-12.87 64.603-.561 85.952 36.837z" fill="#52612c"/></g><circle cx="3158.019453" cy="585.893325" fill="url(#r)" r="92.091753"/><g clip-path="url(#s)"><path d="m3158.019 643.62c10.957-28.092 42.739-40.31 82.883-36.837-9.263 41.081-38.906 62.6-82.883 64.464-44.412-.269-73.032-21.726-85.952-64.464 37.968-12.87 64.603-.561 85.952 36.837z" fill="#52612c"/></g><circle cx="2894.023096" cy="585.893325" fill="url(#t)" r="92.091753"/><g clip-path="url(#u)"><path d="m2894.023 643.62c10.957-28.092 42.739-40.31 82.883-36.837-9.263 41.081-38.906 62.6-82.883 64.464-44.413-.269-73.033-21.726-85.952-64.464 37.968-12.87 64.603-.561 85.952 36.837z" fill="#52612c"/></g><circle cx="2387.518456" cy="699.473153" fill="url(#v)" r="92.091753"/><g clip-path="url(#w)"><path d="m2387.518 757.199c10.957-28.091 42.739-40.309 82.883-36.836-9.263 41.081-38.906 62.6-82.883 64.464-44.412-.269-73.032-21.726-85.952-64.464 37.968-12.871 64.603-.561 85.952 36.836z" fill="#52612c"/></g><circle cx="2068.267047" cy="607.3814" fill="url(#x)" r="92.091753"/><g clip-path="url(#y)"><path d="m2068.267 665.108c10.957-28.092 42.739-40.31 82.883-36.837-9.263 41.081-38.906 62.6-82.883 64.464-44.413-.269-73.033-21.726-85.952-64.464 37.968-12.87 64.603-.561 85.952 36.837z" fill="#52612c"/></g><circle cx="1831.898216" cy="493.801572" fill="url(#z)" r="92.091753"/><g clip-path="url(#A)"><path d="m1831.898 551.528c10.957-28.092 42.739-40.309 82.883-36.837-9.263 41.081-38.906 62.6-82.883 64.464-44.413-.269-73.033-21.726-85.952-64.464 37.968-12.87 64.603-.561 85.952 36.837z" fill="#52612c"/></g><circle cx="2630.026738" cy="493.801572" fill="url(#B)" r="92.091753"/><g clip-path="url(#C)"><path d="m2630.027 551.528c10.956-28.092 42.738-40.309 82.882-36.837-9.262 41.081-38.906 62.6-82.882 64.464-44.413-.269-73.033-21.726-85.953-64.464 37.968-12.87 64.603-.561 85.953 36.837z" fill="#52612c"/></g><circle cx="2316.914779" cy="463.104321" fill="url(#D)" r="92.091753"/><g clip-path="url(#E)"><path d="m2316.915 520.831c10.956-28.092 42.738-40.31 82.882-36.837-9.262 41.081-38.906 62.6-82.882 64.464-44.413-.269-73.033-21.726-85.953-64.464 37.968-12.87 64.603-.561 85.953 36.837z" fill="#52612c"/></g><circle cx="2049.848697" cy="309.618067" fill="url(#F)" r="92.091753"/><g clip-path="url(#G)"><path d="m2049.849 367.344c10.956-28.091 42.738-40.309 82.882-36.836-9.262 41.081-38.906 62.6-82.882 64.464-44.413-.269-73.033-21.726-85.953-64.464 37.968-12.871 64.603-.561 85.953 36.836z" fill="#52612c"/></g><circle cx="2316.914779" cy="235.944665" fill="url(#H)" r="92.091753"/><g clip-path="url(#I)"><path d="m2316.915 293.671c10.956-28.092 42.738-40.309 82.882-36.837-9.262 41.082-38.906 62.6-82.882 64.464-44.413-.268-73.033-21.726-85.953-64.464 37.968-12.87 64.603-.56 85.953 36.837z" fill="#52612c"/></g><circle cx="2660.723989" cy="260.502466" fill="url(#J)" r="92.091753"/><g clip-path="url(#K)"><path d="m2660.724 318.229c10.957-28.092 42.738-40.31 82.883-36.837-9.263 41.081-38.906 62.6-82.883 64.464-44.413-.269-73.033-21.726-85.952-64.464 37.968-12.87 64.603-.561 85.952 36.837z" fill="#52612c"/></g><circle cx="2943.138697" cy="352.594218" fill="url(#L)" r="92.091753"/><g clip-path="url(#M)"><path d="m2943.139 410.321c10.956-28.092 42.738-40.31 82.882-36.837-9.262 41.081-38.906 62.6-82.882 64.464-44.413-.269-73.033-21.726-85.953-64.464 37.968-12.871 64.603-.561 85.953 36.837z" fill="#52612c"/></g><path d="m1979.342 1585.462c2.585-8.363 3.939-17.258 3.939-26.466 0-50.827-41.265-92.092-92.092-92.092s-92.092 41.265-92.092 92.092c0 9.208 1.355 18.103 3.94 26.466z" fill="url(#N)"/><g clip-path="url(#O)"><path d="m1891.189 1616.722c10.957-28.091 42.739-40.309 82.883-36.836-9.263 41.081-38.906 62.6-82.883 64.464-44.413-.269-73.033-21.726-85.952-64.464 37.968-12.871 64.603-.561 85.952 36.836z" fill="#52612c"/></g><path d="m1709.639 1585.462c7.502-13.257 11.749-28.578 11.749-44.884 0-50.827-41.265-92.092-92.092-92.092-50.826 0-92.091 41.265-92.091 92.092 0 16.306 4.247 31.627 11.749 44.884z" fill="url(#P)"/><g clip-path="url(#Q)"><path d="m1629.296 1598.304c10.957-28.092 42.739-40.309 82.883-36.837-9.263 41.082-38.906 62.601-82.883 64.465-44.413-.269-73.033-21.727-85.952-64.465 37.968-12.87 64.603-.56 85.952 36.837z" fill="#52612c"/></g><path d="m2524.924 1585.462c-16.097-26.874-45.502-44.884-79.081-44.884-33.578 0-62.984 18.01-79.08 44.884z" fill="url(#R)"/><g clip-path="url(#S)"><path d="m2445.843 1690.396c10.957-28.092 42.739-40.309 82.883-36.837-9.263 41.081-38.906 62.6-82.883 64.464-44.413-.269-73.033-21.726-85.952-64.464 37.968-12.87 64.603-.561 85.952 36.837z" fill="#52612c"/></g><circle cx="3379.039659" cy="1488.3925" fill="url(#T)" r="92.091753"/><g clip-path="url(#U)"><path d="m3379.04 1546.119c10.956-28.092 42.738-40.31 82.882-36.837-9.262 41.081-38.906 62.6-82.882 64.464-44.413-.269-73.033-21.726-85.953-64.464 37.968-12.87 64.603-.561 85.953 36.837z" fill="#52612c"/></g><path d="m3700.708 1585.462c-5.097-45.963-44.125-81.721-91.439-81.721s-86.342 35.758-91.439 81.721z" fill="url(#V)"/><g clip-path="url(#W)"><path d="m3609.269 1653.559c10.957-28.092 42.739-40.309 82.883-36.837-9.263 41.082-38.906 62.601-82.883 64.465-44.413-.269-73.033-21.727-85.952-64.465 37.968-12.87 64.603-.56 85.952 36.837z" fill="#52612c"/></g><path d="m3215.474 1585.462c2.586-8.363 3.94-17.258 3.94-26.466 0-50.827-41.265-92.092-92.092-92.092s-92.091 41.265-92.091 92.092c0 9.208 1.354 18.103 3.939 26.466z" fill="url(#X)"/><g clip-path="url(#Y)"><path d="m3127.322 1616.722c10.957-28.091 42.739-40.309 82.883-36.836-9.263 41.081-38.906 62.6-82.883 64.464-44.413-.269-73.033-21.726-85.952-64.464 37.968-12.871 64.603-.561 85.952 36.836z" fill="#52612c"/></g><path d="m2263.86 1585.462c2.585-8.363 3.939-17.258 3.939-26.466 0-50.827-41.265-92.092-92.092-92.092-50.826 0-92.091 41.265-92.091 92.092 0 9.208 1.354 18.103 3.939 26.466z" fill="url(#Z)"/><g clip-path="url(#aa)"><path d="m2175.707 1616.722c10.957-28.091 42.739-40.309 82.883-36.836-9.263 41.081-38.906 62.6-82.883 64.464-44.412-.269-73.033-21.726-85.952-64.464 37.968-12.871 64.603-.561 85.952 36.836z" fill="#52612c"/></g><circle cx="1412.338783" cy="1448.486074" fill="url(#ab)" r="92.091753"/><g clip-path="url(#ac)"><path d="m1412.339 1506.212c10.956-28.091 42.738-40.309 82.882-36.836-9.262 41.081-38.906 62.6-82.882 64.464-44.413-.269-73.033-21.726-85.953-64.464 37.968-12.871 64.603-.561 85.953 36.836z" fill="#52612c"/></g><path d="m2966.827 1585.462c2.585-8.363 3.939-17.258 3.939-26.466 0-50.827-41.265-92.092-92.092-92.092-50.826 0-92.091 41.265-92.091 92.092 0 9.208 1.354 18.103 3.939 26.466z" fill="url(#ad)"/><g clip-path="url(#ae)"><path d="m2878.674 1616.722c10.957-28.091 42.739-40.309 82.883-36.836-9.263 41.081-38.906 62.6-82.883 64.464-44.412-.269-73.032-21.726-85.952-64.464 37.968-12.871 64.603-.561 85.952 36.836z" fill="#52612c"/></g><circle cx="3194.856154" cy="1322.627345" fill="url(#af)" r="92.091753"/><g clip-path="url(#ag)"><path d="m3194.856 1380.354c10.957-28.092 42.739-40.31 82.883-36.837-9.263 41.081-38.906 62.6-82.883 64.464-44.413-.269-73.033-21.726-85.952-64.464 37.968-12.87 64.603-.561 85.952 36.837z" fill="#52612c"/></g><circle cx="1759.217718" cy="1322.627345" fill="url(#ah)" r="92.091753"/><g clip-path="url(#ai)"><path d="m1759.218 1380.354c10.956-28.092 42.738-40.31 82.882-36.837-9.262 41.081-38.906 62.6-82.882 64.464-44.413-.269-73.033-21.726-85.953-64.464 37.968-12.87 64.603-.561 85.953 36.837z" fill="#52612c"/></g><circle cx="2038.562701" cy="1356.394321" fill="url(#aj)" r="92.091753"/><g clip-path="url(#ak)"><path d="m2038.563 1414.121c10.956-28.092 42.738-40.31 82.882-36.837-9.262 41.081-38.906 62.6-82.882 64.464-44.413-.269-73.033-21.726-85.953-64.464 37.968-12.87 64.603-.561 85.953 36.837z" fill="#52612c"/></g><circle cx="2336.326034" cy="1414.719098" fill="url(#al)" r="92.091753"/><g clip-path="url(#am)"><path d="m2336.326 1472.445c10.957-28.091 42.739-40.309 82.883-36.836-9.263 41.081-38.906 62.6-82.883 64.464-44.413-.269-73.033-21.726-85.952-64.464 37.968-12.871 64.603-.561 85.952 36.836z" fill="#52612c"/></g><circle cx="2630.026738" cy="1466.904424" fill="url(#an)" r="92.091753"/><g clip-path="url(#ao)"><path d="m2630.027 1524.631c10.956-28.092 42.738-40.31 82.882-36.837-9.262 41.081-38.906 62.6-82.882 64.464-44.413-.269-73.033-21.726-85.953-64.464 37.968-12.87 64.603-.561 85.953 36.837z" fill="#52612c"/></g><path d="m2374.697 631.24-.51-3.144c-487.127-90.642-856.579-84.564-1108.171 18.418-96.446 54.964-90.337 129.63 18.418 224.09 76.339 338.044 258.254 499.655 545.929 485.017 319.84-4.278 512.373-166.245 577.8-485.693 51.529-50.968 100.193-50.8 146.173.676l1.306-8.592c63.836 324.7 256.894 489.296 579.355 493.609 287.675 14.638 469.59-146.973 545.928-485.017 108.756-94.46 114.865-169.126 18.419-224.09-251.592-102.982-621.044-109.06-1108.171-18.418-71.699 12.655-143.919 13.642-216.476 3.144z" fill="#082e1c" fill-rule="evenodd"/></g></svg>