<svg height="2500" viewBox="0 0 2500 2500" width="2500" xmlns="http://www.w3.org/2000/svg" xmlns:xlink="http://www.w3.org/1999/xlink"><clipPath id="a"><path d="m0 0h2500v2500h-2500z"/></clipPath><g clip-path="url(#a)"><path d="m1860.528 2241.416h-1221.063c-104.456 0-189.112-84.656-189.112-189.093v-1604.638c0-104.437 84.663-189.1 189.106-189.1h1221.063c104.437 0 189.125 84.663 189.125 189.1v1604.638c0 104.437-84.688 189.093-189.125 189.093z" fill="#6762a6"/><path d="m1452.603 1968.585v-787.437s51.219-188.438-630.894 77.087c-1.25 3.369-1.25-728.15-1.25-728.15l222.875-1.375v468.694s624.038-245.781 624.038 186.4v784.781h-214.763zm127-1156.212h-236.4c85.094-104.038 162.125-282.294 162.125-282.294h244.438s-41.85 116.169-170.157 282.294zm-755.094 1154.849v-448.424l224.238 224.231z" fill="#fff"/></g></svg>