<svg height="1407.625" viewBox="1331.295 2097 1592.705 1407.625" width="1592.705" xmlns="http://www.w3.org/2000/svg" xmlns:xlink="http://www.w3.org/1999/xlink"><clipPath id="a"><path d="m1331.295 2097h1592.705v1407.625h-1592.705z"/></clipPath><g clip-path="url(#a)"><path d="m2670 3282.948h-756c-228.113-46.359-400-248.242-400-489.954s171.887-443.595 400-489.954v-152.353c-311.346 48.132-550 317.569-550 642.307s238.654 594.175 550 642.307h756v69.324l254-138-254-153z" fill="#78f2a7" fill-rule="evenodd"/><path d="m2221 3446.614c311.346-48.132 550-317.569 550-642.307s-238.654-594.175-550-642.307v152.353c228.113 46.359 400 248.242 400 489.954s-171.887 443.595-400 489.954h-889.705v152.353zm0-1349.614v291l-254-138z" fill="#8afdc6" fill-rule="evenodd"/><path d="m1730.452 2455.703c85.796-68.179 197.269-109.391 319.048-109.391 44.885 0 88.37 5.599 129.686 16.083l.764 8.464-42.574 143.197c-5.591 18.802-2.238 20.234 7.481 3.196 27.305-47.867 59.543-98.625 75.404-124.868 4.322-7.151 11.004-10.177 14.671-12.431 178.895 67.831 305.068 230.8 305.068 420.859 0 250.846-219.786 454.5-490.5 454.5s-490.5-203.654-490.5-454.5c0-121.534 51.592-231.991 135.573-313.575l37.744 15.098zm150.31 345.109c0-95.361 75.609-172.783 168.738-172.783s168.738 77.422 168.738 172.783c0 95.362-75.609 172.784-168.738 172.784s-168.738-77.422-168.738-172.784z" fill="#ffec0a" fill-rule="evenodd"/><path d="m1859.168 2605.784c-41.15-39.442-83.452-75.923-126.851-105.145l-1.187-30.526c92.958 65.354 163.071 131.002 210.287 197.911-3.283 2.823-6.398 5.87-9.497 8.988-23.486-26.811-48.499-47.981-72.752-71.228z" fill="#ffd306"/><path d="m2133.898 2531.165c1.456-2.423 3.643-1.803 5.087-4.24 24.988-42.148 48.896-78.529 63.231-104.328 9.093-16.363 10.715-15.583 3.62 1.74l-88.897 217.061-39.005-11.871c16.622-25.479 34.716-63.005 55.964-98.362z" fill="#ffd306"/><path d="m2189.861 2702.45c65.036-56.66 173.588-107.52 281.514-132.279l18.654 30.526c-80.489 26.189-191.817 75.404-286.601 127.192z" fill="#ffd306"/><path d="m2220.387 2800.812c94.6-1.534 192.463 21.711 293.384 69.532l-3.392 15.263-178.329-42.758-111.663-26.774z" fill="#ffd306"/><path d="m2157.64 2933.092 22.31-22.046c22.741 32.674 38.178 68.46 55.7 96.666 43.323 64.702 76.826 122.214 88.184 169.589l-13.566 8.48c-44.466-89.836-96.439-177.423-152.628-252.689z" fill="#ffd306"/><path d="m2008.404 2968.706 13.567 3.392c-15.873 99.871-38.468 193.727-64.443 274.735l-16.959-3.392c32.111-92.841 55.904-185.499 67.835-274.735z" fill="#ffd306"/><path d="m1901.564 2883.911c2.691 5.819 7.247 13.202 13.567 22.047l-223.854 205.203-10.175-11.871z" fill="#ffd306"/><path d="m1560.568 2784.969.128-2.812q116.101-14.769 237.037-33.917 17.911-2.836 88.569 5.087l-5.088 27.135-96.664-1.696-225.55 40.701z" fill="#ffd306"/><path d="m1994.837 2471.809-40.701-117.017 23.742-3.392c10.459 41.55 40.451 77.218 47.484 115.321 14.621 57.032 10.994 113.055 23.743 161.11l-23.743 1.696z" fill="#ffd306"/><g fill="#fffc03"><path d="m2004.244 2443.91 26.603 167.935h-20.35l-6.649-167.896c-.074-1.87.103-1.888.396-.039z"/><path d="m1841.029 2451.905 115.2 181.987-10.175 8.479-105.199-190.363c-.905-1.638-.827-1.685.174-.103z"/><path d="m1743.643 2584.946 127.745 88.44 23.79 16.471-6.783 8.479-144.868-113.232c-1.475-1.153-1.423-1.224.116-.158z"/><path d="m1652.625 2726.019 213.724 35.065-5.088 15.263-208.685-50.085c-1.82-.437-1.798-.546.049-.243z"/><path d="m1613.568 2904.428 252.781-61.941 3.391 13.567-256.134 48.55c-1.84.348-1.857.27-.038-.176z"/><path d="m1777.428 3009.968 122.838-97.535 6.538 11.457-129.211 86.303c-1.557 1.04-1.631.939-.165-.225z"/><path d="m1850.959 3163.396 105.27-201.724 11.872 8.007-116.959 193.82c-.967 1.603-1.049 1.557-.183-.103z"/><path d="m2101.576 3202.054-31.724-213.72 15.989-1.696 15.982 215.388c.138 1.867.028 1.879-.247.028z"/><path d="m2264.776 3151.655-118.61-189.983 13.567-8.952 105.253 198.814c.875 1.655.782 1.709-.21.121z"/><path d="m2451.466 2874.16-223.898-36.761v-18.654l223.952 55.153c1.818.448 1.794.565-.054.262z"/><path d="m2370.115 2722.874-138.906 33.503v-15.644l138.84-18.213c1.856-.244 1.885-.085.066.354z"/><path d="m2374.115 2551.165-173.681 133.604-8.48-11.383 182.035-122.396c1.553-1.045 1.61-.966.126.175z"/><path d="m2244.644 2440.17-103.65 197.114-11.786-11.383 115.227-185.85c.986-1.591 1.08-1.538.209.119z"/><path d="m2307.796 2974.653-107.362-67.722 11.162-13.567 96.47 80.919c1.435 1.203 1.314 1.369-.27.37z"/></g></g></svg>