<svg height="2500" viewBox="0 0 2500 2500" width="2500" xmlns="http://www.w3.org/2000/svg" xmlns:xlink="http://www.w3.org/1999/xlink"><clipPath id="a"><path d="m0 0h2500v2500h-2500z"/></clipPath><g clip-path="url(#a)"><path d="m2452.696 1496.872c-14.534-44.02-52.608-74.68-101.845-82.037-23.218-3.466-49.806-1.989-81.271 4.497-54.843 11.315-95.53 15.624-125.224 16.457 112.082-189.233 203.218-405.026 255.685-608.159 84.84-328.461 39.503-478.096-13.474-545.779-140.204-179.149-344.758-275.389-591.532-278.334-131.644-1.609-247.21 24.382-307.498 43.074-56.13-9.905-116.484-15.434-179.811-16.457-118.71-1.894-223.595 23.984-313.217 77.17-49.616-16.778-129.249-40.431-221.209-55.524-216.285-35.508-390.605-7.841-518.111 82.236-154.398 109.061-225.972 298.549-212.734 563.201 4.204 84.026 51.207 339.682 125.214 582.139 42.534 139.361 87.889 255.088 134.807 343.999 66.537 126.077 137.732 200.321 217.658 226.985 44.797 14.923 126.19 25.376 211.797-45.923 10.851 13.142 25.329 26.2 44.541 38.329 24.401 15.387 54.237 27.961 84.035 35.413 107.385 26.844 207.972 20.131 293.787-17.498.53 15.264.937 29.846 1.278 42.439.568 20.424 1.137 40.451 1.885 59.18 5.084 126.635 13.701 225.1 39.229 293.995 1.401 3.787 3.285 9.563 5.274 15.69 12.735 38.992 34.03 104.27 88.211 155.391 56.102 52.959 123.965 69.198 186.117 69.198 31.172 0 60.913-4.091 86.999-9.677 92.983-19.932 198.588-50.289 274.982-159.066 72.228-102.83 107.338-257.711 113.692-501.749.823-6.902 1.581-13.493 2.31-19.77l1.515-12.897 17.015 1.496 4.384.294c94.707 4.317 210.51-15.766 281.629-48.802 56.197-26.077 236.283-121.153 193.882-249.511"/><path d="m2290.762 1521.831c-281.601 58.091-300.964-37.25-300.964-37.25 297.318-441.177 421.615-1001.187 314.362-1138.248-292.622-373.873-799.153-197.054-807.608-192.471l-2.718.493c-55.638-11.552-117.895-18.427-187.879-19.572-127.411-2.084-224.068 33.405-297.413 89.025 0 0-903.603-372.255-861.571 468.173 8.938 178.789 256.262 1352.828 551.251 998.214 107.821-129.674 212.006-239.313 212.006-239.313 51.737 34.372 113.681 51.908 178.618 45.611l5.047-4.28c-1.572 16.097-.852 31.844 2.017 50.488-75.996 84.906-53.66 99.81-205.576 131.085-153.725 31.682-63.422 88.078-4.46 102.831 71.48 17.867 236.842 43.186 348.573-113.228l-4.45 17.849c29.769 23.852 50.676 155.126 47.173 274.139-3.503 119.003-5.842 200.709 17.612 264.529 23.473 63.819 46.851 207.412 246.566 164.623 166.868-35.763 253.346-128.434 265.381-283.021 8.531-109.894 27.857-93.646 29.069-191.903l15.5-46.51c17.868-148.972 2.841-197.036 105.643-174.68l24.998 2.197c75.655 3.437 174.698-12.177 232.827-39.191 125.158-58.082 199.393-155.07 75.977-129.59z" fill="#336791"/><g fill="#fff"><path d="m1061.434 771.935c-25.376-3.532-48.357-.265-59.984 8.541-6.534 4.952-8.56 10.69-9.109 14.638-1.459 10.463 5.87 22.034 10.377 27.999 12.745 16.893 31.361 28.501 49.787 31.058 2.67.379 5.331.549 7.973.549 30.726 0 58.668-23.927 61.13-41.587 3.077-22.119-29.031-36.862-60.174-41.189m840.674.691c-2.424-17.337-33.274-22.279-62.551-18.208-29.24 4.072-57.589 17.271-55.222 34.646 1.894 13.512 26.295 36.578 55.175 36.578 2.443 0 4.904-.161 7.385-.511 19.279-2.67 33.425-14.914 40.148-21.968 10.226-10.756 16.153-22.744 15.065-30.537"/><path d="m2384.465 1515.232c-10.738-32.469-45.299-42.913-102.717-31.058-170.485 35.186-231.54 10.813-251.585-3.948 132.515-201.874 241.529-445.903 300.339-673.579 27.857-107.849 43.244-208.009 44.503-289.649 1.392-89.603-13.871-155.448-45.346-195.672-126.9-162.152-313.15-249.132-538.601-251.518-154.994-1.742-285.947 37.922-311.332 49.077-53.461-13.295-111.741-21.457-175.191-22.498-116.352-1.884-216.929 25.973-300.198 82.757-36.17-13.465-129.646-45.554-243.962-63.971-197.632-31.815-354.68-7.708-466.752 71.688-133.728 94.744-195.464 264.102-183.505 503.358 4.024 80.494 49.891 328.121 122.27 565.266 95.275 312.128 198.844 488.824 307.81 525.175 12.755 4.251 27.46 7.224 43.68 7.224 39.749 0 88.485-17.915 139.19-78.874 61.846-74.192 125.821-146.583 191.847-217.081 42.836 22.99 89.896 35.83 138.026 37.118.094 1.259.217 2.518.331 3.768-8.285 9.88-16.398 19.902-24.335 30.063-33.349 42.335-40.289 51.151-147.636 73.251-30.537 6.306-111.637 23.018-112.83 79.869-1.288 62.115 95.871 88.201 106.94 90.966 38.576 9.658 75.741 14.421 111.182 14.421 86.194 0 162.048-28.331 222.667-83.145-1.865 221.436 7.367 439.634 33.955 506.114 21.778 54.426 74.974 187.434 243.006 187.424 24.657 0 51.794-2.869 81.649-9.27 175.371-37.591 251.528-115.102 280.985-285.984 15.766-91.326 42.818-309.401 55.544-426.378 26.853 8.38 61.424 12.215 98.797 12.205 77.947 0 167.89-16.561 224.296-42.742 63.365-29.429 177.709-101.637 156.973-164.377zm-417.629-790.452c-.578 34.533-5.331 65.884-10.368 98.608-5.426 35.195-11.031 71.584-12.442 115.755-1.392 42.989 3.977 87.681 9.165 130.906 10.492 87.302 21.258 177.179-20.414 265.863-6.922-12.265-13.089-24.942-18.464-37.96-5.18-12.555-16.429-32.724-32.005-60.638-60.59-108.663-202.479-363.126-129.845-466.96 21.637-30.906 76.546-62.684 214.373-45.574zm-167.067-585.045c202.007 4.46 361.801 80.03 474.934 224.599 86.771 110.888-8.778 615.449-285.388 1050.737-2.782-3.537-5.578-7.062-8.39-10.576l-3.503-4.375c71.48-118.047 57.504-234.844 45.062-338.394-5.113-42.496-9.942-82.634-8.711-120.338 1.268-39.959 6.552-74.235 11.665-107.376 6.278-40.839 12.669-83.098 10.908-132.913 1.316-5.227 1.846-11.4 1.155-18.729-4.497-47.77-59.037-190.739-170.201-320.139-60.808-70.778-149.483-149.985-270.56-203.407 52.078-10.795 123.293-20.86 203.029-19.089zm-1130.36 1524.658c-55.866 67.171-94.441 54.294-107.13 50.071-82.662-27.573-178.58-202.291-263.146-479.346-73.174-239.73-115.935-480.795-119.325-548.392-10.681-213.786 41.142-362.777 154.038-442.844 183.731-130.29 485.804-52.306 607.183-12.755-1.742 1.723-3.56 3.333-5.283 5.085-199.185 201.154-194.46 544.832-193.967 565.843-.019 8.105.662 19.581 1.59 35.366 3.428 57.806 9.81 165.39-7.234 287.225-15.832 113.218 19.07 224.03 95.739 304.032 7.868 8.194 16.138 15.994 24.779 23.369-34.125 36.549-108.294 117.374-187.244 212.346zm212.848-283.996c-61.793-64.483-89.859-154.171-77.009-246.093 17.99-128.699 11.353-240.79 7.783-301.012-.502-8.427-.947-15.813-1.203-21.636 29.098-25.802 163.942-98.049 260.107-76.015 43.878 10.046 70.618 39.93 81.734 91.326 57.532 266.1 7.613 377.008-32.497 466.137-8.266 18.36-16.078 35.716-22.744 53.669l-5.169 13.881c-13.086 35.092-25.263 67.721-32.81 98.703-65.694-.19-129.598-28.255-178.192-78.97zm10.084 358.865c-19.184-4.791-36.436-13.114-46.558-20.017 8.456-3.977 23.502-9.393 49.598-14.771 126.284-25.992 145.79-44.342 188.38-98.418 9.763-12.404 20.832-26.456 36.162-43.575l.018-.019c22.83-25.566 33.274-21.229 52.211-13.37 15.349 6.344 30.3 25.584 36.36 46.757 2.869 9.999 6.089 28.974-4.45 43.745-88.969 124.571-218.615 122.971-311.721 99.668zm660.909 615.015c-154.492 33.102-209.193-45.725-245.24-135.839-23.265-58.176-34.703-320.517-26.588-610.233.104-3.853-.446-7.575-1.506-11.078-.949-6.918-2.392-13.76-4.318-20.472-12.063-42.154-41.463-77.416-76.735-92.036-14.013-5.804-39.73-16.456-70.636-8.55 6.59-27.156 18.019-57.826 30.413-91.033l5.199-13.966c5.851-15.747 13.199-32.061 20.963-49.332 41.975-93.248 99.46-220.972 37.071-509.514-23.369-108.076-101.411-160.855-219.713-148.593-70.921 7.339-135.811 35.953-168.175 52.362-6.959 3.523-13.322 6.932-19.269 10.246 9.033-108.891 43.159-312.393 170.817-441.149 80.38-81.053 187.424-121.087 317.847-118.928 256.981 4.204 421.776 136.085 514.778 245.989 80.143 94.697 123.538 190.094 140.857 241.548-130.243-13.247-218.823 12.46-263.724 76.659-97.689 139.645 53.442 410.678 126.077 540.94 13.322 23.87 24.817 44.503 28.434 53.271 23.653 57.324 54.275 95.596 76.631 123.529 6.855 8.56 13.502 16.864 18.559 24.117-39.447 11.372-110.302 37.648-103.844 168.989-5.208 65.902-42.24 374.451-61.055 483.465-24.836 144.02-77.833 197.66-226.843 229.617zm644.86-737.957c-40.337 18.72-107.839 32.762-171.962 35.782-70.826 3.315-106.883-7.934-115.367-14.856-3.977-81.848 26.484-90.398 58.725-99.45 5.066-1.421 10.009-2.813 14.781-4.479 2.964 2.415 6.211 4.81 9.772 7.158 56.926 37.572 158.459 41.625 301.807 12.035l1.571-.312c-19.335 18.076-52.419 42.334-99.327 64.122z"/></g></g></svg>