<svg height="2500" viewBox="0 0 2500 2500" width="2500" xmlns="http://www.w3.org/2000/svg" xmlns:xlink="http://www.w3.org/1999/xlink"><clipPath id="a"><path d="m0 0h2500v2500h-2500z"/></clipPath><linearGradient id="b" gradientTransform="matrix(1981.581 0 0 1980.097 512.833 510.87)" gradientUnits="userSpaceOnUse" x1="0" x2=".492835" y1=".5" y2="1.370123"><stop offset=".64583939003" stop-color="#900"/><stop offset=".83778089003" stop-color="#e42b1e"/><stop offset="1" stop-color="#ffcd95"/><stop offset="1" stop-color="#fb7655"/></linearGradient><linearGradient id="c" gradientTransform="matrix(588.89 0 0 1091.479 1766.836 1273.367)" gradientUnits="userSpaceOnUse" x1="0" x2=".830366" y1=".5" y2="1.057219"><stop offset="0" stop-color="#901208"/><stop offset="1" stop-color="#881102"/><stop offset="1" stop-color="#871101"/></linearGradient><linearGradient id="d" gradientTransform="matrix(1838.889 0 0 214.687 518.975 2273.898)" gradientUnits="userSpaceOnUse" x1="0" x2=".830366" y1=".5" y2="1.057218"><stop offset="0" stop-color="#911209"/><stop offset="1" stop-color="#8c1205"/><stop offset="1" stop-color="#871101"/></linearGradient><linearGradient id="e" gradientTransform="matrix(636.893 0 0 948.153 173.148 1540.676)" gradientUnits="userSpaceOnUse" x1="0" x2=".152087" y1=".5" y2="1.488367"><stop offset=".08224406172" stop-color="#fff"/><stop offset=".24761636172" stop-color="#e57252"/><stop offset=".41298866172" stop-color="#de3b20"/><stop offset=".79406396172" stop-color="#a60003"/><stop offset=".80125406172" stop-color="#a60003"/></linearGradient><linearGradient id="f" gradientTransform="matrix(1028.419 0 0 1043.124 738.31 802.181)" gradientUnits="userSpaceOnUse" x1="0" x2=".055463" y1=".5" y2="1.498461"><stop offset=".16242630553" stop-color="#fff"/><stop offset=".31583400553" stop-color="#e4714e"/><stop offset=".53594070553" stop-color="#be1a0d"/><stop offset=".82274640553" stop-color="#a80d00"/><stop offset=".82941630553" stop-color="#a80d00"/></linearGradient><linearGradient id="g" gradientTransform="matrix(921.017 0 0 648.552 1512.983 228.485)" gradientUnits="userSpaceOnUse" x1="0" x2=".226043" y1=".5" y2="1.474117"><stop offset=".13275972663" stop-color="#fff"/><stop offset=".27115092663" stop-color="#e46342"/><stop offset=".44029572663" stop-color="#c82410"/><stop offset=".89391132663" stop-color="#a80d00"/><stop offset=".90159972663" stop-color="#a80d00"/></linearGradient><linearGradient id="h" gradientTransform="matrix(691.019 0 0 237.292 1406.079 15.565)" gradientUnits="userSpaceOnUse" x1="0" x2=".894424" y1=".5" y2=".052781"><stop offset=".05940637839" stop-color="#fff"/><stop offset=".62674657839" stop-color="#c81f11"/><stop offset="1" stop-color="#bf0a05"/><stop offset="1" stop-color="#bf0905"/></linearGradient><linearGradient id="i" gradientTransform="matrix(177.493 0 0 709.357 5.586 1285.544)" gradientUnits="userSpaceOnUse" x1="0" x2=".099387" y1=".5" y2="1.495049"><stop offset=".20866424138" stop-color="#fff"/><stop offset=".38821934138" stop-color="#de4024"/><stop offset=".78208214138" stop-color="#bf190b"/><stop offset=".78787424138" stop-color="#bf190b"/></linearGradient><linearGradient id="j" gradientTransform="matrix(1544.415 0 0 1542.213 91.679 71.551)" gradientUnits="userSpaceOnUse" x1="0" x2=".697182" y1=".5" y2="-.216894"><stop offset="0" stop-color="#fffefe"/><stop offset=".12209887278" stop-color="#c82f1c"/><stop offset=".19927327278" stop-color="#820c01"/><stop offset=".36648447278" stop-color="#a31601"/><stop offset=".70090687278" stop-color="#b31301"/><stop offset="1" stop-color="#dd2207"/><stop offset="1" stop-color="#e82609"/></linearGradient><linearGradient id="k" gradientTransform="matrix(1240.83 0 0 951.17 520.616 1537.278)" gradientUnits="userSpaceOnUse" x1="0" x2=".970868" y1=".5" y2=".739616"><stop offset=".14170688646" stop-color="#a80d0e"/><stop offset=".39457808646" stop-color="#990c00"/><stop offset=".60530408646" stop-color="#8c0c01"/><stop offset=".60998688646" stop-color="#8c0c01"/></linearGradient><linearGradient id="l" gradientTransform="matrix(917.99 0 0 1031.182 1520.014 812.981)" gradientUnits="userSpaceOnUse" x1="0" x2=".744674" y1=".5" y2="1.167429"><stop offset=".17148090541" stop-color="#9e0c00"/><stop offset=".72816780541" stop-color="#7e110b"/><stop offset=".73379090541" stop-color="#7e110b"/></linearGradient><linearGradient id="m" gradientTransform="matrix(778.269 0 0 798.665 1714.956 19.208)" gradientUnits="userSpaceOnUse" x1="0" x2=".683132" y1=".5" y2="1.230295"><stop offset=".49293004411" stop-color="#9e120b"/><stop offset=".83366824411" stop-color="#79130d"/><stop offset=".83711004411" stop-color="#79130d"/></linearGradient><radialGradient id="n" cx=".32001" cy=".4021" gradientTransform="matrix(909.231 0 0 475.104 1521.381 815.236)" gradientUnits="userSpaceOnUse" r=".69573"><stop offset="0" stop-color="#a80d00"/><stop offset=".99" stop-color="#7e0e08"/><stop offset="1" stop-color="#7e0e08"/></radialGradient><radialGradient id="o" cx=".13549" cy=".4086" gradientTransform="matrix(951.414 0 0 740.633 807.395 1537.278)" gradientUnits="userSpaceOnUse" r=".88386"><stop offset="0" stop-color="#a30c00"/><stop offset=".99" stop-color="#800e08"/><stop offset="1" stop-color="#800e08"/></radialGradient><linearGradient id="p" gradientTransform="matrix(391.916 0 0 792.34 118.896 1681.956)" gradientUnits="userSpaceOnUse" x1="0" x2=".282718" y1=".5" y2="1.459203"><stop offset=".08740565924" stop-color="#b3100c"/><stop offset=".47321885924" stop-color="#9e100a"/><stop offset=".97567325924" stop-color="#8b2114"/><stop offset=".98464565924" stop-color="#8b2114"/></linearGradient><linearGradient id="q" gradientTransform="matrix(762.624 0 0 318.554 1712.71 18.71)" gradientUnits="userSpaceOnUse" x1="0" x2=".914842" y1=".5" y2=".903812"><stop offset=".30733010808" stop-color="#b31000"/><stop offset=".59374810808" stop-color="#910f08"/><stop offset=".95177060808" stop-color="#791c12"/><stop offset=".95828010808" stop-color="#791c12"/></linearGradient><g clip-path="url(#a)"><path d="m1933.793 1647.199-1420.96 843.768 1839.885-124.861 141.696-1855.236-560.631 1136.319z" fill="url(#b)"/><path d="m2355.726 2364.836-158.139-1091.469-430.751 568.794 588.89 522.685z" fill="url(#c)"/><path d="m2357.864 2364.836-1158.543-90.938-680.346 214.687z" fill="url(#d)"/><path d="m520.616 2488.829 289.425-948.153-636.893 136.169 347.458 811.974z" fill="url(#e)"/><path d="m1766.729 1845.286-266.313-1043.105-762.106 714.386 1028.419 328.738z" fill="url(#f)"/><path d="m2434 816.867-720.411-588.382-200.606 648.552z" fill="url(#g)"/><path d="m2097.098 18.7-423.7 234.158-267.319-237.293 691.019 3.145z" fill="url(#h)"/><path d="m5.586 1994.901 177.493-323.71-143.58-385.647z" fill="url(#i)"/><path d="m29.959 1273.367 144.459 409.756 627.704-140.826 716.632-666.022 202.247-642.39-318.447-224.852-541.404 202.617c-170.58 158.657-501.574 472.573-513.506 478.471-11.816 6.035-218.574 396.828-317.685 583.246z" fill="#fff"/><path d="m537.196 537.245c369.692-366.548 846.278-583.109 1029.171-398.576 182.795 184.533-11.054 632.978-380.746 999.408-369.691 366.421-840.37 594.915-1023.146 410.381-182.893-184.406 5.029-644.783 374.721-1011.213z" fill="url(#j)"/><path d="m520.616 2488.448 287.16-951.17 953.67 306.377c-344.811 323.339-728.32 596.682-1240.83 644.793z" fill="url(#k)"/><path d="m1520.014 874.401 244.83 969.762c288.039-302.862 546.55-628.457 673.159-1031.182l-917.98 61.42z" fill="url(#l)"/><path d="m2435.504 817.873c97.988-295.695 120.594-719.903-341.433-798.665l-379.115 209.404z" fill="url(#m)"/><path d="m5.586 1990.633c13.573 488.031 365.669 495.305 515.654 499.582l-346.451-809.103z" fill="#9e1209"/><path d="m1521.381 875.914c221.336 136.042 667.417 409.258 676.459 414.278 14.062 7.909 192.316-300.597 232.772-474.956z" fill="url(#n)"/><path d="m807.395 1537.278 383.88 740.633c226.99-123.104 404.747-273.089 567.535-433.748z" fill="url(#o)"/><path d="m173.285 1682.118-54.389 647.673c102.627 140.192 243.824 152.378 391.916 141.451-107.148-266.683-321.2-799.924-337.527-789.124z" fill="url(#p)"/><path d="m1712.71 230.242 762.624 107.022c-40.709-172.465-165.697-283.763-378.744-318.554z" fill="url(#q)"/></g></svg>