<svg height="2043.606" viewBox="677 232.665 1900 2043.606" width="1900" xmlns="http://www.w3.org/2000/svg" xmlns:xlink="http://www.w3.org/1999/xlink"><clipPath id="a"><path d="m677 232.665h1900v2043.606h-1900z"/></clipPath><linearGradient id="b"><stop offset="0" stop-color="#928330"/><stop offset=".98695652174" stop-color="#7d7c33"/></linearGradient><linearGradient id="c" gradientTransform="matrix(65.217 0 0 58.963 942.598 2075.127)" gradientUnits="userSpaceOnUse" x1=".937612" x2=".516253" xlink:href="#b" y1=".686395" y2=".461928"/><linearGradient id="d" gradientTransform="matrix(54.919 0 0 46.796 757.246 1711.056)" gradientUnits="userSpaceOnUse" x1=".937612" x2=".516253" xlink:href="#b" y1=".686395" y2=".461928"/><linearGradient id="e" gradientTransform="matrix(65.217 0 0 58.963 795.003 1784.994)" gradientUnits="userSpaceOnUse" x1=".937612" x2=".516253" xlink:href="#b" y1=".686395" y2=".461928"/><linearGradient id="f" gradientTransform="matrix(48.054 0 0 40.244 741.799 1779.378)" gradientUnits="userSpaceOnUse" x1=".937612" x2=".516253" xlink:href="#b" y1=".686395" y2=".461928"/><linearGradient id="g" gradientTransform="matrix(65.217 0 0 58.963 765.827 1863.4)" gradientUnits="userSpaceOnUse" x1=".937612" x2=".516253" xlink:href="#b" y1=".686395" y2=".461928"/><linearGradient id="h" gradientTransform="matrix(65.217 0 0 58.963 825.037 1942.227)" gradientUnits="userSpaceOnUse" x1=".937612" x2=".516253" xlink:href="#b" y1=".686395" y2=".461928"/><linearGradient id="i" gradientTransform="matrix(65.217 0 0 58.963 844.773 1863.4)" gradientUnits="userSpaceOnUse" x1=".937612" x2=".516253" xlink:href="#b" y1=".686395" y2=".461928"/><linearGradient id="j" gradientTransform="matrix(65.217 0 0 58.963 890.253 2016.165)" gradientUnits="userSpaceOnUse" x1=".937612" x2=".516253" xlink:href="#b" y1=".686395" y2=".461928"/><linearGradient id="k" gradientTransform="matrix(65.217 0 0 58.963 909.99 1945.971)" gradientUnits="userSpaceOnUse" x1=".937612" x2=".516253" xlink:href="#b" y1=".686395" y2=".461928"/><linearGradient id="l" gradientTransform="matrix(54.061 0 0 51.007 1341.622 2098.291)" gradientUnits="userSpaceOnUse" x1=".937612" x2=".516253" xlink:href="#b" y1=".686395" y2=".461928"/><linearGradient id="m" gradientTransform="matrix(57.494 0 0 52.411 1279.837 2160.763)" gradientUnits="userSpaceOnUse" x1=".937612" x2=".516253" xlink:href="#b" y1=".686395" y2=".461928"/><linearGradient id="n" gradientTransform="matrix(65.217 0 0 58.963 1224.06 2094.313)" gradientUnits="userSpaceOnUse" x1=".937612" x2=".516253" xlink:href="#b" y1=".686395" y2=".461928"/><linearGradient id="o" gradientTransform="matrix(65.217 0 0 58.963 1133.1 2083.55)" gradientUnits="userSpaceOnUse" x1=".937612" x2=".516253" xlink:href="#b" y1=".686395" y2=".461928"/><linearGradient id="p" gradientTransform="matrix(65.217 0 0 58.963 1155.411 2154.212)" gradientUnits="userSpaceOnUse" x1=".937612" x2=".516253" xlink:href="#b" y1=".686395" y2=".461928"/><linearGradient id="q" gradientTransform="matrix(65.217 0 0 58.963 1045.572 2060.153)" gradientUnits="userSpaceOnUse" x1=".937612" x2=".516253" xlink:href="#b" y1=".686395" y2=".461928"/><linearGradient id="r" gradientTransform="matrix(65.217 0 0 58.963 986.362 2013.357)" gradientUnits="userSpaceOnUse" x1=".937612" x2=".516253" xlink:href="#b" y1=".686395" y2=".461928"/><linearGradient id="s" gradientTransform="matrix(65.217 0 0 58.963 1036.991 2128.006)" gradientUnits="userSpaceOnUse" x1=".937612" x2=".516253" xlink:href="#b" y1=".686395" y2=".461928"/><linearGradient id="t" gradientTransform="matrix(38.114 0 0 51.286 703.685 1827.299)" gradientUnits="userSpaceOnUse" x1=".937612" x2=".516253" xlink:href="#b" y1=".686395" y2=".461928"/><linearGradient id="u" gradientTransform="matrix(65.217 0 0 58.963 697.535 1883.265)" gradientUnits="userSpaceOnUse" x1=".937612" x2=".516253" xlink:href="#b" y1=".686395" y2=".461928"/><linearGradient id="v" gradientTransform="matrix(65.217 0 0 58.963 721.845 1954.394)" gradientUnits="userSpaceOnUse" x1=".937612" x2=".516253" xlink:href="#b" y1=".686395" y2=".461928"/><linearGradient id="w" gradientTransform="matrix(65.217 0 0 58.963 1063.429 2206.29)" gradientUnits="userSpaceOnUse" x1=".937612" x2=".516253" xlink:href="#b" y1=".686395" y2=".461928"/><linearGradient id="x" gradientTransform="matrix(65.217 0 0 58.963 1158.843 2210.037)" gradientUnits="userSpaceOnUse" x1=".937612" x2=".516253" xlink:href="#b" y1=".686395" y2=".461928"/><linearGradient id="y" gradientTransform="matrix(65.217 0 0 58.963 752.097 2030.671)" gradientUnits="userSpaceOnUse" x1=".937612" x2=".516253" xlink:href="#b" y1=".686395" y2=".461928"/><linearGradient id="z" gradientTransform="matrix(65.217 0 0 58.963 802.076 2089.634)" gradientUnits="userSpaceOnUse" x1=".937612" x2=".516253" xlink:href="#b" y1=".686395" y2=".461928"/><linearGradient id="A" gradientTransform="matrix(65.217 0 0 58.963 871.77 2142.513)" gradientUnits="userSpaceOnUse" x1=".937612" x2=".516253" xlink:href="#b" y1=".686395" y2=".461928"/><linearGradient id="B" gradientTransform="matrix(65.217 0 0 58.963 968.844 2180.556)" gradientUnits="userSpaceOnUse" x1=".937612" x2=".516253" xlink:href="#b" y1=".686395" y2=".461928"/><linearGradient id="C" gradientTransform="matrix(71.421 0 0 61.483 1053.828 1922.052)" gradientUnits="userSpaceOnUse" x1=".937612" x2=".516253" xlink:href="#b" y1=".686395" y2=".461928"/><linearGradient id="D" gradientTransform="matrix(60.144 0 0 48.796 850.843 1542.419)" gradientUnits="userSpaceOnUse" x1=".937612" x2=".516253" xlink:href="#b" y1=".686395" y2=".461928"/><linearGradient id="E" gradientTransform="matrix(71.421 0 0 61.483 892.191 1619.517)" gradientUnits="userSpaceOnUse" x1=".937612" x2=".516253" xlink:href="#b" y1=".686395" y2=".461928"/><linearGradient id="F" gradientTransform="matrix(52.626 0 0 41.965 833.927 1613.661)" gradientUnits="userSpaceOnUse" x1=".937612" x2=".516253" xlink:href="#b" y1=".686395" y2=".461928"/><linearGradient id="G" gradientTransform="matrix(71.421 0 0 61.483 860.24 1701.274)" gradientUnits="userSpaceOnUse" x1=".937612" x2=".516253" xlink:href="#b" y1=".686395" y2=".461928"/><linearGradient id="H" gradientTransform="matrix(71.421 0 0 61.483 925.083 1783.471)" gradientUnits="userSpaceOnUse" x1=".937612" x2=".516253" xlink:href="#b" y1=".686395" y2=".461928"/><linearGradient id="I" gradientTransform="matrix(71.421 0 0 61.483 946.697 1701.274)" gradientUnits="userSpaceOnUse" x1=".937612" x2=".516253" xlink:href="#b" y1=".686395" y2=".461928"/><linearGradient id="J" gradientTransform="matrix(71.421 0 0 61.483 996.503 1860.569)" gradientUnits="userSpaceOnUse" x1=".937612" x2=".516253" xlink:href="#b" y1=".686395" y2=".461928"/><linearGradient id="K" gradientTransform="matrix(71.421 0 0 61.483 1018.118 1787.375)" gradientUnits="userSpaceOnUse" x1=".937612" x2=".516253" xlink:href="#b" y1=".686395" y2=".461928"/><linearGradient id="L" gradientTransform="matrix(59.204 0 0 53.188 1490.81 1946.206)" gradientUnits="userSpaceOnUse" x1=".937612" x2=".516253" xlink:href="#b" y1=".686395" y2=".461928"/><linearGradient id="M" gradientTransform="matrix(62.963 0 0 54.652 1423.149 2011.348)" gradientUnits="userSpaceOnUse" x1=".937612" x2=".516253" xlink:href="#b" y1=".686395" y2=".461928"/><linearGradient id="N" gradientTransform="matrix(71.421 0 0 61.483 1362.065 1942.058)" gradientUnits="userSpaceOnUse" x1=".937612" x2=".516253" xlink:href="#b" y1=".686395" y2=".461928"/><linearGradient id="O" gradientTransform="matrix(71.421 0 0 61.483 1262.452 1930.835)" gradientUnits="userSpaceOnUse" x1=".937612" x2=".516253" xlink:href="#b" y1=".686395" y2=".461928"/><linearGradient id="P" gradientTransform="matrix(71.421 0 0 61.483 1286.885 2004.517)" gradientUnits="userSpaceOnUse" x1=".937612" x2=".516253" xlink:href="#b" y1=".686395" y2=".461928"/><linearGradient id="Q" gradientTransform="matrix(71.421 0 0 61.483 1166.598 1906.437)" gradientUnits="userSpaceOnUse" x1=".937612" x2=".516253" xlink:href="#b" y1=".686395" y2=".461928"/><linearGradient id="R" gradientTransform="matrix(71.421 0 0 61.483 1101.755 1857.641)" gradientUnits="userSpaceOnUse" x1=".937612" x2=".516253" xlink:href="#b" y1=".686395" y2=".461928"/><linearGradient id="S" gradientTransform="matrix(71.421 0 0 61.483 1157.2 1977.191)" gradientUnits="userSpaceOnUse" x1=".937612" x2=".516253" xlink:href="#b" y1=".686395" y2=".461928"/><linearGradient id="T" gradientTransform="matrix(70.165 0 0 60.514 1206.12 1694.321)" gradientUnits="userSpaceOnUse" x1=".937612" x2=".516253" xlink:href="#b" y1=".686395" y2=".461928"/><linearGradient id="U" gradientTransform="matrix(59.086 0 0 48.027 1006.703 1320.673)" gradientUnits="userSpaceOnUse" x1=".937612" x2=".516253" xlink:href="#b" y1=".686395" y2=".461928"/><linearGradient id="V" gradientTransform="matrix(70.165 0 0 60.514 1047.325 1396.555)" gradientUnits="userSpaceOnUse" x1=".937612" x2=".516253" xlink:href="#b" y1=".686395" y2=".461928"/><linearGradient id="W" gradientTransform="matrix(51.701 0 0 41.303 990.085 1390.792)" gradientUnits="userSpaceOnUse" x1=".937612" x2=".516253" xlink:href="#b" y1=".686395" y2=".461928"/><linearGradient id="X" gradientTransform="matrix(70.165 0 0 60.514 1015.935 1477.024)" gradientUnits="userSpaceOnUse" x1=".937612" x2=".516253" xlink:href="#b" y1=".686395" y2=".461928"/><linearGradient id="Y" gradientTransform="matrix(70.165 0 0 60.514 1079.638 1557.925)" gradientUnits="userSpaceOnUse" x1=".937612" x2=".516253" xlink:href="#b" y1=".686395" y2=".461928"/><linearGradient id="Z" gradientTransform="matrix(70.165 0 0 60.514 1100.872 1477.024)" gradientUnits="userSpaceOnUse" x1=".937612" x2=".516253" xlink:href="#b" y1=".686395" y2=".461928"/><linearGradient id="aa" gradientTransform="matrix(70.165 0 0 60.514 1149.803 1633.807)" gradientUnits="userSpaceOnUse" x1=".937612" x2=".516253" xlink:href="#b" y1=".686395" y2=".461928"/><linearGradient id="ab" gradientTransform="matrix(70.165 0 0 60.514 1171.037 1561.767)" gradientUnits="userSpaceOnUse" x1=".937612" x2=".516253" xlink:href="#b" y1=".686395" y2=".461928"/><linearGradient id="ac" gradientTransform="matrix(58.163 0 0 52.349 1635.42 1718.094)" gradientUnits="userSpaceOnUse" x1=".937612" x2=".516253" xlink:href="#b" y1=".686395" y2=".461928"/><linearGradient id="ad" gradientTransform="matrix(61.856 0 0 53.79 1568.948 1782.21)" gradientUnits="userSpaceOnUse" x1=".937612" x2=".516253" xlink:href="#b" y1=".686395" y2=".461928"/><linearGradient id="ae" gradientTransform="matrix(70.165 0 0 60.514 1508.938 1714.012)" gradientUnits="userSpaceOnUse" x1=".937612" x2=".516253" xlink:href="#b" y1=".686395" y2=".461928"/><linearGradient id="af" gradientTransform="matrix(70.165 0 0 60.514 1411.076 1702.966)" gradientUnits="userSpaceOnUse" x1=".937612" x2=".516253" xlink:href="#b" y1=".686395" y2=".461928"/><linearGradient id="ag" gradientTransform="matrix(70.165 0 0 60.514 1435.08 1775.486)" gradientUnits="userSpaceOnUse" x1=".937612" x2=".516253" xlink:href="#b" y1=".686395" y2=".461928"/><linearGradient id="ah" gradientTransform="matrix(70.165 0 0 60.514 1316.907 1678.953)" gradientUnits="userSpaceOnUse" x1=".937612" x2=".516253" xlink:href="#b" y1=".686395" y2=".461928"/><linearGradient id="ai" gradientTransform="matrix(70.165 0 0 60.514 1253.204 1630.926)" gradientUnits="userSpaceOnUse" x1=".937612" x2=".516253" xlink:href="#b" y1=".686395" y2=".461928"/><linearGradient id="aj" gradientTransform="matrix(70.165 0 0 60.514 1307.674 1748.591)" gradientUnits="userSpaceOnUse" x1=".937612" x2=".516253" xlink:href="#b" y1=".686395" y2=".461928"/><linearGradient id="ak" gradientTransform="matrix(72.086 0 0 60.05 1373.321 1459.406)" gradientUnits="userSpaceOnUse" x1=".937612" x2=".516253" xlink:href="#b" y1=".686395" y2=".461928"/><linearGradient id="al" gradientTransform="matrix(60.704 0 0 47.659 1168.446 1088.62)" gradientUnits="userSpaceOnUse" x1=".937612" x2=".516253" xlink:href="#b" y1=".686395" y2=".461928"/><linearGradient id="am" gradientTransform="matrix(72.086 0 0 60.05 1210.18 1163.921)" gradientUnits="userSpaceOnUse" x1=".937612" x2=".516253" xlink:href="#b" y1=".686395" y2=".461928"/><linearGradient id="an" gradientTransform="matrix(53.116 0 0 40.987 1151.373 1158.202)" gradientUnits="userSpaceOnUse" x1=".937612" x2=".516253" xlink:href="#b" y1=".686395" y2=".461928"/><linearGradient id="ao" gradientTransform="matrix(72.086 0 0 60.05 1177.931 1243.774)" gradientUnits="userSpaceOnUse" x1=".937612" x2=".516253" xlink:href="#b" y1=".686395" y2=".461928"/><linearGradient id="ap" gradientTransform="matrix(72.086 0 0 60.05 1243.377 1324.055)" gradientUnits="userSpaceOnUse" x1=".937612" x2=".516253" xlink:href="#b" y1=".686395" y2=".461928"/><linearGradient id="aq" gradientTransform="matrix(72.086 0 0 60.05 1265.192 1243.774)" gradientUnits="userSpaceOnUse" x1=".937612" x2=".516253" xlink:href="#b" y1=".686395" y2=".461928"/><linearGradient id="ar" gradientTransform="matrix(72.086 0 0 60.05 1315.463 1399.356)" gradientUnits="userSpaceOnUse" x1=".937612" x2=".516253" xlink:href="#b" y1=".686395" y2=".461928"/><linearGradient id="as" gradientTransform="matrix(72.086 0 0 60.05 1337.278 1327.868)" gradientUnits="userSpaceOnUse" x1=".937612" x2=".516253" xlink:href="#b" y1=".686395" y2=".461928"/><linearGradient id="at" gradientTransform="matrix(59.755 0 0 51.948 1814.37 1482.997)" gradientUnits="userSpaceOnUse" x1=".937612" x2=".516253" xlink:href="#b" y1=".686395" y2=".461928"/><linearGradient id="au" gradientTransform="matrix(63.549 0 0 53.378 1746.079 1546.622)" gradientUnits="userSpaceOnUse" x1=".937612" x2=".516253" xlink:href="#b" y1=".686395" y2=".461928"/><linearGradient id="av" gradientTransform="matrix(72.086 0 0 60.05 1684.427 1478.946)" gradientUnits="userSpaceOnUse" x1=".937612" x2=".516253" xlink:href="#b" y1=".686395" y2=".461928"/><linearGradient id="aw" gradientTransform="matrix(72.086 0 0 60.05 1583.886 1467.985)" gradientUnits="userSpaceOnUse" x1=".937612" x2=".516253" xlink:href="#b" y1=".686395" y2=".461928"/><linearGradient id="ax" gradientTransform="matrix(72.086 0 0 60.05 1608.547 1539.95)" gradientUnits="userSpaceOnUse" x1=".937612" x2=".516253" xlink:href="#b" y1=".686395" y2=".461928"/><linearGradient id="ay" gradientTransform="matrix(72.086 0 0 60.05 1487.14 1444.156)" gradientUnits="userSpaceOnUse" x1=".937612" x2=".516253" xlink:href="#b" y1=".686395" y2=".461928"/><linearGradient id="az" gradientTransform="matrix(72.086 0 0 60.05 1421.694 1396.497)" gradientUnits="userSpaceOnUse" x1=".937612" x2=".516253" xlink:href="#b" y1=".686395" y2=".461928"/><linearGradient id="aA" gradientTransform="matrix(72.086 0 0 60.05 1477.655 1513.261)" gradientUnits="userSpaceOnUse" x1=".937612" x2=".516253" xlink:href="#b" y1=".686395" y2=".461928"/><linearGradient id="aB" gradientTransform="matrix(231.368 0 0 574 1898 247.287)" gradientUnits="userSpaceOnUse" x1="1.377389" x2=".103731" y1=".179443" y2=".980836"><stop offset=".03043478261" stop-color="#51973e"/><stop offset=".98695652174" stop-color="#476f3e"/></linearGradient><linearGradient id="aC" gradientTransform="matrix(485 0 0 619 1918.675 224.287)" gradientUnits="userSpaceOnUse" x1=".045775" x2=".982166" y1=".893375" y2=".035339"><stop offset=".00869565217" stop-color="#5caa43"/><stop offset="1" stop-color="#3b5738"/></linearGradient><linearGradient id="aD" gradientTransform="matrix(616 0 0 508 1936 349.665)" gradientUnits="userSpaceOnUse" x1=".001798" x2=".957372" y1=".903858" y2=".059108"><stop offset=".01739130435" stop-color="#5ba743"/><stop offset="1" stop-color="#478d3d"/></linearGradient><linearGradient id="aE" gradientTransform="matrix(76 0 0 63 1478 788.165)" gradientUnits="userSpaceOnUse" x1=".937612" x2=".516253" xlink:href="#b" y1=".686395" y2=".461928"/><linearGradient id="aF" gradientTransform="matrix(76 0 0 63 1929.616 1260.165)" gradientUnits="userSpaceOnUse" x1=".937612" x2=".516253" xlink:href="#b" y1=".686395" y2=".461928"/><linearGradient id="aG" gradientTransform="matrix(76 0 0 63 1929.616 1167.165)" gradientUnits="userSpaceOnUse" x1=".937612" x2=".516253" xlink:href="#b" y1=".686395" y2=".461928"/><linearGradient id="aH" gradientTransform="matrix(76 0 0 63 1839 1176.165)" gradientUnits="userSpaceOnUse" x1=".937612" x2=".516253" xlink:href="#b" y1=".686395" y2=".461928"/><linearGradient id="aI" gradientTransform="matrix(76 0 0 63 1967.616 1104.165)" gradientUnits="userSpaceOnUse" x1=".937612" x2=".516253" xlink:href="#b" y1=".686395" y2=".461928"/><linearGradient id="aJ" gradientTransform="matrix(76 0 0 63 1929.616 1031.665)" gradientUnits="userSpaceOnUse" x1=".937612" x2=".516253" xlink:href="#b" y1=".686395" y2=".461928"/><linearGradient id="aK" gradientTransform="matrix(76 0 0 63 1745 1092.951)" gradientUnits="userSpaceOnUse" x1=".937612" x2=".516253" xlink:href="#b" y1=".686395" y2=".461928"/><linearGradient id="aL" gradientTransform="matrix(76 0 0 63 1676.808 1010.416)" gradientUnits="userSpaceOnUse" x1=".937612" x2=".516253" xlink:href="#b" y1=".686395" y2=".461928"/><linearGradient id="aM" gradientTransform="matrix(76 0 0 63 1783 968.665)" gradientUnits="userSpaceOnUse" x1=".937612" x2=".516253" xlink:href="#b" y1=".686395" y2=".461928"/><linearGradient id="aN" gradientTransform="matrix(76 0 0 63 1967.616 958.665)" gradientUnits="userSpaceOnUse" x1=".937612" x2=".516253" xlink:href="#b" y1=".686395" y2=".461928"/><linearGradient id="aO" gradientTransform="matrix(76 0 0 63 1859 905.665)" gradientUnits="userSpaceOnUse" x1=".937612" x2=".516253" xlink:href="#b" y1=".686395" y2=".461928"/><linearGradient id="aP" gradientTransform="matrix(76 0 0 63 1736 864.165)" gradientUnits="userSpaceOnUse" x1=".937612" x2=".516253" xlink:href="#b" y1=".686395" y2=".461928"/><linearGradient id="aQ" gradientTransform="matrix(76 0 0 63 1660 927.165)" gradientUnits="userSpaceOnUse" x1=".937612" x2=".516253" xlink:href="#b" y1=".686395" y2=".461928"/><linearGradient id="aR" gradientTransform="matrix(76 0 0 63 1611 798.165)" gradientUnits="userSpaceOnUse" x1=".937612" x2=".516253" xlink:href="#b" y1=".686395" y2=".461928"/><linearGradient id="aS" gradientTransform="matrix(76 0 0 63 1380 815.5)" gradientUnits="userSpaceOnUse" x1=".937612" x2=".516253" xlink:href="#b" y1=".686395" y2=".461928"/><linearGradient id="aT" gradientTransform="matrix(76 0 0 63 1839 1287)" gradientUnits="userSpaceOnUse" x1=".937612" x2=".516253" xlink:href="#b" y1=".686395" y2=".461928"/><linearGradient id="aU" gradientTransform="matrix(76 0 0 63 1771 1216)" gradientUnits="userSpaceOnUse" x1=".937612" x2=".516253" xlink:href="#b" y1=".686395" y2=".461928"/><linearGradient id="aV" gradientTransform="matrix(76 0 0 63 1687.575 1255.5)" gradientUnits="userSpaceOnUse" x1=".937612" x2=".516253" xlink:href="#b" y1=".686395" y2=".461928"/><linearGradient id="aW" gradientTransform="matrix(76 0 0 63 1682 1162.5)" gradientUnits="userSpaceOnUse" x1=".937612" x2=".516253" xlink:href="#b" y1=".686395" y2=".461928"/><linearGradient id="aX" gradientTransform="matrix(76 0 0 63 1592 1167.165)" gradientUnits="userSpaceOnUse" x1=".937612" x2=".516253" xlink:href="#b" y1=".686395" y2=".461928"/><linearGradient id="aY" gradientTransform="matrix(76 0 0 63 1478 1135.665)" gradientUnits="userSpaceOnUse" x1=".937612" x2=".516253" xlink:href="#b" y1=".686395" y2=".461928"/><linearGradient id="aZ" gradientTransform="matrix(76 0 0 63 1611 1072.665)" gradientUnits="userSpaceOnUse" x1=".937612" x2=".516253" xlink:href="#b" y1=".686395" y2=".461928"/><linearGradient id="a0" gradientTransform="matrix(76 0 0 63 1522 1051.165)" gradientUnits="userSpaceOnUse" x1=".937612" x2=".516253" xlink:href="#b" y1=".686395" y2=".461928"/><linearGradient id="a1" gradientTransform="matrix(76 0 0 63 1429 1011.871)" gradientUnits="userSpaceOnUse" x1=".937612" x2=".516253" xlink:href="#b" y1=".686395" y2=".461928"/><linearGradient id="a2" gradientTransform="matrix(76 0 0 63 1554 985.5)" gradientUnits="userSpaceOnUse" x1=".937612" x2=".516253" xlink:href="#b" y1=".686395" y2=".461928"/><linearGradient id="a3" gradientTransform="matrix(76 0 0 63 1459 927.165)" gradientUnits="userSpaceOnUse" x1=".937612" x2=".516253" xlink:href="#b" y1=".686395" y2=".461928"/><linearGradient id="a4" gradientTransform="matrix(76 0 0 63 1371 910)" gradientUnits="userSpaceOnUse" x1=".937612" x2=".516253" xlink:href="#b" y1=".686395" y2=".461928"/><linearGradient id="a5" gradientTransform="matrix(76 0 0 63 1535 874.165)" gradientUnits="userSpaceOnUse" x1=".937612" x2=".516253" xlink:href="#b" y1=".686395" y2=".461928"/><linearGradient id="a6" gradientTransform="matrix(76 0 0 63 1554 735.165)" gradientUnits="userSpaceOnUse" x1=".937612" x2=".516253" xlink:href="#b" y1=".686395" y2=".461928"/><linearGradient id="a7" gradientTransform="matrix(76 0 0 63 1829 819.665)" gradientUnits="userSpaceOnUse" x1=".937612" x2=".516253" xlink:href="#b" y1=".686395" y2=".461928"/><linearGradient id="a8" gradientTransform="matrix(76 0 0 63 1687 756.665)" gradientUnits="userSpaceOnUse" x1=".937612" x2=".516253" xlink:href="#b" y1=".686395" y2=".461928"/><linearGradient id="a9" gradientTransform="matrix(76 0 0 63 1847 1082.665)" gradientUnits="userSpaceOnUse" x1=".937612" x2=".516253" xlink:href="#b" y1=".686395" y2=".461928"/><g clip-path="url(#a)"><path d="m677 232.665h1900v2043.606h-1900z" fill="none"/><path d="m825.182 1606.749c-93.308 276.978 469.832 633.996 611.836 426.777l-73.019 137.156c-2.325 4.366-7.6 10.066-11.774 12.72-436.601 277.673-736.818-129.322-599.845-408.714.871-1.776 2.216-4.693 3.001-6.509z" fill="#668539"/><ellipse cx="975.206642" cy="2104.608468" fill="url(#c)" rx="32.608358" ry="29.481314"/><path d="m971.833 2131.01c-10.186-1.198-18.442-5.842-24.287-16.281-5.858-12.275-.323-20.711 7.196-29.921 10.52 8.819 14.873 21.877 11.244 30.361 18.656.562 27.96.425 29.685 8.36-12.14 7.423-15.924 8.411-23.838 7.481z" fill="#52612c"/><ellipse cx="784.705184" cy="1734.454195" fill="url(#d)" rx="27.45967" ry="23.397868"/><path d="m781.865 1755.408c-8.578-.951-15.531-4.637-20.453-12.922-4.933-9.742-.272-16.437 6.06-23.747 8.859 6.999 12.524 17.363 9.469 24.097 15.71.446 23.545.337 24.997 6.635-10.223 5.891-13.409 6.675-20.073 5.937z" fill="#52612c"/><ellipse cx="827.610918" cy="1814.474904" fill="url(#e)" rx="32.608358" ry="29.481314"/><path d="m824.238 1840.876c-10.187-1.198-18.443-5.841-24.288-16.281-5.858-12.275-.323-20.71 7.196-29.921 10.521 8.819 14.873 21.877 11.245 30.361 18.655.563 27.96.425 29.684 8.361-12.139 7.422-15.923 8.411-23.837 7.48z" fill="#52612c"/><ellipse cx="765.826661" cy="1799.500268" fill="url(#f)" rx="24.027211" ry="20.122167"/><path d="m763.341 1817.52c-7.506-.817-13.589-3.987-17.896-11.112-4.316-8.378-.238-14.136 5.303-20.423 7.751 6.02 10.958 14.933 8.285 20.723 13.746.384 20.602.29 21.873 5.706-8.945 5.067-11.734 5.741-17.565 5.106z" fill="#52612c"/><ellipse cx="798.435019" cy="1892.881175" fill="url(#g)" rx="32.608358" ry="29.481314"/><path d="m795.062 1919.282c-10.187-1.197-18.443-5.841-24.288-16.28-5.858-12.276-.323-20.711 7.196-29.922 10.521 8.819 14.873 21.878 11.245 30.362 18.656.562 27.96.424 29.685 8.36-12.14 7.423-15.924 8.411-23.838 7.48z" fill="#52612c"/><ellipse cx="857.644931" cy="1971.708577" fill="url(#h)" rx="32.608358" ry="29.481314"/><path d="m854.272 1998.11c-10.187-1.198-18.443-5.842-24.288-16.281-5.858-12.275-.323-20.711 7.196-29.921 10.521 8.819 14.873 21.877 11.245 30.361 18.655.563 27.96.425 29.684 8.36-12.139 7.423-15.923 8.411-23.837 7.481z" fill="#52612c"/><ellipse cx="877.381569" cy="1892.881175" fill="url(#i)" rx="32.608358" ry="29.481314"/><path d="m874.008 1919.282c-10.186-1.197-18.442-5.841-24.287-16.28-5.858-12.276-.323-20.711 7.196-29.922 10.52 8.819 14.872 21.878 11.244 30.362 18.656.562 27.96.424 29.685 8.36-12.14 7.423-15.924 8.411-23.838 7.48z" fill="#52612c"/><ellipse cx="922.861647" cy="2045.64584" fill="url(#j)" rx="32.608358" ry="29.481314"/><path d="m919.488 2072.047c-10.186-1.198-18.442-5.841-24.287-16.281-5.858-12.275-.323-20.711 7.196-29.921 10.52 8.819 14.873 21.877 11.244 30.361 18.656.563 27.96.425 29.685 8.361-12.14 7.422-15.924 8.41-23.838 7.48z" fill="#52612c"/><ellipse cx="942.598284" cy="1975.452236" fill="url(#k)" rx="32.608358" ry="29.481314"/><path d="m939.225 2001.853c-10.186-1.197-18.442-5.841-24.288-16.28-5.858-12.275-.322-20.711 7.197-29.922 10.52 8.819 14.872 21.878 11.244 30.362 18.656.562 27.96.424 29.685 8.36-12.14 7.423-15.924 8.411-23.838 7.48z" fill="#52612c"/><ellipse cx="1368.65222" cy="2123.794719" fill="url(#l)" rx="27.030612" ry="25.503676"/><path d="m1365.856 2146.634c-8.444-1.036-15.288-5.053-20.133-14.084-4.856-10.619-.268-17.917 5.965-25.885 8.721 7.63 12.329 18.926 9.321 26.265 15.465.487 23.177.368 24.607 7.233-10.063 6.421-13.2 7.276-19.76 6.471z" fill="#52612c"/><ellipse cx="1308.584193" cy="2186.968963" fill="url(#m)" rx="28.746842" ry="26.205612"/><path d="m1305.61 2210.437c-8.98-1.065-16.258-5.193-21.411-14.472-5.164-10.911-.285-18.41 6.344-26.597 9.274 7.839 13.111 19.447 9.913 26.988 16.446.5 24.649.377 26.169 7.431-10.702 6.598-14.038 7.477-21.015 6.65z" fill="#52612c"/><ellipse cx="1256.668255" cy="2123.794719" fill="url(#n)" rx="32.608358" ry="29.481314"/><path d="m1253.295 2150.196c-10.186-1.198-18.442-5.841-24.288-16.281-5.858-12.275-.322-20.711 7.197-29.921 10.52 8.819 14.872 21.877 11.244 30.361 18.656.563 27.96.425 29.685 8.361-12.14 7.422-15.924 8.41-23.838 7.48z" fill="#52612c"/><ellipse cx="1165.708099" cy="2113.0317" fill="url(#o)" rx="32.608358" ry="29.481314"/><path d="m1162.335 2139.433c-10.187-1.198-18.443-5.842-24.288-16.281-5.858-12.275-.322-20.711 7.197-29.921 10.52 8.819 14.872 21.877 11.244 30.361 18.656.563 27.96.425 29.685 8.361-12.14 7.422-15.924 8.41-23.838 7.48z" fill="#52612c"/><ellipse cx="1188.019081" cy="2183.693262" fill="url(#p)" rx="32.608358" ry="29.481314"/><path d="m1184.646 2210.094c-10.187-1.197-18.443-5.841-24.288-16.28-5.858-12.275-.322-20.711 7.197-29.922 10.52 8.819 14.872 21.878 11.244 30.362 18.656.562 27.96.424 29.685 8.36-12.14 7.423-15.924 8.411-23.838 7.48z" fill="#52612c"/><ellipse cx="1078.180403" cy="2089.633832" fill="url(#q)" rx="32.608358" ry="29.481314"/><path d="m1074.807 2116.035c-10.186-1.198-18.442-5.841-24.287-16.281-5.858-12.275-.323-20.711 7.196-29.921 10.52 8.819 14.872 21.877 11.244 30.361 18.656.563 27.96.425 29.685 8.361-12.14 7.422-15.924 8.41-23.838 7.48z" fill="#52612c"/><ellipse cx="1018.97049" cy="2042.838096" fill="url(#r)" rx="32.608358" ry="29.481314"/><path d="m1015.597 2069.239c-10.186-1.197-18.442-5.841-24.287-16.28-5.858-12.276-.323-20.711 7.196-29.922 10.52 8.819 14.872 21.878 11.244 30.362 18.656.562 27.96.424 29.685 8.36-12.14 7.423-15.924 8.411-23.838 7.48z" fill="#52612c"/><ellipse cx="1069.599256" cy="2157.487649" fill="url(#s)" rx="32.608358" ry="29.481314"/><path d="m1066.226 2183.889c-10.186-1.198-18.442-5.842-24.288-16.281-5.858-12.275-.322-20.711 7.197-29.921 10.52 8.819 14.872 21.877 11.244 30.361 18.656.563 27.96.425 29.685 8.36-12.14 7.423-15.924 8.411-23.838 7.481z" fill="#52612c"/><ellipse cx="1069.599256" cy="2157.487649" fill="url(#s)" rx="32.608358" ry="29.481314"/><path d="m1066.226 2183.889c-10.186-1.198-18.442-5.842-24.288-16.281-5.858-12.275-.322-20.711 7.197-29.921 10.52 8.819 14.872 21.877 11.244 30.361 18.656.563 27.96.425 29.685 8.36-12.14 7.423-15.924 8.411-23.838 7.481z" fill="#52612c"/><ellipse cx="722.742229" cy="1852.941838" fill="url(#t)" rx="19.057221" ry="25.643224"/><path d="m720.771 1875.906c-5.953-1.042-10.778-5.081-14.195-14.161-3.423-10.677-.188-18.015 4.206-26.026 6.148 7.671 8.692 19.029 6.572 26.408 10.903.49 16.34.37 17.348 7.272-7.095 6.457-9.306 7.316-13.931 6.507z" fill="#52612c"/><ellipse cx="730.143241" cy="1912.74595" fill="url(#u)" rx="32.608358" ry="29.481314"/><path d="m726.77 1939.147c-10.186-1.197-18.442-5.841-24.288-16.281-5.858-12.275-.322-20.71 7.197-29.921 10.52 8.819 14.872 21.877 11.244 30.361 18.656.563 27.96.425 29.685 8.361-12.14 7.423-15.924 8.411-23.838 7.48z" fill="#52612c"/><ellipse cx="754.4536" cy="1983.875468" fill="url(#v)" rx="32.608358" ry="29.481314"/><path d="m751.08 2010.277c-10.186-1.198-18.442-5.842-24.287-16.281-5.858-12.275-.323-20.711 7.196-29.921 10.52 8.819 14.872 21.877 11.244 30.361 18.656.562 27.96.425 29.685 8.36-12.14 7.423-15.924 8.411-23.838 7.481z" fill="#52612c"/><ellipse cx="1096.037533" cy="2235.77083" fill="url(#w)" rx="32.608358" ry="29.481314"/><path d="m1092.664 2262.172c-10.186-1.198-18.442-5.841-24.287-16.281-5.858-12.275-.323-20.711 7.196-29.921 10.52 8.819 14.872 21.877 11.244 30.361 18.656.563 27.96.425 29.685 8.361-12.14 7.422-15.924 8.41-23.838 7.48z" fill="#52612c"/><ellipse cx="1191.45154" cy="2239.518686" fill="url(#x)" rx="32.608358" ry="29.481314"/><path d="m1188.078 2265.92c-10.186-1.198-18.442-5.842-24.287-16.281-5.858-12.275-.323-20.711 7.196-29.921 10.52 8.819 14.872 21.877 11.244 30.361 18.656.563 27.96.425 29.685 8.361-12.14 7.422-15.924 8.41-23.838 7.48z" fill="#52612c"/><ellipse cx="784.705184" cy="2060.152518" fill="url(#y)" rx="32.608358" ry="29.481314"/><path d="m781.332 2086.554c-10.186-1.198-18.442-5.842-24.288-16.281-5.858-12.275-.322-20.711 7.197-29.921 10.52 8.819 14.872 21.877 11.244 30.361 18.656.562 27.96.425 29.685 8.36-12.14 7.423-15.924 8.411-23.838 7.481z" fill="#52612c"/><ellipse cx="834.684468" cy="2119.115146" fill="url(#z)" rx="32.608358" ry="29.481314"/><path d="m831.311 2145.516c-10.186-1.197-18.442-5.841-24.287-16.28-5.858-12.276-.323-20.711 7.196-29.922 10.52 8.819 14.872 21.878 11.244 30.362 18.656.562 27.96.424 29.685 8.36-12.14 7.423-15.924 8.411-23.838 7.48z" fill="#52612c"/><ellipse cx="904.378618" cy="2171.994328" fill="url(#A)" rx="32.608358" ry="29.481314"/><path d="m901.005 2198.396c-10.186-1.198-18.442-5.842-24.287-16.281-5.858-12.275-.323-20.711 7.196-29.922 10.52 8.82 14.873 21.878 11.244 30.362 18.656.562 27.96.424 29.685 8.36-12.14 7.423-15.924 8.411-23.838 7.481z" fill="#52612c"/><ellipse cx="1001.452614" cy="2210.037372" fill="url(#B)" rx="32.608358" ry="29.481314"/><path d="m998.079 2236.439c-10.186-1.198-18.442-5.842-24.287-16.281-5.858-12.275-.323-20.711 7.196-29.922 10.52 8.82 14.873 21.878 11.244 30.362 18.656.562 27.96.424 29.685 8.36-12.14 7.423-15.924 8.411-23.838 7.481z" fill="#52612c"/><path d="m1021.503 1772.632c87.718-35.55 183.031 37.541 219.678 152.933 5.455 48.21-24.223 84.7-63.613 81.139-29.025-.667-88.056-31.424-185.751-103.782-17.582-38.923 3.648-111.319 29.686-130.29z" fill="#eab92d"/><path d="m814.422 1662.281c26.774-43.804 77.745-70.281 148.809-70.281 26.193 0 53.481 3.597 81.173 10.333l3.337 5.438 24.294 92.835c3.041 11.619 5.377 11.303 5.213-.707-.393-28.827 1.08-61.438 1.37-78.299.08-4.594 2.945-6.538 4.315-7.987 127.567 43.58 256.869 148.284 321.798 270.392 85.695 161.163 27.013 292.006-130.962 292.006-157.976 0-355.805-130.843-441.5-292.006-41.52-78.083-49.148-149.048-28.012-201.464l27.183 9.7zm205.611 228.96c-32.578-61.267-14.906-111.009 39.44-111.009 54.345 0 124.916 49.742 157.494 111.009 32.578 61.268 14.906 111.009-39.44 111.009-54.345 0-124.916-49.741-157.494-111.009z" fill="#ffec0a" fill-rule="evenodd"/><path d="m940.805 1758.705c-37.488-25.341-74.636-48.78-109.944-67.554l-11.121-19.612c76.572 41.989 139.914 84.166 190.324 127.153-.951 1.814-1.728 3.772-2.471 5.775-22.865-17.226-44.693-30.827-66.788-45.762z" fill="#ffd306"/><path d="m1075.632 1710.763c.022-1.556 1.51-1.158 1.52-2.724.183-27.079 1.706-50.453 1.304-65.315-.309-11.458.907-11.571 2.715-.253l22.223 139.115-26.817-7.627c.996-16.37-1.266-40.48-.945-63.196z" fill="#ffd306"/><path d="m1166.805 1820.81c18.595-36.403 64.566-69.079 119.087-84.986l21.314 19.612c-38.022 16.826-86.174 48.446-123.794 81.718z" fill="#ffd306"/><path d="m1218.221 1884.005c54.68-.985 119.729 13.949 194.958 44.673l3.235 9.806-118.671-27.471-74.308-17.201z" fill="#ffd306"/><path d="m1226.795 1968.992 5.487-14.164c24.434 20.992 45.667 43.984 65.528 62.105 47.385 41.57 86.583 78.52 109.396 108.957l-5.02 5.448c-56.638-57.717-116.889-113.99-175.391-162.346z" fill="#ffd306"/><path d="m1151.875 1991.873 9.076 2.179c24.856 64.165 43.734 124.465 56.251 176.511l-11.055-2.179c-12.979-59.649-30.749-119.179-54.272-176.511z" fill="#ffd306"/><path d="m1060.561 1937.394c3.558 3.739 8.739 8.482 15.449 14.165l-60.528 131.838-9.993-7.627z" fill="#ffd306"/><path d="m827.771 1873.826-.886-1.806q62.706-9.489 126.736-21.791 9.483-1.822 53.422 3.268l6.301 17.434-56.987-1.09-117.715 26.15z" fill="#ffd306"/><path d="m974.205 1672.628-63.726-75.18 12.696-2.179c20.297 26.694 49.984 49.61 67.105 74.091 28.016 36.641 45.038 72.635 68.894 103.509l-13.275 1.09z" fill="#ffd306"/><g fill="#fffc03"><path d="m969.873 1654.273 73.186 108.326h-11.875l-61.449-108.241c-.566-.997-.504-1.035.138-.085z"/><path d="m877.154 1659.392 129.894 117.371-3.041 5.448-126.901-122.767c-.824-.797-.802-.82.048-.052z"/><path d="m865.811 1745.066 105.22 57.071 19.509 10.582-1.061 5.448-123.706-73.035c-.987-.583-.97-.612.038-.066z"/><path d="m861.261 1835.938 136.789 22.543 2.245 9.806-139.06-32.218c-1.117-.259-1.105-.318.026-.131z"/><path d="m899.844 1950.471 126.015-39.691 6.614 8.717-132.588 31.123c-1.116.262-1.135.195-.041-.149z"/><path d="m1031.44 2017.966 38.107-62.247 7.729 7.361-45.596 55.058c-.731.883-.838.806-.24-.172z"/><path d="m1126.501 2116.815-7.475-129.461 9.663 5.144-2.034 124.314c-.019 1.146-.088 1.148-.154.003z"/><path d="m1286.248 2142.221-91.809-137.737 8.751-1.09 83.142 138.773c.589.984.552 1.008-.084.054z"/><path d="m1364.476 2109.864-134.613-122.51 4.859-5.751 129.813 128.199c.815.806.789.833-.059.062z"/><path d="m1378.217 1931.144-143.307-23.632-6.372-11.986 149.707 35.477c1.115.265 1.102.328-.028.141z"/><path d="m1278.637 1834.034-69.281 21.423-5.344-10.051 74.558-11.664c1.132-.177 1.162-.046.067.292z"/><path d="m1222.375 1724.026-55.441 85.424-8.837-7.313 64.093-78.246c.726-.887.809-.826.185.135z"/><path d="m1109.179 1652.446 6.847 126.496-10.767-7.313 3.743-119.181c.036-1.145.115-1.146.177-.002z"/><path d="m1329.057 1995.917-86.227-43.733 1.879-8.716 84.435 52.295c.974.604.936.673-.087.154z"/></g><path d="m925.242 1433.653c-102.184 288.818 514.527 661.096 670.04 445.019l-79.904 142.909c-2.58 4.613-8.721 9.785-13.706 11.543-378.162 133.303-707.008-291.153-655.806-424.134.76-1.973 2.086-5.138 2.961-7.063z" fill="#668539"/><ellipse cx="1089.538387" cy="1952.793311" fill="url(#C)" rx="35.710398" ry="30.741472"/><path d="m1085.844 1980.323c-11.155-1.249-20.197-6.091-26.598-16.977-6.415-12.799-.353-21.596 7.881-31.2 11.521 9.196 16.287 22.813 12.314 31.659 20.431.587 30.62.443 32.509 8.718-13.295 7.74-17.439 8.77-26.106 7.8z" fill="#52612c"/><ellipse cx="880.91448" cy="1566.817057" fill="url(#D)" rx="30.071914" ry="24.397993"/><path d="m877.804 1588.666c-9.394-.991-17.008-4.834-22.399-13.474-5.402-10.158-.297-17.139 6.637-24.762 9.702 7.299 13.715 18.106 10.369 25.127 17.205.465 25.786.351 27.376 6.918-11.195 6.143-14.685 6.961-21.983 6.191z" fill="#52612c"/><ellipse cx="927.901846" cy="1650.258194" fill="url(#E)" rx="35.710398" ry="30.741472"/><path d="m924.208 1677.788c-11.156-1.249-20.197-6.091-26.598-16.977-6.416-12.8-.354-21.596 7.88-31.2 11.521 9.196 16.288 22.812 12.314 31.659 20.431.587 30.62.443 32.509 8.718-13.295 7.74-17.439 8.77-26.105 7.8z" fill="#52612c"/><ellipse cx="860.240039" cy="1634.643478" fill="url(#F)" rx="26.312925" ry="20.982274"/><path d="m857.518 1653.434c-8.22-.853-14.882-4.158-19.599-11.588-4.727-8.736-.26-14.74 5.807-21.295 8.49 6.277 12.002 15.57 9.074 21.609 15.054.4 22.562.302 23.954 5.95-9.796 5.283-12.85 5.986-19.236 5.324z" fill="#52612c"/><ellipse cx="895.950437" cy="1732.015885" fill="url(#G)" rx="35.710398" ry="30.741472"/><path d="m892.256 1759.546c-11.155-1.249-20.197-6.092-26.598-16.977-6.415-12.8-.353-21.596 7.881-31.2 11.521 9.196 16.287 22.812 12.314 31.659 20.431.586 30.62.443 32.509 8.717-13.295 7.741-17.439 8.771-26.106 7.801z" fill="#52612c"/><ellipse cx="960.793003" cy="1814.212709" fill="url(#H)" rx="35.710398" ry="30.741472"/><path d="m957.099 1841.742c-11.156-1.248-20.197-6.091-26.598-16.976-6.415-12.8-.354-21.596 7.881-31.201 11.521 9.196 16.287 22.813 12.314 31.66 20.43.586 30.619.442 32.508 8.717-13.294 7.74-17.438 8.771-26.105 7.8z" fill="#52612c"/><ellipse cx="982.407191" cy="1732.015885" fill="url(#I)" rx="35.710398" ry="30.741472"/><path d="m978.713 1759.546c-11.155-1.249-20.197-6.092-26.598-16.977-6.415-12.8-.353-21.596 7.881-31.2 11.521 9.196 16.287 22.812 12.314 31.659 20.43.586 30.62.443 32.509 8.717-13.295 7.741-17.439 8.771-26.106 7.801z" fill="#52612c"/><ellipse cx="1032.2138" cy="1891.310368" fill="url(#J)" rx="35.710398" ry="30.741472"/><path d="m1028.52 1918.84c-11.156-1.249-20.197-6.091-26.598-16.977-6.416-12.799-.354-21.596 7.88-31.2 11.521 9.196 16.288 22.813 12.314 31.659 20.431.587 30.62.443 32.509 8.718-13.295 7.74-17.439 8.77-26.105 7.8z" fill="#52612c"/><ellipse cx="1053.827988" cy="1818.116388" fill="url(#K)" rx="35.710398" ry="30.741472"/><path d="m1050.134 1845.646c-11.156-1.249-20.197-6.091-26.598-16.977-6.416-12.799-.354-21.596 7.881-31.2 11.521 9.196 16.287 22.813 12.314 31.659 20.43.587 30.619.443 32.508 8.718-13.294 7.74-17.438 8.77-26.105 7.8z" fill="#52612c"/><ellipse cx="1520.412536" cy="1972.799666" fill="url(#L)" rx="29.602041" ry="26.593813"/><path d="m1517.35 1996.615c-9.247-1.08-16.742-5.269-22.048-14.686-5.318-11.073-.293-18.682 6.533-26.991 9.55 7.955 13.501 19.735 10.207 27.388 16.936.507 25.383.383 26.948 7.541-11.02 6.696-14.455 7.587-21.64 6.748z" fill="#52612c"/><ellipse cx="1454.630224" cy="2038.674247" fill="url(#M)" rx="31.481535" ry="27.325753"/><path d="m1451.374 2063.145c-9.835-1.11-17.806-5.414-23.449-15.09-5.655-11.378-.311-19.197 6.948-27.734 10.156 8.174 14.358 20.278 10.856 28.142 18.011.521 26.993.393 28.659 7.749-11.721 6.88-15.374 7.795-23.014 6.933z" fill="#52612c"/><ellipse cx="1397.77551" cy="1972.799666" fill="url(#N)" rx="35.710398" ry="30.741472"/><path d="m1394.081 2000.329c-11.155-1.248-20.196-6.091-26.598-16.976-6.415-12.8-.353-21.596 7.881-31.201 11.521 9.196 16.287 22.813 12.314 31.66 20.431.586 30.62.442 32.509 8.717-13.295 7.74-17.439 8.771-26.106 7.8z" fill="#52612c"/><ellipse cx="1298.162293" cy="1961.576589" fill="url(#O)" rx="35.710398" ry="30.741472"/><path d="m1294.468 1989.106c-11.155-1.249-20.197-6.091-26.598-16.976-6.415-12.8-.353-21.596 7.881-31.201 11.521 9.196 16.287 22.813 12.314 31.659 20.43.587 30.62.443 32.509 8.718-13.295 7.74-17.439 8.77-26.106 7.8z" fill="#52612c"/><ellipse cx="1322.595724" cy="2035.258528" fill="url(#P)" rx="35.710398" ry="30.741472"/><path d="m1318.902 2062.788c-11.156-1.249-20.197-6.091-26.599-16.976-6.415-12.8-.353-21.597 7.881-31.201 11.521 9.196 16.288 22.813 12.314 31.659 20.431.587 30.62.443 32.509 8.718-13.295 7.74-17.439 8.77-26.105 7.8z" fill="#52612c"/><ellipse cx="1202.308066" cy="1937.178595" fill="url(#Q)" rx="35.710398" ry="30.741472"/><path d="m1198.614 1964.708c-11.155-1.249-20.197-6.091-26.598-16.976-6.415-12.8-.354-21.596 7.881-31.201 11.521 9.196 16.287 22.813 12.314 31.659 20.43.587 30.62.443 32.508 8.718-13.294 7.74-17.438 8.77-26.105 7.8z" fill="#52612c"/><ellipse cx="1137.4655" cy="1888.382609" fill="url(#R)" rx="35.710398" ry="30.741472"/><path d="m1133.771 1915.912c-11.155-1.249-20.197-6.091-26.598-16.976-6.415-12.8-.353-21.596 7.881-31.201 11.521 9.196 16.287 22.813 12.314 31.659 20.431.587 30.62.443 32.509 8.718-13.295 7.74-17.439 8.77-26.106 7.8z" fill="#52612c"/><ellipse cx="1192.910593" cy="2007.932776" fill="url(#S)" rx="35.710398" ry="30.741472"/><path d="m1189.216 2035.462c-11.155-1.248-20.196-6.091-26.598-16.976-6.415-12.8-.353-21.596 7.881-31.2 11.521 9.196 16.287 22.812 12.314 31.659 20.431.586 30.62.442 32.509 8.717-13.295 7.74-17.439 8.771-26.106 7.8z" fill="#52612c"/><path d="m1163.276 1524.853c96.062-37.069 200.442 39.146 240.575 159.47 5.974 50.271-26.527 88.321-69.664 84.608-8.234-107.457-72.907-139.555-203.421-108.219-19.255-40.587 3.995-116.077 32.51-135.859z" fill="#eab92d"/><path d="m936.494 1409.785c29.322-45.676 85.142-73.285 162.967-73.285 28.684 0 58.568 3.751 88.894 10.774l3.655 5.671 26.475 96.332c3.402 12.376 6.014 12.005 5.831-.829-.422-29.497 1.19-63.501 1.508-81.083.087-4.79 3.225-6.818 4.725-8.328 139.703 45.443 281.306 154.622 352.412 281.95 93.847 168.051 29.582 304.487-143.422 304.487-173.003 0-389.652-136.436-483.5-304.487-45.469-81.421-53.822-155.42-30.676-210.076l29.769 10.114zm225.171 231.202c-35.677-63.887-16.323-115.754 43.193-115.754 59.515 0 136.799 51.867 172.477 115.754 35.677 63.886 16.323 115.754-43.193 115.754-59.515 0-136.799-51.868-172.477-115.754z" fill="#ffec0a" fill-rule="evenodd"/><path d="m1074.901 1510.33c-41.054-26.424-81.736-50.864-120.403-70.441l-12.179-20.45c83.856 43.783 153.223 87.763 208.43 132.588-1.042 1.891-1.893 3.933-2.707 6.021-25.039-17.962-48.945-32.144-73.141-47.718z" fill="#ffd306"/><path d="m1222.554 1460.34c.024-1.623 1.653-1.208 1.665-2.841.2-28.236 1.868-52.609 1.443-67.571-.347-12.244 1.016-12.377 3.042-.297l24.253 144.558-29.368-7.953c1.09-17.069-1.386-42.209-1.035-65.896z" fill="#ffd306"/><path d="m1322.4 1575.091c20.364-37.959 70.708-72.032 130.416-88.62l23.342 20.451c-41.64 17.545-94.373 50.516-135.571 85.211z" fill="#ffd306"/><path d="m1378.707 1640.987c59.882-1.028 131.119 14.545 213.505 46.582l3.543 10.225-129.961-28.645-81.376-17.937z" fill="#ffd306"/><path d="m1388.097 1729.606 6.01-14.77c26.757 21.891 50.011 45.865 71.76 64.761 51.894 43.346 94.821 81.876 119.804 113.614l-5.498 5.681c-62.026-60.184-128.008-118.862-192.076-169.286z" fill="#ffd306"/><path d="m1306.05 1753.465 9.939 2.273c27.221 66.907 47.895 129.785 61.602 184.055l-12.107-2.272c-14.213-62.198-33.673-124.273-59.434-184.056z" fill="#ffd306"/><path d="m1206.049 1696.658c3.896 3.899 9.57 8.845 16.918 14.77l-66.285 137.474-10.944-7.953z" fill="#ffd306"/><path d="m951.114 1630.373-.97-1.884q68.67-9.894 138.792-22.723 10.385-1.899 58.505 3.409l6.9 18.178-62.409-1.136-128.913 27.268z" fill="#ffd306"/><path d="m1111.479 1420.575-69.79-78.394 13.904-2.273c22.229 27.836 54.74 51.732 73.49 77.258 30.68 38.208 49.322 75.74 75.448 107.934l-14.538 1.136z" fill="#ffd306"/><path d="m1106.745 1401.45 80.138 112.941h-13.005l-67.281-112.845c-.627-1.052-.561-1.095.148-.096z" fill="#fffc03"/><path d="m1005.19 1406.768 142.255 122.393-3.33 5.68-138.975-128.017c-.901-.829-.878-.855.05-.056z" fill="#fffc03"/><path d="m992.745 1496.095 115.257 59.524 21.365 11.034-1.162 5.681-135.497-76.17c-1.068-.6-1.052-.631.037-.069z" fill="#fffc03"/><path d="m987.738 1590.857 149.853 23.515 2.459 10.225-152.337-33.606c-1.196-.264-1.185-.324.025-.134z" fill="#fffc03"/><path d="m1029.999 1710.306 138.047-41.399 7.244 9.089-145.251 32.464c-1.195.267-1.213.198-.04-.154z" fill="#fffc03"/><path d="m1174.171 1780.654 41.719-64.888 8.464 7.675-49.927 57.405c-.804.925-.919.839-.256-.192z" fill="#fffc03"/><path d="m1278.259 1883.695-8.183-134.942 10.582 5.364-2.226 129.574c-.022 1.225-.099 1.227-.173.004z" fill="#fffc03"/><path d="m1453.194 1910.224-100.531-143.609 9.583-1.136 91.039 144.684c.653 1.037.612 1.064-.091.061z" fill="#fffc03"/><path d="m1538.881 1876.504-147.424-127.751 5.321-5.997 142.163 133.681c.893.839.866.869-.06.067z" fill="#fffc03"/><path d="m1553.975 1690.149-156.99-24.651-6.98-12.498 163.998 37.005c1.194.269 1.182.334-.028.144z" fill="#fffc03"/><path d="m1444.915 1588.867-75.916 22.351-5.852-10.48 81.702-12.171c1.211-.18 1.241-.046.066.3z" fill="#fffc03"/><path d="m1383.245 1474.187-60.703 89.058-9.678-7.626 70.184-81.583c.799-.929.887-.861.197.151z" fill="#fffc03"/><path d="m1259.296 1399.583 7.495 131.85-11.791-7.626 4.097-124.221c.04-1.224.129-1.225.199-.003z" fill="#fffc03"/><path d="m1500.118 1757.697-94.46-45.617 2.057-9.089 92.489 54.544c1.055.622 1.017.695-.086.162z" fill="#fffc03"/><path d="m1079.794 1213.621c-100.388 284.265 505.481 650.675 658.26 438.004l-78.501 140.66c-2.533 4.539-8.568 9.628-13.469 11.359-371.507 131.2-694.572-286.565-644.269-417.452.746-1.941 2.048-5.054 2.906-6.947z" fill="#668539"/><ellipse cx="1241.202138" cy="1724.577926" fill="url(#T)" rx="35.082604" ry="30.256856"/><path d="m1237.573 1751.674c-10.959-1.229-19.842-5.995-26.131-16.709-6.302-12.598-.347-21.256 7.743-30.709 11.318 9.051 16.001 22.453 12.097 31.16 20.072.577 30.082.436 31.937 8.581-13.061 7.618-17.132 8.632-25.646 7.677z" fill="#52612c"/><ellipse cx="1036.24587" cy="1344.686288" fill="url(#U)" rx="29.543246" ry="24.013378"/><path d="m1033.19 1366.191c-9.229-.976-16.709-4.758-22.005-13.261-5.307-9.999-.292-16.87 6.52-24.372 9.531 7.183 13.474 17.82 10.187 24.73 16.902.458 25.332.346 26.895 6.81-10.999 6.046-14.427 6.851-21.597 6.093z" fill="#52612c"/><ellipse cx="1082.407191" cy="1426.81204" fill="url(#V)" rx="35.082604" ry="30.256856"/><path d="m1078.778 1453.908c-10.959-1.229-19.842-5.995-26.131-16.709-6.302-12.598-.347-21.256 7.743-30.709 11.318 9.051 16.001 22.453 12.097 31.16 20.072.578 30.082.436 31.938 8.581-13.062 7.618-17.133 8.632-25.647 7.677z" fill="#52612c"/><ellipse cx="1015.934888" cy="1411.443478" fill="url(#W)" rx="25.85034" ry="20.651505"/><path d="m1013.261 1429.937c-8.076-.839-14.621-4.091-19.254-11.404-4.644-8.599-.256-14.508 5.705-20.96 8.339 6.178 11.79 15.325 8.913 21.268 14.79.394 22.166.297 23.533 5.856-9.624 5.2-12.624 5.892-18.897 5.24z" fill="#52612c"/><ellipse cx="1051.017493" cy="1507.280885" fill="url(#X)" rx="35.082604" ry="30.256856"/><path d="m1047.388 1534.377c-10.959-1.23-19.842-5.995-26.13-16.709-6.303-12.599-.347-21.256 7.742-30.709 11.319 9.051 16.001 22.453 12.098 31.16 20.071.577 30.081.436 31.937 8.58-13.061 7.618-17.132 8.632-25.647 7.678z" fill="#52612c"/><ellipse cx="1114.720117" cy="1588.18194" fill="url(#Y)" rx="35.082604" ry="30.256856"/><path d="m1111.091 1615.278c-10.959-1.229-19.842-5.995-26.131-16.709-6.302-12.598-.347-21.256 7.743-30.709 11.318 9.051 16.001 22.453 12.097 31.16 20.072.577 30.082.436 31.937 8.581-13.061 7.618-17.132 8.632-25.646 7.677z" fill="#52612c"/><ellipse cx="1135.954325" cy="1507.280885" fill="url(#Z)" rx="35.082604" ry="30.256856"/><path d="m1132.325 1534.377c-10.959-1.23-19.842-5.995-26.13-16.709-6.303-12.599-.348-21.256 7.742-30.709 11.318 9.051 16.001 22.453 12.097 31.16 20.072.577 30.082.436 31.938 8.58-13.061 7.618-17.132 8.632-25.647 7.678z" fill="#52612c"/><ellipse cx="1184.885326" cy="1664.064214" fill="url(#aa)" rx="35.082604" ry="30.256856"/><path d="m1181.256 1691.16c-10.959-1.229-19.842-5.995-26.13-16.709-6.303-12.598-.348-21.256 7.742-30.709 11.318 9.052 16.001 22.453 12.097 31.16 20.072.578 30.082.436 31.938 8.581-13.061 7.618-17.132 8.632-25.647 7.677z" fill="#52612c"/><ellipse cx="1206.119534" cy="1592.02408" fill="url(#ab)" rx="35.082604" ry="30.256856"/><path d="m1202.49 1619.12c-10.959-1.229-19.841-5.995-26.13-16.709-6.303-12.598-.347-21.256 7.742-30.709 11.319 9.051 16.001 22.453 12.098 31.16 20.071.578 30.081.436 31.937 8.581-13.061 7.618-17.132 8.632-25.647 7.677z" fill="#52612c"/><ellipse cx="1664.501458" cy="1744.268896" fill="url(#ac)" rx="29.081633" ry="26.174582"/><path d="m1661.493 1767.709c-9.085-1.063-16.448-5.186-21.661-14.455-5.224-10.898-.288-18.388 6.418-26.565 9.383 7.83 13.264 19.423 10.028 26.956 16.638.499 24.936.377 26.475 7.423-10.827 6.59-14.202 7.467-21.26 6.641z" fill="#52612c"/><ellipse cx="1599.875607" cy="1809.105017" fill="url(#ad)" rx="30.928086" ry="26.894983"/><path d="m1596.676 1833.19c-9.661-1.092-17.492-5.329-23.036-14.852-5.556-11.199-.306-18.894 6.826-27.297 9.978 8.046 14.106 19.958 10.664 27.698 17.695.513 26.52.387 28.156 7.627-11.515 6.772-15.104 7.673-22.61 6.824z" fill="#52612c"/><ellipse cx="1544.020408" cy="1744.268896" fill="url(#ae)" rx="35.082604" ry="30.256856"/><path d="m1540.391 1771.365c-10.959-1.23-19.842-5.995-26.13-16.709-6.303-12.598-.347-21.256 7.742-30.709 11.318 9.051 16.001 22.453 12.097 31.16 20.072.577 30.082.436 31.938 8.58-13.061 7.618-17.132 8.633-25.647 7.678z" fill="#52612c"/><ellipse cx="1446.158406" cy="1733.222742" fill="url(#af)" rx="35.082604" ry="30.256856"/><path d="m1442.529 1760.318c-10.959-1.229-19.842-5.995-26.13-16.709-6.303-12.598-.347-21.255 7.742-30.708 11.318 9.051 16.001 22.453 12.097 31.16 20.072.577 30.082.436 31.938 8.58-13.061 7.618-17.132 8.632-25.647 7.677z" fill="#52612c"/><ellipse cx="1470.162293" cy="1805.743144" fill="url(#ag)" rx="35.082604" ry="30.256856"/><path d="m1466.533 1832.839c-10.959-1.229-19.842-5.995-26.13-16.709-6.303-12.598-.348-21.256 7.742-30.709 11.318 9.051 16.001 22.453 12.097 31.16 20.072.578 30.082.436 31.938 8.581-13.061 7.618-17.133 8.632-25.647 7.677z" fill="#52612c"/><ellipse cx="1351.98931" cy="1709.209365" fill="url(#ah)" rx="35.082604" ry="30.256856"/><path d="m1348.36 1736.305c-10.959-1.229-19.842-5.995-26.13-16.709-6.303-12.598-.348-21.256 7.742-30.708 11.318 9.051 16.001 22.453 12.097 31.16 20.072.577 30.082.435 31.938 8.58-13.061 7.618-17.133 8.632-25.647 7.677z" fill="#52612c"/><ellipse cx="1288.286686" cy="1661.182609" fill="url(#ai)" rx="35.082604" ry="30.256856"/><path d="m1284.657 1688.278c-10.959-1.229-19.841-5.995-26.13-16.709-6.302-12.598-.347-21.255 7.742-30.708 11.319 9.051 16.001 22.453 12.098 31.16 20.071.577 30.081.436 31.937 8.58-13.061 7.618-17.132 8.632-25.647 7.677z" fill="#52612c"/><ellipse cx="1342.757046" cy="1778.848161" fill="url(#aj)" rx="35.082604" ry="30.256856"/><path d="m1339.128 1805.944c-10.959-1.229-19.842-5.995-26.131-16.709-6.302-12.598-.347-21.256 7.743-30.709 11.318 9.051 16.001 22.453 12.097 31.16 20.072.578 30.082.436 31.937 8.581-13.061 7.618-17.132 8.632-25.646 7.677z" fill="#52612c"/><path d="m1313.643 1303.383c94.374-36.484 196.919 38.529 236.347 156.957 5.868 49.478-26.061 86.928-68.44 83.274-8.089-105.763-71.626-137.355-199.845-106.513-18.916-39.947 3.925-114.247 31.938-133.718z" fill="#eab92d"/><path d="m1090.849 1190.13c28.806-44.956 83.645-72.13 160.101-72.13 28.18 0 57.539 3.692 87.331 10.604l3.591 5.582 26.015 94.831c3.339 12.171 5.904 11.807 5.723-.813-.414-29.052 1.17-62.521 1.482-79.825.085-4.715 3.168-6.711 4.642-8.197 137.246 44.726 276.36 152.184 346.216 277.505 92.197 165.402 29.062 299.687-140.9 299.687s-382.802-134.285-475-299.687c-44.669-80.137-52.876-152.97-30.137-206.765l29.246 9.956zm221.212 227.557c-35.05-62.879-16.036-113.929 42.433-113.929s134.395 51.05 169.445 113.929 16.036 113.929-42.433 113.929-134.395-51.05-169.445-113.929z" fill="#ffec0a" fill-rule="evenodd"/><path d="m1226.822 1289.09c-40.332-26.008-80.299-50.062-118.286-69.331l-11.965-20.128c82.382 43.093 150.53 86.38 204.766 130.498-1.024 1.862-1.86 3.871-2.659 5.927-24.6-17.679-48.085-31.638-71.856-46.966z" fill="#ffd306"/><path d="m1371.879 1239.888c.024-1.598 1.625-1.189 1.636-2.796.196-27.791 1.835-51.78 1.417-66.526-.341-12.04.997-12.17 2.986-.291l23.83 142.298-28.852-7.828c1.071-16.8-1.362-41.544-1.017-64.857z" fill="#ffd306"/><path d="m1469.97 1352.829c20.006-37.36 69.465-70.896 128.123-87.222l22.932 20.128c-40.908 17.269-92.714 49.72-133.187 83.868z" fill="#ffd306"/><path d="m1525.288 1417.687c58.828-1.012 128.813 14.315 209.751 45.848l3.48 10.064-127.676-28.194-79.946-17.654z" fill="#ffd306"/><path d="m1534.512 1504.909 5.904-14.537c26.287 21.545 49.132 45.142 70.499 63.74 50.981 42.663 93.154 80.585 117.697 111.823l-5.401 5.591c-60.935-59.235-125.758-116.988-188.699-166.617z" fill="#ffd306"/><path d="m1453.907 1528.392 9.765 2.237c26.742 65.852 47.053 127.739 60.519 181.154l-11.894-2.237c-13.963-61.217-33.082-122.314-58.39-181.154z" fill="#ffd306"/><path d="m1355.665 1472.48c3.827 3.837 9.401 8.706 16.62 14.538l-65.12 135.306-10.751-7.828z" fill="#ffd306"/><path d="m1105.211 1407.24-.953-1.854q67.463-9.738 136.352-22.364 10.203-1.87 57.476 3.354l6.779 17.892-61.311-1.118-126.647 26.838z" fill="#ffd306"/><path d="m1262.757 1200.749-68.563-77.158 13.66-2.236c21.838 27.397 53.777 50.916 72.197 76.04 30.142 37.605 48.456 74.546 74.122 106.232l-14.283 1.118z" fill="#ffd306"/><path d="m1258.106 1181.926 78.729 111.16h-12.776l-66.099-111.066c-.616-1.035-.55-1.077.146-.094z" fill="#fffc03"/><path d="m1158.337 1187.161 139.754 120.462-3.272 5.592-136.531-125.999c-.885-.817-.863-.842.049-.055z" fill="#fffc03"/><path d="m1146.111 1275.079 113.23 58.586 20.99 10.86-1.142 5.591-133.115-74.969c-1.049-.591-1.033-.621.037-.068z" fill="#fffc03"/><path d="m1141.193 1368.347 147.217 23.144 2.416 10.064-149.658-33.076c-1.176-.26-1.164-.319.025-.132z" fill="#fffc03"/><path d="m1182.711 1485.913 135.619-40.747 7.116 8.946-142.695 31.952c-1.176.263-1.193.196-.04-.151z" fill="#fffc03"/><path d="m1324.346 1555.153 40.986-63.866 8.316 7.555-49.05 56.5c-.789.909-.902.825-.252-.189z" fill="#fffc03"/><path d="m1426.605 1656.571-8.039-132.817 10.396 5.28-2.188 127.533c-.02 1.205-.096 1.206-.169.004z" fill="#fffc03"/><path d="m1598.466 1682.68-98.765-141.345 9.415-1.119 89.439 142.405c.64 1.02.6 1.046-.089.059z" fill="#fffc03"/><path d="m1682.645 1649.491-144.832-125.737 5.228-5.902 139.663 131.573c.877.826.85.856-.059.066z" fill="#fffc03"/><path d="m1697.472 1466.074-154.229-24.262-6.856-12.301 161.112 36.421c1.175.265 1.163.329-.027.142z" fill="#fffc03"/><path d="m1590.33 1366.389-74.58 21.999-5.75-10.316 80.264-11.978c1.192-.178 1.221-.046.066.295z" fill="#fffc03"/><path d="m1529.746 1253.516-59.637 87.655-9.507-7.506 68.95-80.298c.784-.913.871-.847.194.149z" fill="#fffc03"/><path d="m1407.975 1180.087 7.363 129.773-11.584-7.506 4.026-122.265c.039-1.203.127-1.204.195-.002z" fill="#fffc03"/><path d="m1644.562 1532.556-92.798-44.897 2.021-8.946 90.863 53.684c1.037.613.998.684-.086.159z" fill="#fffc03"/><path d="m1243.538 982.389c-103.136 282.087 519.315 645.69 676.276 434.649l-80.608 139.509c-2.625 4.544-8.789 9.609-13.756 11.303-381.799 130.237-713.705-284.328-662.043-414.168.776-1.95 2.13-5.077 3.021-6.977z" fill="#668539"/><ellipse cx="1409.36346" cy="1489.431438" fill="url(#ak)" rx="36.04276" ry="30.025084"/><path d="m1405.635 1516.32c-11.259-1.22-20.385-5.95-26.846-16.581-6.475-12.502-.356-21.093 7.955-30.474 11.628 8.982 16.438 22.281 12.428 30.922 20.621.573 30.905.432 32.811 8.514-13.418 7.56-17.601 8.566-26.348 7.619z" fill="#52612c"/><ellipse cx="1198.797862" cy="1112.449833" fill="url(#al)" rx="30.351798" ry="23.829431"/><path d="m1195.658 1133.79c-9.481-.968-17.166-4.722-22.607-13.16-5.452-9.922-.3-16.74 6.698-24.185 9.793 7.128 13.844 17.683 10.467 24.541 17.364.454 26.025.343 27.63 6.757-11.3 6-14.822 6.799-22.188 6.047z" fill="#52612c"/><ellipse cx="1246.222546" cy="1193.946488" fill="url(#am)" rx="36.04276" ry="30.025084"/><path d="m1242.494 1220.835c-11.259-1.22-20.385-5.949-26.846-16.581-6.475-12.502-.356-21.093 7.955-30.474 11.628 8.982 16.438 22.281 12.428 30.922 20.621.573 30.905.432 32.811 8.514-13.418 7.56-17.601 8.566-26.348 7.619z" fill="#52612c"/><ellipse cx="1177.931001" cy="1178.695652" fill="url(#an)" rx="26.557823" ry="20.493311"/><path d="m1175.184 1197.048c-8.297-.833-15.021-4.061-19.781-11.317-4.771-8.533-.263-14.397 5.861-20.8 8.568 6.131 12.113 15.208 9.158 21.106 15.194.391 22.772.295 24.176 5.811-9.887 5.16-12.969 5.847-19.414 5.2z" fill="#52612c"/><ellipse cx="1213.973761" cy="1273.798928" fill="url(#ao)" rx="36.04276" ry="30.025084"/><path d="m1210.245 1300.687c-11.259-1.22-20.385-5.949-26.845-16.581-6.475-12.502-.357-21.093 7.954-30.473 11.628 8.982 16.439 22.281 12.428 30.921 20.621.573 30.905.433 32.812 8.515-13.419 7.559-17.601 8.566-26.349 7.618z" fill="#52612c"/><ellipse cx="1279.419825" cy="1354.080268" fill="url(#ap)" rx="36.04276" ry="30.025084"/><path d="m1275.691 1380.968c-11.259-1.219-20.385-5.949-26.845-16.581-6.475-12.501-.357-21.092 7.954-30.473 11.628 8.982 16.439 22.281 12.428 30.922 20.621.572 30.905.432 32.812 8.514-13.419 7.56-17.601 8.566-26.349 7.618z" fill="#52612c"/><ellipse cx="1301.23518" cy="1273.798928" fill="url(#aq)" rx="36.04276" ry="30.025084"/><path d="m1297.507 1300.687c-11.26-1.22-20.385-5.949-26.846-16.581-6.475-12.502-.357-21.093 7.954-30.473 11.628 8.982 16.439 22.281 12.429 30.921 20.62.573 30.905.433 32.811 8.515-13.418 7.559-17.601 8.566-26.348 7.618z" fill="#52612c"/><ellipse cx="1351.505345" cy="1429.381271" fill="url(#ar)" rx="36.04276" ry="30.025084"/><path d="m1347.777 1456.269c-11.259-1.219-20.385-5.949-26.846-16.581-6.475-12.501-.357-21.092 7.954-30.473 11.629 8.982 16.439 22.281 12.429 30.922 20.621.572 30.905.432 32.811 8.514-13.418 7.56-17.601 8.566-26.348 7.618z" fill="#52612c"/><ellipse cx="1373.3207" cy="1357.892977" fill="url(#as)" rx="36.04276" ry="30.025084"/><path d="m1369.592 1384.781c-11.259-1.22-20.385-5.949-26.846-16.581-6.474-12.501-.356-21.093 7.955-30.473 11.628 8.982 16.439 22.281 12.428 30.921 20.621.573 30.905.433 32.812 8.515-13.419 7.559-17.601 8.566-26.349 7.618z" fill="#52612c"/><ellipse cx="1844.247813" cy="1508.971572" fill="url(#at)" rx="29.877551" ry="25.97408"/><path d="m1841.157 1532.232c-9.333-1.055-16.898-5.147-22.254-14.344-5.367-10.815-.295-18.247 6.594-26.362 9.639 7.77 13.627 19.275 10.303 26.75 17.093.495 25.618.374 27.199 7.366-11.124 6.539-14.591 7.41-21.842 6.59z" fill="#52612c"/><ellipse cx="1777.853256" cy="1573.311037" fill="url(#au)" rx="31.774538" ry="26.688963"/><path d="m1774.566 1597.212c-9.926-1.085-17.971-5.289-23.666-14.739-5.708-11.113-.315-18.749 7.012-27.087 10.251 7.983 14.492 19.805 10.957 27.485 18.178.509 27.245.385 28.926 7.569-11.83 6.719-15.517 7.614-23.229 6.772z" fill="#52612c"/><ellipse cx="1720.469388" cy="1508.971572" fill="url(#av)" rx="36.04276" ry="30.025084"/><path d="m1716.741 1535.86c-11.259-1.22-20.385-5.949-26.846-16.581-6.475-12.502-.356-21.093 7.954-30.474 11.629 8.982 16.439 22.281 12.429 30.922 20.621.573 30.905.432 32.811 8.514-13.418 7.56-17.601 8.566-26.348 7.619z" fill="#52612c"/><ellipse cx="1619.929057" cy="1498.010033" fill="url(#aw)" rx="36.04276" ry="30.025084"/><path d="m1616.2 1524.898c-11.259-1.22-20.384-5.949-26.845-16.581-6.475-12.501-.357-21.093 7.954-30.473 11.628 8.982 16.439 22.281 12.429 30.921 20.62.573 30.905.433 32.811 8.515-13.419 7.56-17.601 8.566-26.349 7.618z" fill="#52612c"/><ellipse cx="1644.589893" cy="1569.974916" fill="url(#ax)" rx="36.04276" ry="30.025084"/><path d="m1640.861 1596.863c-11.259-1.22-20.384-5.949-26.845-16.581-6.475-12.502-.357-21.093 7.954-30.473 11.628 8.982 16.439 22.281 12.428 30.921 20.621.573 30.905.433 32.812 8.515-13.419 7.559-17.601 8.566-26.349 7.618z" fill="#52612c"/><ellipse cx="1523.182702" cy="1474.180602" fill="url(#ay)" rx="36.04276" ry="30.025084"/><path d="m1519.454 1501.069c-11.259-1.22-20.385-5.949-26.846-16.581-6.474-12.502-.356-21.093 7.955-30.473 11.628 8.981 16.439 22.28 12.428 30.921 20.621.573 30.905.432 32.812 8.514-13.419 7.56-17.601 8.566-26.349 7.619z" fill="#52612c"/><ellipse cx="1457.736638" cy="1426.521739" fill="url(#az)" rx="36.04276" ry="30.025084"/><path d="m1454.008 1453.41c-11.259-1.22-20.385-5.949-26.846-16.581-6.475-12.502-.356-21.093 7.955-30.473 11.628 8.981 16.439 22.281 12.428 30.921 20.621.573 30.905.432 32.812 8.515-13.419 7.559-17.601 8.565-26.349 7.618z" fill="#52612c"/><ellipse cx="1513.697765" cy="1543.285953" fill="url(#aA)" rx="36.04276" ry="30.025084"/><path d="m1509.969 1570.174c-11.259-1.22-20.385-5.949-26.845-16.581-6.475-12.501-.357-21.093 7.954-30.473 11.628 8.982 16.439 22.281 12.428 30.921 20.621.573 30.905.433 32.812 8.515-13.419 7.559-17.601 8.566-26.349 7.618z" fill="#52612c"/><path d="m1483.787 1071.463c96.957-36.205 202.308 38.234 242.815 155.755 6.029 49.099-26.774 86.262-70.313 82.635-8.31-104.952-73.586-136.302-205.315-105.696-19.433-39.641 4.033-113.372 32.813-132.694z" fill="#eab92d"/><path d="m1254.895 959.077c29.595-44.611 85.934-71.577 164.483-71.577 28.951 0 59.114 3.663 89.722 10.523l3.688 5.539 26.635 93.777c3.481 12.259 6.155 11.867 5.967-.876-.421-28.433 1.207-61.645 1.528-78.817.087-4.679 3.254-6.659 4.769-8.134 141.002 44.384 283.923 151.018 355.691 275.379 94.721 164.135 29.858 297.392-144.756 297.392s-393.279-133.257-488-297.392c-45.892-79.523-54.324-151.798-30.962-205.181l30.047 9.88zm227.267 225.814c-36.009-62.397-16.475-113.056 43.594-113.056s138.073 50.659 174.082 113.056c36.009 62.398 16.475 113.057-43.594 113.057s-138.073-50.659-174.082-113.057z" fill="#ffec0a" fill-rule="evenodd"/><path d="m1394.59 1057.279c-41.436-25.808-82.497-49.678-121.524-68.799l-12.292-19.974c84.637 42.763 154.649 85.718 210.37 129.498-1.052 1.848-1.911 3.841-2.732 5.881-25.273-17.543-49.4-31.395-73.822-46.606z" fill="#ffd306"/><path d="m1543.617 1008.454c.024-1.585 1.669-1.18 1.681-2.774.201-27.579 1.885-51.384 1.467-65.639-.357-12.156 1.04-12.297 3.118-.314l24.42 140.855-29.641-7.767c1.1-16.672-1.399-41.226-1.045-64.361z" fill="#ffd306"/><path d="m1644.393 1120.53c20.553-37.074 71.365-70.353 131.629-86.554l23.559 19.974c-42.027 17.137-95.251 49.34-136.832 83.226z" fill="#ffd306"/><path d="m1701.224 1184.891c60.439-1.004 132.339 14.206 215.492 45.497l3.575 9.987-131.17-27.978-82.134-17.519z" fill="#ffd306"/><path d="m1710.701 1271.445 6.065-14.425c27.007 21.38 50.477 44.795 72.429 63.251 52.376 42.336 95.703 79.968 120.918 110.967l-5.549 5.548c-62.603-58.782-129.199-116.092-193.863-165.341z" fill="#ffd306"/><path d="m1627.89 1294.749 10.032 2.219c27.474 65.348 48.341 126.761 62.175 179.766l-12.219-2.219c-14.346-60.749-33.987-121.377-59.988-179.766z" fill="#ffd306"/><path d="m1526.959 1239.265c3.932 3.808 9.659 8.638 17.075 14.426l-66.902 134.27-11.046-7.768z" fill="#ffd306"/><path d="m1269.651 1174.525-.979-1.84q69.309-9.664 140.084-22.193 10.482-1.856 59.049 3.329l6.964 17.754-62.99-1.109-130.113 26.632z" fill="#ffd306"/><path d="m1431.508 969.616-70.439-76.568 14.033-2.219c22.436 27.187 55.249 50.526 74.174 75.458 30.966 37.317 49.781 73.974 76.15 105.418l-14.673 1.11z" fill="#ffd306"/><path d="m1426.737 950.946 80.877 110.299h-13.126l-67.898-110.2c-.638-1.036-.572-1.08.147-.099z" fill="#fffc03"/><path d="m1324.225 956.127 143.584 119.544-3.361 5.548-140.271-125.036c-.908-.809-.886-.834.048-.056z" fill="#fffc03"/><path d="m1311.65 1043.366 116.349 58.147 21.564 10.777-1.173 5.548-136.776-74.404c-1.068-.581-1.052-.612.036-.068z" fill="#fffc03"/><path d="m1306.581 1135.924 151.283 22.972 2.482 9.987-153.788-32.83c-1.19-.254-1.179-.312.023-.129z" fill="#fffc03"/><path d="m1349.241 1252.604 139.361-40.444 7.311 8.878-146.635 31.714c-1.188.257-1.205.191-.037-.148z" fill="#fffc03"/><path d="m1494.791 1321.292 42.1-63.364 8.543 7.496-50.389 56.064c-.813.905-.927.817-.254-.196z" fill="#fffc03"/><path d="m1599.838 1421.908-8.257-131.762 10.681 5.239-2.247 126.519c-.021 1.216-.101 1.218-.177.004z" fill="#fffc03"/><path d="m1776.397 1447.844-101.46-140.252 9.672-1.11 91.879 141.3c.662 1.02.622 1.047-.091.062z" fill="#fffc03"/><path d="m1862.892 1414.924-148.8-124.778 5.371-5.857 143.488 130.567c.9.819.873.849-.059.068z" fill="#fffc03"/><path d="m1878.157 1232.913-158.486-24.082-7.044-12.206 165.556 36.149c1.188.259 1.176.322-.026.139z" fill="#fffc03"/><path d="m1768.077 1133.977-76.651 21.839-5.908-10.236 82.498-11.892c1.203-.173 1.231-.044.061.289z" fill="#fffc03"/><path d="m1705.796 1021.989-61.261 86.972-9.767-7.448 70.833-79.679c.808-.909.896-.839.195.155z" fill="#fffc03"/><path d="m1580.703 949.149 7.562 128.741-11.9-7.448 4.134-121.291c.041-1.215.133-1.216.204-.002z" fill="#fffc03"/><path d="m1823.785 1298.891-95.36-44.563 2.077-8.878 93.365 53.282c1.057.603 1.02.674-.082.159z" fill="#fffc03"/><path d="m1693 554.665c190.033 22.75 264.72 66.436 190 235l-69-20c75.303-55.859-45.692-175.187-121-215z" fill="#5aa744"/><path d="m1768 417.665c184.816 48.592 322.564 205.39 137.709 396l-57-38c89.515-130.238 18.17-239.541-80.709-358z" fill="#4f943e"/><path d="m1980 247.287c267.742 174.733 128.802 324.793-53 574l-29-14c122.829-274.446 162.213-451.73 82-560z" fill="url(#aB)"/><path d="m2394.592 242.105c-103.436 202.889-256.416 409.242-449.917 601.182l-26-22c66.85-203.309 228.527-402.299 469.071-584.907 8.792-6.674 11.859-4.109 6.846 5.725z" fill="url(#aC)"/><path d="m2540.538 366.055c-31.498 45.037-99.247 136.777-156.538 188.61-139.841 126.519-324.763 160.227-437 303l-11-23c163.432-344.83 456.119-431.81 597.023-478.686 10.474-3.485 13.841 1.03 7.515 10.076z" fill="url(#aD)"/><path d="m1936 839.665c241.932-162.15 468.962-326.786 641-156-125.777-1.585-334.423 55.102-626 170z" fill="#5a8c3e"/><path d="m1944.316 850.505c168.671-113.338 346.348-130.995 525-81l-460 138z" fill="#539d41"/><path d="m1964.987 862.951c198.626-28.631 297.313 59.056 296 263-81.793-112.886-127.43-201.189-243-175z" fill="#5ea743"/><path d="m1448.207 788.579c471.408-122.848 683.014 46.586 574.846 512.125-4.997 21.504-26.928 37.652-48.946 36.038-419.97-30.785-605.773-186.325-569.257-498.347 2.567-21.927 21.994-44.249 43.357-49.816z" fill="#668539"/><ellipse cx="1515.999984" cy="819.665246" fill="url(#aE)" rx="38" ry="31.5"/><path d="m1512.069 847.874c-11.871-1.279-21.492-6.241-28.303-17.395-6.827-13.116-.377-22.129 8.386-31.97 12.259 9.422 17.331 23.375 13.103 32.44 21.741.601 32.583.454 34.593 8.933-14.147 7.931-18.557 8.986-27.779 7.992z" fill="#52612c"/><ellipse cx="1967.616155" cy="1291.665246" fill="url(#aF)" rx="38" ry="31.5"/><path d="m1963.685 1319.874c-11.87-1.279-21.492-6.241-28.303-17.395-6.827-13.116-.376-22.129 8.386-31.97 12.26 9.422 17.331 23.375 13.103 32.44 21.741.601 32.583.454 34.593 8.933-14.147 7.931-18.556 8.986-27.779 7.992z" fill="#52612c"/><ellipse cx="1967.616155" cy="1198.665246" fill="url(#aG)" rx="38" ry="31.5"/><path d="m1963.685 1226.874c-11.87-1.279-21.492-6.241-28.303-17.395-6.827-13.116-.376-22.129 8.386-31.97 12.26 9.422 17.331 23.375 13.103 32.44 21.741.601 32.583.454 34.593 8.933-14.147 7.931-18.556 8.986-27.779 7.992z" fill="#52612c"/><ellipse cx="1876.999984" cy="1207.665246" fill="url(#aH)" rx="38" ry="31.5"/><path d="m1873.069 1235.874c-11.871-1.279-21.492-6.241-28.303-17.395-6.827-13.116-.377-22.129 8.386-31.97 12.259 9.422 17.331 23.375 13.103 32.44 21.741.601 32.583.454 34.593 8.933-14.147 7.931-18.557 8.986-27.779 7.992z" fill="#52612c"/><ellipse cx="2005.616155" cy="1135.665246" fill="url(#aI)" rx="38" ry="31.5"/><path d="m2001.685 1163.874c-11.87-1.279-21.492-6.241-28.303-17.395-6.827-13.116-.376-22.129 8.386-31.97 12.26 9.422 17.331 23.375 13.103 32.44 21.741.601 32.583.454 34.593 8.933-14.147 7.931-18.556 8.986-27.779 7.992z" fill="#52612c"/><ellipse cx="1967.616155" cy="1063.165246" fill="url(#aJ)" rx="38" ry="31.5"/><path d="m1963.685 1091.374c-11.87-1.279-21.492-6.241-28.303-17.395-6.827-13.116-.376-22.129 8.386-31.97 12.26 9.422 17.331 23.375 13.103 32.44 21.741.601 32.583.454 34.593 8.933-14.147 7.931-18.556 8.986-27.779 7.992z" fill="#52612c"/><ellipse cx="1782.999984" cy="1124.450798" fill="url(#aK)" rx="38" ry="31.5"/><path d="m1779.069 1152.66c-11.871-1.28-21.492-6.242-28.303-17.396-6.827-13.115-.377-22.129 8.386-31.97 12.259 9.423 17.331 23.375 13.103 32.44 21.741.601 32.583.454 34.593 8.933-14.147 7.931-18.557 8.987-27.779 7.993z" fill="#52612c"/><ellipse cx="1714.80807" cy="1041.9156" fill="url(#aL)" rx="38" ry="31.5"/><path d="m1710.877 1070.125c-11.871-1.28-21.492-6.242-28.303-17.396-6.827-13.116-.376-22.129 8.386-31.97 12.259 9.423 17.331 23.375 13.103 32.44 21.741.601 32.583.454 34.593 8.933-14.147 7.931-18.557 8.987-27.779 7.993z" fill="#52612c"/><ellipse cx="1820.999984" cy="1000.165246" fill="url(#aM)" rx="38" ry="31.5"/><path d="m1817.069 1028.374c-11.871-1.279-21.492-6.241-28.303-17.395-6.827-13.116-.377-22.129 8.386-31.97 12.259 9.422 17.331 23.375 13.103 32.44 21.741.601 32.583.454 34.593 8.933-14.147 7.931-18.557 8.986-27.779 7.992z" fill="#52612c"/><ellipse cx="2005.616155" cy="990.165246" fill="url(#aN)" rx="38" ry="31.5"/><path d="m2001.685 1018.374c-11.87-1.279-21.492-6.241-28.303-17.395-6.827-13.116-.376-22.129 8.386-31.97 12.26 9.422 17.331 23.375 13.103 32.44 21.741.601 32.583.454 34.593 8.933-14.147 7.931-18.556 8.986-27.779 7.992z" fill="#52612c"/><ellipse cx="1896.999984" cy="937.165246" fill="url(#aO)" rx="38" ry="31.5"/><path d="m1893.069 965.374c-11.871-1.279-21.492-6.241-28.303-17.395-6.827-13.116-.377-22.129 8.386-31.97 12.259 9.422 17.331 23.375 13.103 32.44 21.741.601 32.583.454 34.593 8.933-14.147 7.931-18.557 8.986-27.779 7.992z" fill="#52612c"/><ellipse cx="1773.999984" cy="895.665246" fill="url(#aP)" rx="38" ry="31.5"/><path d="m1770.069 923.874c-11.871-1.279-21.492-6.241-28.303-17.395-6.827-13.116-.377-22.129 8.386-31.97 12.259 9.422 17.331 23.375 13.103 32.44 21.741.601 32.583.454 34.593 8.933-14.147 7.931-18.557 8.986-27.779 7.992z" fill="#52612c"/><ellipse cx="1697.999984" cy="958.665246" fill="url(#aQ)" rx="38" ry="31.5"/><path d="m1694.069 986.874c-11.871-1.279-21.492-6.241-28.303-17.395-6.827-13.116-.377-22.129 8.386-31.97 12.259 9.422 17.331 23.375 13.103 32.44 21.741.601 32.583.454 34.593 8.933-14.147 7.931-18.557 8.986-27.779 7.992z" fill="#52612c"/><ellipse cx="1648.999984" cy="829.665246" fill="url(#aR)" rx="38" ry="31.5"/><path d="m1645.069 857.874c-11.871-1.279-21.492-6.241-28.303-17.395-6.827-13.116-.377-22.129 8.386-31.97 12.259 9.422 17.331 23.375 13.103 32.44 21.741.601 32.583.454 34.593 8.933-14.147 7.931-18.557 8.986-27.779 7.992z" fill="#52612c"/><ellipse cx="1418" cy="847" fill="url(#aS)" rx="38" ry="31.5"/><path d="m1414.069 875.209c-11.871-1.28-21.492-6.241-28.303-17.396-6.827-13.115-.377-22.129 8.386-31.97 12.259 9.423 17.331 23.376 13.103 32.441 21.741.601 32.583.453 34.593 8.932-14.147 7.931-18.557 8.987-27.779 7.993z" fill="#52612c"/><ellipse cx="1876.999984" cy="1318.5" fill="url(#aT)" rx="38" ry="31.5"/><path d="m1873.069 1346.709c-11.871-1.28-21.492-6.241-28.303-17.396-6.827-13.115-.377-22.129 8.386-31.97 12.259 9.423 17.331 23.376 13.103 32.441 21.741.601 32.583.453 34.593 8.932-14.147 7.931-18.557 8.987-27.779 7.993z" fill="#52612c"/><ellipse cx="1808.999984" cy="1247.5" fill="url(#aU)" rx="38" ry="31.5"/><path d="m1805.069 1275.709c-11.871-1.28-21.492-6.241-28.303-17.396-6.827-13.115-.377-22.129 8.386-31.97 12.259 9.423 17.331 23.376 13.103 32.441 21.741.601 32.583.453 34.593 8.932-14.147 7.931-18.557 8.987-27.779 7.993z" fill="#52612c"/><ellipse cx="1725.575453" cy="1287" fill="url(#aV)" rx="38" ry="31.5"/><path d="m1721.644 1315.209c-11.87-1.28-21.491-6.241-28.303-17.396-6.827-13.115-.376-22.129 8.386-31.97 12.26 9.423 17.332 23.376 13.104 32.441 21.74.601 32.583.453 34.593 8.932-14.147 7.931-18.557 8.987-27.78 7.993z" fill="#52612c"/><ellipse cx="1720" cy="1194" fill="url(#aW)" rx="38" ry="31.5"/><path d="m1716.069 1222.209c-11.871-1.28-21.492-6.241-28.303-17.396-6.827-13.115-.377-22.129 8.386-31.97 12.259 9.423 17.331 23.376 13.103 32.441 21.741.601 32.583.453 34.593 8.932-14.147 7.931-18.557 8.987-27.779 7.993z" fill="#52612c"/><ellipse cx="1629.999984" cy="1198.665246" fill="url(#aX)" rx="38" ry="31.5"/><path d="m1626.069 1226.874c-11.871-1.279-21.492-6.241-28.303-17.395-6.827-13.116-.377-22.129 8.386-31.97 12.259 9.422 17.331 23.375 13.103 32.44 21.741.601 32.583.454 34.593 8.933-14.147 7.931-18.557 8.986-27.779 7.992z" fill="#52612c"/><ellipse cx="1515.999984" cy="1167.165246" fill="url(#aY)" rx="38" ry="31.5"/><path d="m1512.069 1195.374c-11.871-1.279-21.492-6.241-28.303-17.395-6.827-13.116-.377-22.129 8.386-31.97 12.259 9.422 17.331 23.375 13.103 32.44 21.741.601 32.583.454 34.593 8.933-14.147 7.931-18.557 8.986-27.779 7.992z" fill="#52612c"/><ellipse cx="1648.999984" cy="1104.165246" fill="url(#aZ)" rx="38" ry="31.5"/><path d="m1645.069 1132.374c-11.871-1.279-21.492-6.241-28.303-17.395-6.827-13.116-.377-22.129 8.386-31.97 12.259 9.422 17.331 23.375 13.103 32.44 21.741.601 32.583.454 34.593 8.933-14.147 7.931-18.557 8.986-27.779 7.992z" fill="#52612c"/><ellipse cx="1560" cy="1082.665246" fill="url(#a0)" rx="38" ry="31.5"/><path d="m1556.069 1110.874c-11.871-1.279-21.492-6.241-28.303-17.395-6.827-13.116-.377-22.129 8.386-31.97 12.259 9.422 17.331 23.375 13.103 32.44 21.741.601 32.583.454 34.593 8.933-14.147 7.931-18.557 8.986-27.779 7.992z" fill="#52612c"/><ellipse cx="1467" cy="1043.370952" fill="url(#a1)" rx="38" ry="31.5"/><path d="m1463.069 1071.58c-11.871-1.28-21.492-6.241-28.303-17.396-6.827-13.115-.377-22.129 8.386-31.97 12.259 9.423 17.331 23.376 13.103 32.441 21.741.601 32.583.453 34.593 8.932-14.147 7.931-18.557 8.987-27.779 7.993z" fill="#52612c"/><ellipse cx="1591.999984" cy="1017" fill="url(#a2)" rx="38" ry="31.5"/><path d="m1588.069 1045.209c-11.871-1.28-21.492-6.241-28.303-17.396-6.827-13.115-.377-22.129 8.386-31.97 12.259 9.423 17.331 23.376 13.103 32.441 21.741.601 32.583.453 34.593 8.932-14.147 7.931-18.557 8.987-27.779 7.993z" fill="#52612c"/><ellipse cx="1496.999984" cy="958.665246" fill="url(#a3)" rx="38" ry="31.5"/><path d="m1493.069 986.874c-11.871-1.279-21.492-6.241-28.303-17.395-6.827-13.116-.377-22.129 8.386-31.97 12.259 9.422 17.331 23.375 13.103 32.44 21.741.601 32.583.454 34.593 8.933-14.147 7.931-18.557 8.986-27.779 7.992z" fill="#52612c"/><ellipse cx="1409" cy="941.5" fill="url(#a4)" rx="38" ry="31.5"/><path d="m1405.069 969.709c-11.871-1.28-21.492-6.241-28.303-17.396-6.827-13.115-.377-22.129 8.386-31.97 12.259 9.423 17.331 23.376 13.103 32.441 21.741.601 32.583.453 34.593 8.932-14.147 7.931-18.557 8.987-27.779 7.993z" fill="#52612c"/><ellipse cx="1572.999984" cy="905.665246" fill="url(#a5)" rx="38" ry="31.5"/><path d="m1569.069 933.874c-11.871-1.279-21.492-6.241-28.303-17.395-6.827-13.116-.377-22.129 8.386-31.97 12.259 9.422 17.331 23.375 13.103 32.44 21.741.601 32.583.454 34.593 8.933-14.147 7.931-18.557 8.986-27.779 7.992z" fill="#52612c"/><ellipse cx="1591.999984" cy="766.665246" fill="url(#a6)" rx="38" ry="31.5"/><path d="m1593.691 784.531c-11.871-1.28-21.492-6.241-28.304-17.396-6.826-13.115-.376-22.129 8.386-31.97 12.26 9.423 17.332 23.376 13.104 32.441 21.74.601 32.583.453 34.593 8.932-14.147 7.931-18.557 8.987-27.779 7.993z" fill="#52612c"/><ellipse cx="1866.999984" cy="851.165246" fill="url(#a7)" rx="38" ry="31.5"/><path d="m1863.069 879.374c-11.871-1.279-21.492-6.241-28.303-17.395-6.827-13.116-.377-22.129 8.386-31.97 12.259 9.422 17.331 23.375 13.103 32.44 21.741.601 32.583.454 34.593 8.933-14.147 7.931-18.557 8.986-27.779 7.992z" fill="#52612c"/><ellipse cx="1724.999984" cy="788.165246" fill="url(#a8)" rx="38" ry="31.5"/><path d="m1721.069 816.374c-11.871-1.279-21.492-6.241-28.303-17.395-6.827-13.116-.377-22.129 8.386-31.97 12.259 9.422 17.331 23.375 13.103 32.44 21.741.601 32.583.454 34.593 8.933-14.147 7.931-18.557 8.986-27.779 7.992z" fill="#52612c"/><ellipse cx="1884.999984" cy="1114.165246" fill="url(#a9)" rx="38" ry="31.5"/><path d="m1881.069 1142.374c-11.871-1.279-21.492-6.241-28.303-17.395-6.827-13.116-.377-22.129 8.386-31.97 12.259 9.422 17.331 23.375 13.103 32.44 21.741.601 32.583.454 34.593 8.933-14.147 7.931-18.557 8.986-27.779 7.992z" fill="#52612c"/></g></svg>